<svg width="65" height="64" viewBox="0 0 65 64" fill="none" xmlns="http://www.w3.org/2000/svg">
<path d="M60.8099 14.0899L42.1399 7.99987C41.9293 7.95186 41.7105 7.95186 41.4999 7.99987L23.1699 13.9999L4.8099 7.99987C4.65875 7.95169 4.49829 7.94016 4.3418 7.96624C4.18531 7.99233 4.03726 8.05527 3.9099 8.14987C3.77688 8.24686 3.66985 8.37518 3.59833 8.52346C3.52681 8.67174 3.493 8.83539 3.4999 8.99987V48.9999C3.50006 49.2107 3.56687 49.4162 3.6908 49.5868C3.81472 49.7574 3.98942 49.8845 4.1899 49.9499L22.8599 55.9999C23.0681 56.0658 23.2917 56.0658 23.4999 55.9999L41.8499 49.9999L60.2099 55.9999C60.3061 56.0127 60.4037 56.0127 60.4999 55.9999C60.7651 55.9999 61.0195 55.8945 61.207 55.707C61.3946 55.5194 61.4999 55.2651 61.4999 54.9999V14.9999C61.4915 14.7959 61.4209 14.5994 61.2976 14.4367C61.1742 14.274 61.0041 14.153 60.8099 14.0899ZM5.4999 10.3299L22.1699 15.7699V53.6699L5.4999 48.2299V10.3299ZM24.1699 15.7699L40.8299 10.3299V48.2299L24.1699 53.6699V15.7699ZM59.4999 53.6699L42.8299 48.2299V10.3299L59.4999 15.7699V53.6699Z" fill="black"/>
<path d="M45.5001 32.5799L56.2201 36.0699C56.3225 36.0892 56.4276 36.0892 56.5301 36.0699C56.7419 36.0707 56.9485 36.0042 57.1201 35.8799C57.2475 35.7868 57.351 35.6649 57.4223 35.5241C57.4936 35.3834 57.5305 35.2277 57.5301 35.0699V17.9299C57.5408 17.7106 57.4791 17.4939 57.3544 17.3131C57.2297 17.1324 57.0489 16.9977 56.8401 16.9299L46.1201 13.4799C45.97 13.431 45.8105 13.4183 45.6546 13.4428C45.4987 13.4674 45.3508 13.5285 45.223 13.6211C45.0952 13.7138 44.9912 13.8354 44.9194 13.976C44.8477 14.1165 44.8102 14.2721 44.8101 14.4299V31.6199C44.8081 31.8325 44.8739 32.0402 44.998 32.2128C45.1221 32.3854 45.298 32.514 45.5001 32.5799ZM46.8101 15.8099L55.5001 18.6499V33.7499L46.8101 30.8999V15.8099ZM56.8401 38.9199L53.5501 37.8499C53.3013 37.7789 53.0346 37.8071 52.8062 37.9286C52.5777 38.0501 52.4053 38.2553 52.325 38.5013C52.2447 38.7473 52.2629 39.0148 52.3758 39.2476C52.4886 39.4805 52.6873 39.6605 52.9301 39.7499L56.2201 40.8199C56.3229 40.8343 56.4272 40.8343 56.5301 40.8199C56.7677 40.8194 56.9974 40.7343 57.1779 40.5798C57.3585 40.4253 57.4781 40.2116 57.5154 39.9769C57.5527 39.7423 57.5053 39.502 57.3815 39.2991C57.2578 39.0963 57.0658 38.9441 56.8401 38.8699V38.9199ZM50.8101 36.9999L46.1201 35.4699C45.9947 35.4278 45.8622 35.4109 45.7303 35.4204C45.5984 35.4298 45.4696 35.4653 45.3515 35.5248C45.2334 35.5843 45.1282 35.6667 45.0422 35.7671C44.9561 35.8676 44.8908 35.9841 44.8501 36.1099C44.7834 36.3565 44.8136 36.6192 44.9345 36.8442C45.0553 37.0692 45.2577 37.2394 45.5001 37.3199L50.1901 38.8499C50.2925 38.8699 50.3977 38.8699 50.5001 38.8499C50.7008 38.8117 50.885 38.7129 51.0279 38.5668C51.1707 38.4207 51.2654 38.2344 51.2992 38.0329C51.333 37.8313 51.3042 37.6243 51.2167 37.4396C51.1293 37.255 50.9874 37.1015 50.8101 36.9999ZM56.8401 42.6299L53.5501 41.5599C53.3013 41.4889 53.0346 41.5171 52.8062 41.6386C52.5777 41.7601 52.4053 41.9653 52.325 42.2113C52.2447 42.4573 52.2629 42.7248 52.3758 42.9576C52.4886 43.1905 52.6873 43.3705 52.9301 43.4599L56.2201 44.5299C56.3225 44.5492 56.4276 44.5492 56.5301 44.5299C56.741 44.5298 56.9464 44.463 57.117 44.339C57.2876 44.2151 57.4147 44.0404 57.4801 43.8399C57.5472 43.5947 57.5185 43.333 57.3996 43.1083C57.2807 42.8835 57.0806 42.7124 56.8401 42.6299ZM45.5001 40.9999L50.1901 42.5299C50.2929 42.5451 50.3973 42.5451 50.5001 42.5299C50.7377 42.5294 50.9674 42.4443 51.1479 42.2898C51.3285 42.1353 51.4481 41.9216 51.4854 41.6869C51.5227 41.4523 51.4753 41.212 51.3515 41.0091C51.2278 40.8063 51.0358 40.6541 50.8101 40.5799L46.1201 39.0399C45.9914 38.9992 45.8559 38.9843 45.7215 38.9959C45.587 39.0075 45.4561 39.0455 45.3363 39.1078C45.2165 39.17 45.1102 39.2552 45.0233 39.3585C44.9365 39.4618 44.8708 39.5812 44.8301 39.7099C44.7894 39.8386 44.7744 39.9741 44.786 40.1086C44.7977 40.243 44.8357 40.3739 44.8979 40.4937C44.9601 40.6135 45.0453 40.7198 45.1487 40.8067C45.252 40.8936 45.3714 40.9592 45.5001 40.9999ZM56.8401 46.2799L53.5501 45.2099C53.3013 45.1389 53.0346 45.1671 52.8062 45.2886C52.5777 45.4101 52.4053 45.6153 52.325 45.8613C52.2447 46.1073 52.2629 46.3748 52.3758 46.6076C52.4886 46.8405 52.6873 47.0205 52.9301 47.1099L56.2201 48.1799C56.3229 48.1943 56.4272 48.1943 56.5301 48.1799C56.7677 48.1794 56.9974 48.0943 57.1779 47.9398C57.3585 47.7853 57.4781 47.5716 57.5154 47.3369C57.5527 47.1023 57.5053 46.862 57.3815 46.6591C57.2578 46.4563 57.0658 46.3041 56.8401 46.2299V46.2799ZM50.8101 44.3099L46.1201 42.7799C45.9947 42.7378 45.8622 42.7209 45.7303 42.7304C45.5984 42.7398 45.4696 42.7753 45.3515 42.8348C45.2334 42.8943 45.1282 42.9767 45.0422 43.0771C44.9561 43.1776 44.8908 43.2941 44.8501 43.4199C44.8097 43.5453 44.7945 43.6775 44.8053 43.8088C44.8161 43.9401 44.8528 44.0679 44.9132 44.185C44.9736 44.3021 45.0565 44.4061 45.1573 44.491C45.258 44.576 45.3745 44.6402 45.5001 44.6799L50.1901 46.2099C50.2925 46.2299 50.3977 46.2299 50.5001 46.2099C50.7377 46.2094 50.9674 46.1243 51.1479 45.9698C51.3285 45.8153 51.4481 45.6016 51.4854 45.3669C51.5227 45.1323 51.4753 44.892 51.3515 44.6891C51.2278 44.4863 51.0358 44.3341 50.8101 44.2599V44.3099ZM19.1501 16.9999L8.42008 13.4799C8.27002 13.431 8.11051 13.4183 7.9546 13.4428C7.79868 13.4674 7.65079 13.5285 7.52301 13.6211C7.39524 13.7138 7.29121 13.8354 7.21944 13.976C7.14767 14.1165 7.1102 14.2721 7.11008 14.4299V31.6199C7.09935 31.8392 7.1611 32.056 7.28581 32.2367C7.41051 32.4175 7.59124 32.5521 7.80008 32.6199L18.5001 36.0699C18.6025 36.0899 18.7077 36.0899 18.8101 36.0699C19.0185 36.0686 19.2213 36.0022 19.3901 35.8799C19.5193 35.7879 19.6248 35.6665 19.6978 35.5256C19.7709 35.3848 19.8093 35.2286 19.8101 35.0699V17.9299C19.808 17.7261 19.7436 17.5278 19.6256 17.3616C19.5077 17.1954 19.3418 17.0692 19.1501 16.9999ZM17.8401 33.7499L9.11008 30.8999V15.8099L17.8401 18.6499V33.7499ZM19.1401 39.8499L15.8801 38.7899C15.7259 38.7394 15.5618 38.7272 15.4019 38.7543C15.242 38.7814 15.091 38.847 14.9621 38.9454C14.8331 39.0438 14.7301 39.1721 14.6618 39.3193C14.5935 39.4664 14.562 39.6279 14.5701 39.7899V44.9999C14.5594 45.2192 14.6211 45.436 14.7458 45.6167C14.8705 45.7975 15.0512 45.9321 15.2601 45.9999L18.5001 46.9999C18.6029 47.0139 18.7072 47.0139 18.8101 46.9999C19.0219 47.0007 19.2285 46.9342 19.4001 46.8099C19.5275 46.7168 19.631 46.5949 19.7023 46.4541C19.7736 46.3134 19.8105 46.1577 19.8101 45.9999V40.7999C19.8113 40.5915 19.7474 40.3879 19.6273 40.2176C19.5072 40.0472 19.3368 39.9187 19.1401 39.8499ZM17.8301 44.6999L16.5701 44.2799V41.1099L17.8301 41.5299V44.6999ZM12.8901 37.8099L8.42008 36.3499C8.2697 36.3003 8.10969 36.2872 7.95322 36.3115C7.79675 36.3359 7.6483 36.397 7.52008 36.4899C7.39268 36.583 7.28912 36.7049 7.21787 36.8457C7.14661 36.9865 7.10967 37.1421 7.11008 37.2999V42.5799C7.09935 42.7992 7.1611 43.016 7.28581 43.1967C7.41051 43.3775 7.59124 43.5121 7.80008 43.5799L12.2701 44.9999C12.3692 45.0367 12.4745 45.0536 12.5801 45.0499C12.7892 45.0529 12.9933 44.986 13.1601 44.8599C13.2893 44.7679 13.3948 44.6465 13.4678 44.5056C13.5409 44.3648 13.5793 44.2086 13.5801 44.0499V38.7599C13.5799 38.549 13.5131 38.3436 13.3892 38.173C13.2653 38.0024 13.0906 37.8753 12.8901 37.8099ZM11.5801 42.6599L9.11008 41.8499V38.6799L11.5801 39.4899V42.6599ZM27.6001 19.5799C27.7029 19.5951 27.8073 19.5951 27.9101 19.5799L31.2001 18.5099C31.3294 18.473 31.4499 18.4104 31.5545 18.3259C31.659 18.2413 31.7455 18.1365 31.8086 18.0178C31.8717 17.8991 31.9103 17.7688 31.9219 17.6348C31.9335 17.5009 31.918 17.3659 31.8763 17.2381C31.8346 17.1103 31.7675 16.9922 31.6791 16.8908C31.5907 16.7895 31.4828 16.7071 31.3618 16.6484C31.2407 16.5898 31.1092 16.5561 30.9748 16.5495C30.8405 16.5429 30.7063 16.5635 30.5801 16.6099L27.2901 17.6799C27.0643 17.7541 26.8724 17.9063 26.7486 18.1091C26.6249 18.312 26.5774 18.5523 26.6147 18.7869C26.652 19.0216 26.7717 19.2353 26.9522 19.3898C27.1328 19.5443 27.3625 19.6294 27.6001 19.6299V19.5799ZM33.6401 17.6099C33.7456 17.6122 33.8506 17.5953 33.9501 17.5599L38.6401 15.9999C38.7694 15.963 38.8899 15.9004 38.9945 15.8159C39.099 15.7313 39.1855 15.6265 39.2486 15.5078C39.3117 15.3891 39.3503 15.2588 39.3619 15.1248C39.3735 14.9909 39.358 14.8559 39.3163 14.7281C39.2746 14.6003 39.2075 14.4822 39.1191 14.3808C39.0307 14.2795 38.9228 14.1971 38.8018 14.1384C38.6807 14.0798 38.5492 14.0461 38.4148 14.0395C38.2805 14.0329 38.1463 14.0535 38.0201 14.0999L33.3301 15.6299C33.1043 15.7041 32.9124 15.8563 32.7886 16.0591C32.6649 16.262 32.6174 16.5023 32.6547 16.7369C32.692 16.9716 32.8117 17.1853 32.9922 17.3398C33.1728 17.4943 33.4025 17.5794 33.6401 17.5799V17.6099ZM31.8401 20.9999C31.8003 20.8743 31.7361 20.7578 31.6512 20.6571C31.5663 20.5564 31.4623 20.4734 31.3452 20.413C31.2281 20.3526 31.1002 20.316 30.9689 20.3051C30.8376 20.2943 30.7055 20.3095 30.5801 20.3499L27.2901 21.4299C27.0249 21.471 26.7868 21.6158 26.6284 21.8324C26.4699 22.049 26.404 22.3197 26.4451 22.5849C26.4862 22.8501 26.631 23.0882 26.8476 23.2466C27.0642 23.4051 27.3349 23.471 27.6001 23.4299C27.7053 23.4287 27.8098 23.4119 27.9101 23.3799L31.2001 22.2999C31.3294 22.2595 31.4492 22.1932 31.5521 22.105C31.6551 22.0169 31.739 21.9088 31.7989 21.7872C31.8587 21.6656 31.8932 21.5331 31.9003 21.3978C31.9074 21.2625 31.8869 21.1271 31.8401 20.9999ZM33.6401 21.4499C33.7452 21.4471 33.8494 21.4303 33.9501 21.3999L38.6401 19.8699C38.8829 19.7805 39.0816 19.6005 39.1944 19.3676C39.3072 19.1348 39.3254 18.8673 39.2452 18.6213C39.1649 18.3753 38.9924 18.1701 38.764 18.0486C38.5355 17.9271 38.2689 17.8989 38.0201 17.9699L33.3301 19.4999C33.1043 19.5741 32.9124 19.7263 32.7886 19.9291C32.6649 20.132 32.6174 20.3723 32.6547 20.6069C32.692 20.8416 32.8117 21.0553 32.9922 21.2098C33.1728 21.3643 33.4025 21.4494 33.6401 21.4499ZM31.8401 24.8699C31.7577 24.6181 31.5787 24.4092 31.3425 24.2892C31.1063 24.1692 30.832 24.1479 30.5801 24.2299L27.2901 25.2999C27.1642 25.3407 27.0477 25.4059 26.9473 25.492C26.8469 25.5781 26.7645 25.6832 26.705 25.8013C26.6454 25.9194 26.6099 26.0482 26.6005 26.1801C26.5911 26.3121 26.6079 26.4446 26.6501 26.5699C26.7179 26.7788 26.8526 26.9595 27.0333 27.0842C27.214 27.2089 27.4308 27.2707 27.6501 27.2599C27.7553 27.2587 27.8598 27.2419 27.9601 27.2099L31.2501 26.1299C31.4928 26.0376 31.69 25.8545 31.8001 25.6194C31.9102 25.3842 31.9246 25.1155 31.8401 24.8699ZM33.6401 25.2899C33.7452 25.2871 33.8494 25.2703 33.9501 25.2399L38.6401 23.7099C38.8829 23.6205 39.0816 23.4405 39.1944 23.2076C39.3072 22.9748 39.3254 22.7073 39.2452 22.4613C39.1649 22.2153 38.9924 22.0101 38.764 21.8886C38.5355 21.7671 38.2689 21.7389 38.0201 21.8099L33.3301 23.3399C33.1043 23.4141 32.9124 23.5663 32.7886 23.7691C32.6649 23.972 32.6174 24.2123 32.6547 24.4469C32.692 24.6816 32.8117 24.8953 32.9922 25.0498C33.1728 25.2043 33.4025 25.2894 33.6401 25.2899ZM30.5801 28.0699L27.2901 29.1399C27.0382 29.2223 26.8294 29.4013 26.7094 29.6375C26.5894 29.8738 26.5681 30.148 26.6501 30.3999C26.7179 30.6088 26.8526 30.7895 27.0333 30.9142C27.214 31.0389 27.4308 31.1007 27.6501 31.0899C27.7557 31.0936 27.861 31.0767 27.9601 31.0399L31.2001 29.9999C31.4519 29.9176 31.6608 29.7386 31.7808 29.5023C31.9008 29.2661 31.9221 28.9919 31.8401 28.7399C31.8024 28.6125 31.7397 28.4939 31.6557 28.391C31.5716 28.2881 31.4679 28.203 31.3506 28.1406C31.2333 28.0782 31.1048 28.0398 30.9725 28.0277C30.8402 28.0156 30.7068 28.0299 30.5801 28.0699ZM33.6401 29.1299C33.7452 29.1271 33.8494 29.1103 33.9501 29.0799L38.6401 27.5499C38.8934 27.4677 39.1036 27.2882 39.2246 27.051C39.3455 26.8138 39.3673 26.5382 39.2851 26.2849C39.2029 26.0316 39.0234 25.8214 38.7862 25.7004C38.5489 25.5795 38.2734 25.5577 38.0201 25.6399L33.3301 27.1799C33.1043 27.2541 32.9124 27.4063 32.7886 27.6091C32.6649 27.812 32.6174 28.0523 32.6547 28.2869C32.692 28.5216 32.8117 28.7353 32.9922 28.8898C33.1728 29.0443 33.4025 29.1294 33.6401 29.1299ZM27.9101 34.8799L31.2001 33.8099C31.4429 33.7205 31.6416 33.5405 31.7544 33.3076C31.8672 33.0748 31.8854 32.8073 31.8052 32.5613C31.7249 32.3153 31.5524 32.1101 31.324 31.9886C31.0955 31.8671 30.8289 31.8389 30.5801 31.9099L27.2901 32.9999C27.0382 33.0823 26.8294 33.2613 26.7094 33.4975C26.5894 33.7338 26.5681 34.008 26.6501 34.2599C26.7179 34.4688 26.8526 34.6495 27.0333 34.7742C27.214 34.8989 27.4308 34.9607 27.6501 34.9499C27.74 34.9413 27.8279 34.9176 27.9101 34.8799ZM33.9501 32.9199L38.6401 31.3899C38.8934 31.3077 39.1036 31.1282 39.2246 30.891C39.3455 30.6538 39.3673 30.3782 39.2851 30.1249C39.2029 29.8716 39.0234 29.6614 38.7862 29.5404C38.5489 29.4195 38.2734 29.3977 38.0201 29.4799L33.3301 30.9999C33.2042 31.0407 33.0877 31.1059 32.9873 31.192C32.8869 31.2781 32.8045 31.3832 32.745 31.5013C32.6854 31.6194 32.6499 31.7482 32.6405 31.8801C32.6311 32.0121 32.6479 32.1446 32.6901 32.2699C32.7597 32.4769 32.8951 32.6554 33.0756 32.7782C33.2562 32.901 33.472 32.9613 33.6901 32.9499C33.7776 32.9499 33.8648 32.9398 33.9501 32.9199ZM31.7801 37.9999C31.653 37.9086 31.5063 37.8483 31.3517 37.824C31.1972 37.7997 31.039 37.812 30.8901 37.8599L27.6201 38.9199C27.4196 38.9853 27.2449 39.1124 27.121 39.283C26.9971 39.4536 26.9302 39.659 26.9301 39.8699V48.8099C26.9297 48.9677 26.9666 49.1234 27.0379 49.2641C27.1091 49.4049 27.2127 49.5268 27.3401 49.6199C27.5117 49.7442 27.7183 49.8107 27.9301 49.8099C28.0353 49.8087 28.1398 49.7919 28.2401 49.7599L31.5001 48.6999C31.7089 48.6321 31.8897 48.4975 32.0144 48.3167C32.1391 48.136 32.2008 47.9192 32.1901 47.6999V38.8099C32.1905 38.6521 32.1536 38.4965 32.0823 38.3557C32.011 38.2149 31.9075 38.093 31.7801 37.9999ZM30.2001 46.9999L28.9301 47.4099V40.5999L30.2001 40.1899V46.9999ZM39.2401 35.5699C39.113 35.4786 38.9663 35.4183 38.8117 35.394C38.6572 35.3697 38.499 35.382 38.3501 35.4299L33.8801 36.8799C33.6796 36.9453 33.5049 37.0724 33.381 37.243C33.2571 37.4136 33.1902 37.6191 33.1901 37.8299V46.7699C33.1897 46.9277 33.2266 47.0834 33.2979 47.2241C33.3691 47.3649 33.4727 47.4868 33.6001 47.5799C33.7717 47.7042 33.9783 47.7707 34.1901 47.7699C34.2952 47.7679 34.3996 47.7511 34.5001 47.7199L38.9701 46.2699C39.1789 46.2021 39.3597 46.0675 39.4844 45.8867C39.6091 45.706 39.6708 45.4892 39.6601 45.2699V36.3799C39.6594 36.2213 39.6209 36.0651 39.5478 35.9242C39.4748 35.7834 39.3693 35.6619 39.2401 35.5699ZM37.6601 44.5699L35.1901 45.3699V38.5599L37.6601 37.7499V44.5699Z" fill="black"/>
</svg>
