<svg xmlns="http://www.w3.org/2000/svg" fill="none" viewBox="0 0 5463 135" style="max-height: 500px" width="5463" height="132.66666666666666">
<path fill="#87BDF1" d="M3730.67 134.948C3765.42 134.948 3793.58 110.232 3793.58 79.7422C3793.58 49.2526 3765.42 24.536 3730.67 24.536C3695.93 24.536 3667.76 49.2526 3667.76 79.7422C3667.76 110.232 3695.93 134.948 3730.67 134.948Z"/>
<path fill="#87BDF1" d="M3801.65 130.351C3825.51 130.351 3844.86 113.378 3844.86 92.4412C3844.86 71.5042 3825.51 54.5315 3801.65 54.5315C3777.79 54.5315 3758.45 71.5042 3758.45 92.4412C3758.45 113.378 3777.79 130.351 3801.65 130.351Z"/>
<path fill="#87BDF1" d="M3781.52 106.005C3805.38 106.005 3824.72 89.0326 3824.72 68.0957C3824.72 47.1587 3805.38 30.186 3781.52 30.186C3757.66 30.186 3738.32 47.1587 3738.32 68.0957C3738.32 89.0326 3757.66 106.005 3781.52 106.005Z"/>
<path fill="#87BDF1" d="M3667.76 79.7385L3844.84 92.4299V134.945H3667.76"/>
<path fill="#F7422C" d="M3430.88 16.6729C3433 16.6729 3435.09 16.6729 3437.21 16.6729C3438.42 16.8637 3439.6 17.0783 3440.81 17.2929C3446.58 18.3183 3451.83 20.3929 3456.65 23.2782C3459.23 24.8282 3461.95 26.3782 3463.93 28.4289C3467.01 31.6242 3469.73 35.1534 3472.26 38.7303C3476.03 44.0956 3478.86 49.8424 3480.29 56.0423C3480.81 58.2838 3481.8 60.4538 3481.42 62.8145C3481.03 65.1753 3480.73 67.536 3480.38 69.8967C3479.58 75.0951 3477.35 79.7212 3473.39 83.7273C3471.36 85.8019 3469.54 88.0672 3467.78 90.3326C3466.52 91.9302 3466.63 92.4549 3468.08 93.9095C3474.9 100.61 3479.99 108.145 3482.22 116.944C3482.96 119.901 3484.33 122.763 3484.39 125.863C3484.39 127.15 3484.86 128.414 3485.1 129.702V134.948H3309.35C3309.35 134.543 3309.35 134.161 3309.35 133.756C3309.6 132.873 3309.84 131.991 3310.09 131.109C3311.49 126.149 3313.97 121.523 3316.75 117.064C3319.05 113.344 3322.08 109.958 3324.83 106.476C3326.59 104.259 3328.46 102.089 3330.22 99.8709C3331.37 98.3925 3331.32 98.2732 3329.89 97.0809C3328.84 96.1987 3327.72 95.364 3326.75 94.4102C3323.59 91.3341 3320.43 88.258 3317.38 85.0627C3316.2 83.8227 3315.12 82.4396 3314.38 80.9612C3312.26 76.7643 3310.89 72.4005 3310.42 67.7983C3310.15 65.1753 3309.87 62.5999 3310.34 59.9769C3311.03 56.0423 3312.76 52.4416 3314.66 48.8648C3317.82 42.8795 3321.86 37.4665 3327.83 33.2458C3335.55 27.7612 3344.76 26.1874 3354.33 25.782C3358.02 25.6151 3361.73 26.2589 3365.41 26.3066C3368.41 26.3543 3371.24 26.7835 3373.88 27.9997C3375.89 28.9297 3377.84 29.9789 3379.71 31.1235C3383.67 33.5558 3387.8 35.7257 3392.3 37.4426C3392.66 37.1088 3392.99 36.7749 3393.35 36.4888C3397.78 32.6496 3402.07 28.6674 3406.69 24.9951C3411.41 21.2513 3416.97 18.6998 3423.38 17.7221C3425.88 17.3406 3428.41 17.0068 3430.91 16.6491L3430.88 16.6729Z"/>
<path fill="#253465" d="M3028.98 134.945C3028.98 134.681 3028.98 134.471 3028.98 134.266C3028.98 119.202 3028.98 104.137 3028.99 89.0772C3028.99 88.6415 3029.12 88.1849 3029.29 87.766C3030.48 84.9257 3032.48 82.4541 3034.25 79.8778C3039.63 72.0147 3045.23 64.2689 3051.35 56.8121C3055.02 52.3423 3058.84 47.9771 3063.21 43.9848C3065.56 41.84 3068.04 39.8082 3070.99 38.2708C3072.56 37.4497 3074.21 36.813 3076.1 36.8046C3078.17 36.792 3079.42 37.5209 3079.93 39.2511C3080.29 40.4366 3080.53 41.6892 3080.52 42.9082C3080.5 45.5013 3080.33 48.0944 3080.14 50.6833C3079.88 54.2651 3079.51 57.8427 3079.74 61.437C3079.88 63.7243 3080.19 65.9948 3081.45 68.0643C3081.86 68.7345 3082.4 69.3629 3083.01 69.9117C3084.42 71.1852 3086.12 71.512 3088.06 70.9255C3089.69 70.4312 3091.15 69.6687 3092.4 68.6801C3095.3 66.3802 3098.18 64.0552 3100.96 61.6506C3106.19 57.1347 3111.33 52.535 3117.46 48.8862C3121.16 46.6869 3125.09 44.8981 3129.46 43.9011C3135.04 42.6317 3140.52 43.0339 3145.93 44.5755C3151.69 46.2135 3156.8 48.8527 3161.5 52.1035C3169.24 57.4698 3175.52 63.8876 3179.96 71.579C3181.77 74.6957 3183.12 77.9507 3183.58 81.4361C3183.72 82.4373 3183.76 83.4511 3183.76 84.4607C3183.76 101.092 3183.76 117.727 3183.76 134.358C3183.76 134.53 3183.76 134.706 3183.76 134.949H3028.98V134.945Z"/>
<path fill="#C0B991" d="M782.912 134.949C782.912 102.009 782.912 69.0739 782.912 36.1342C783.057 36.0079 783.224 35.8956 783.348 35.7553C785.273 33.5572 787.419 31.5507 790.043 29.9746C794.491 27.2947 799.288 26.3687 804.504 27.9729C808.231 29.1187 811.168 31.2514 813.744 33.7957C817.476 37.4811 820.149 41.7278 822.364 46.2083C825.236 52.0264 827.188 58.0924 828.597 64.2941C830.001 70.4817 830.824 76.7254 831.162 83.0206C831.227 84.2039 831.275 85.3918 831.329 86.6031C855.927 81.0796 880.461 81.1077 904.99 86.706C905.006 86.5844 905.016 86.5096 905.022 86.4348C905.323 82.4313 905.516 78.4138 905.957 74.4197C906.657 68.0497 908.06 61.7872 910.109 55.637C912.115 49.6084 914.707 43.7903 918.579 38.4586C920.983 35.1473 923.78 32.126 927.544 29.8951C933.186 26.5511 939.02 26.2143 944.979 29.245C948.378 30.9755 951.008 33.4262 953.299 36.1716C953.519 36.4335 953.659 36.8123 953.659 37.135C953.675 69.5276 953.675 101.925 953.675 134.317V134.944H782.912V134.949Z"/>
<path fill="#C0B991" d="M723.392 50.8251C722.02 53.2291 721.327 55.8416 721.158 58.6243C720.805 64.4299 722.745 69.596 726.57 74.2762C728.152 76.2115 729.829 78.0512 732.169 79.3302C734.284 80.4806 736.616 81.062 739.05 81.2447C740.44 81.3487 741.84 81.3562 743.241 81.3638C743.854 81.3671 744.467 81.3704 745.079 81.3817H745.423C745.148 81.7482 744.868 82.11 744.59 82.4708C744 83.2343 743.414 83.9933 742.88 84.7829C740.308 88.5827 739.281 92.7023 739.922 97.0918C740.539 101.324 742.555 105.044 745.814 108.172C749.511 111.722 754.004 114.285 759.303 115.564C766.325 117.258 772.716 115.912 778.471 112.084C782.258 109.567 785.319 106.515 787.302 102.682C787.322 102.641 787.351 102.602 787.38 102.564C787.392 102.548 787.404 102.532 787.415 102.515C787.422 102.51 787.435 102.508 787.448 102.506C787.455 102.505 787.461 102.504 787.467 102.503C787.536 102.86 787.598 103.219 787.661 103.578C787.799 104.373 787.938 105.168 788.145 105.95C788.932 108.932 789.959 111.843 791.979 114.384C795.106 118.317 799.406 120.576 804.79 121.286C809.631 121.926 814.247 121.203 818.66 119.455C823.365 117.594 826.196 114.309 827.576 109.991C828.819 106.091 828.362 102.312 826.521 98.6408C826.075 97.7522 825.604 96.8747 825.133 95.9971C824.897 95.5582 824.662 95.1193 824.43 94.6791C824.345 94.5212 824.26 94.3634 824.175 94.2015C824.538 94.1711 824.896 94.1448 825.249 94.1189C826.004 94.0636 826.739 94.0096 827.467 93.9191C829.427 93.6782 831.249 93.0719 832.978 92.233C837.815 89.8826 841.832 86.7555 844.413 82.4033C848.492 75.5387 848.2 68.7904 843.245 62.3286C839.204 57.0628 833.609 53.5578 826.808 51.5188C825.912 51.2501 825.007 51.0189 824.095 50.8251H859.352V134.932C859.261 134.934 859.171 134.937 859.08 134.94C858.945 134.944 858.809 134.949 858.673 134.949H709.693C709.467 134.949 709.241 134.941 709.015 134.932V50.8251H723.392Z"/>
<path fill="#253465" d="M707.747 54.5381C702.982 49.7115 692.759 39.6381 675.448 35.8686C670.761 34.8461 655.916 31.6139 641.432 38.2256C637.799 39.885 631.022 43.0825 626.954 50.0192C626.276 51.176 621.427 59.746 624.907 68.992C628.872 79.5334 640.103 81.4831 639.673 89.8235C639.623 90.7637 639.45 94.0998 636.667 96.0842C633.963 98.0166 630.389 97.5487 629.366 97.4187C624.531 96.7904 621.457 93.5929 620.715 92.813C619.504 91.5392 619.514 91.054 617.69 89.2083C616.108 87.6052 615.099 86.6086 613.359 85.8374C610.853 84.7283 608.525 84.8582 607.932 84.9016C607.393 84.9406 605.504 85.1182 603.488 86.184C601.896 87.0246 601.006 88.0081 599.968 89.1736C598.144 91.2273 598.005 92.1545 596.631 93.9699C596.631 93.9699 594.891 96.4092 592.069 98.2592C589.107 100.2 585.879 100.616 574.841 100.664C571.134 100.681 566.665 100.655 561.583 100.534C561.583 112.007 561.583 123.48 561.583 134.948C614.175 134.948 666.772 134.948 719.364 134.948C719.364 113.519 719.364 92.0895 719.364 70.66C717.317 66.5787 713.758 60.6256 707.747 54.5381Z"/>
<path fill="#C0B991" d="M404.735 134.949V48.196C410.037 52.7613 417.288 54.5672 424.578 56.383C430.997 57.9817 437.447 59.5881 442.626 63.0926C446.319 65.5925 449.184 68.9432 452.03 72.2725C455.797 76.6772 459.531 81.0447 465.109 83.3556C462.292 81.6831 460.834 78.6437 460.552 75.6721C460.27 72.7006 460.999 69.729 461.723 66.8107C463.071 70.4804 466.673 73.1853 470.512 75.0613C472.339 75.9539 474.248 76.705 476.157 77.4559C478.261 78.2833 480.364 79.1106 482.356 80.1271C486.775 82.3846 490.525 85.5962 493.302 89.3603C496.078 85.5961 499.828 82.3845 504.247 80.127C506.24 79.1105 508.343 78.2832 510.446 77.4558C512.355 76.7049 514.265 75.9538 516.091 75.0612C519.931 73.1852 523.533 70.4803 524.88 66.8106C525.604 69.7289 526.333 72.7005 526.052 75.672C525.77 78.6436 524.312 81.683 521.494 83.3555C527.072 81.0446 530.807 76.6772 534.573 72.2724C537.42 68.9431 540.285 65.5924 543.978 63.0925C549.156 59.588 555.606 57.9816 562.025 56.3829C569.316 54.5671 576.567 52.7612 581.869 48.1959V134.948L404.735 134.949Z"/>
<path fill="#C0B991" d="M1638.72 134.945C1638.72 121.399 1638.72 107.853 1638.72 94.3095C1640.65 93.8787 1642.57 93.4415 1644.49 93.0236C1654.6 90.828 1664.87 89.3365 1675.24 88.7128C1686.28 88.0474 1697.36 87.8095 1708.43 87.4784C1717.44 87.2084 1726.32 86.1026 1735.02 84.1642C1748.37 81.1939 1760.98 76.4652 1773.18 70.9489C1782.71 66.6381 1792.01 61.9512 1801.42 57.425C1801.68 57.2996 1801.9 57.1164 1802.14 56.9589C1802.26 57.0071 1802.45 57.0393 1802.47 57.1132C1802.52 57.2771 1802.49 57.4572 1802.49 57.634V134.949H1638.72V134.945Z"/>
<path fill="#D17A00" d="M1272 134.944H1112.22C1112.09 89.5428 1130.61 58.0501 1137.44 62.6448C1138.45 63.3235 1138.48 65.1854 1138.15 67.3778C1137.9 69.0701 1140.4 69.8604 1141.38 68.3959C1146.55 60.631 1155.66 50.8121 1168.15 49.0797C1188.51 46.2577 1179.18 73.4906 1181.91 92.0031C1184.65 110.516 1198.23 119.879 1212.76 117.825C1230.27 115.351 1255.14 92.9318 1223.5 30.7681C1222.14 28.1069 1226.07 25.8565 1228.22 28.0533C1246.38 46.5837 1272.14 83.9971 1272 134.949V134.944Z"/>
<path fill="#EFABAB" d="M1029.49 76.2373H1056.18L1081.55 109.109C1082.42 110.245 1083.88 110.925 1085.45 110.925H1096.36V87.6099H1106.81C1108.59 87.6099 1110.21 88.4881 1111.02 89.877L1121.85 108.657C1122.65 110.046 1124.28 110.925 1126.05 110.925H1136.48V76.2373H1163.24V134.949H1029.42L1029.49 76.2373Z"/>
<path fill="#D17A00" d="M2874.2 85.1743V134.949H2722.41C2722.41 107.115 2722.41 79.2683 2722.41 51.426C2722.49 51.2404 2722.61 51.0548 2722.63 50.865C2724.04 39.7407 2733.06 30.6498 2745.38 28.0005C2747.03 27.6419 2748.71 27.4394 2750.38 27.1652C2751.9 27.1652 2753.41 27.1652 2754.92 27.1652C2756.24 27.3762 2757.56 27.5576 2758.86 27.8022C2772.32 30.3165 2782.28 40.6224 2782.62 52.6874C2782.84 60.6604 2782.68 68.6419 2782.69 76.6233C2782.69 76.9861 2782.69 77.3447 2782.69 77.7075C2782.99 77.543 2783.09 77.3658 2783.16 77.1802C2785.73 70.8524 2790.14 65.7015 2796.1 61.5758C2812.98 49.8863 2838.52 49.0721 2856.31 59.6606C2864.69 64.6469 2870.65 71.2489 2873.15 80.0235C2873.63 81.7109 2873.86 83.4574 2874.2 85.1743Z"/>
<path fill="#EFABAB" d="M287.192 134.947V124.767L228.104 115.924L228.03 115.901C223.83 115.256 220.638 112.038 220.638 108.166C220.638 106.236 221.432 104.469 222.747 103.101L222.809 103.037L266.194 50.4144L266.204 50.4028C268.378 47.802 269.663 44.5916 269.663 41.1182C269.663 32.4438 261.654 25.4121 251.773 25.4121C243.618 25.4121 236.739 30.2023 234.584 36.7524L234.454 37.1735L215.578 92.0441C213.383 98.4418 206.62 103.101 198.618 103.101C193.24 103.101 188.421 100.996 185.174 97.6734L156.325 64.9637C150.444 58.2896 138.707 59.0638 134.028 66.4342L110.151 104.045H110.101V134.948L287.192 134.947Z"/>
<path fill="#681127" d="M2900.09 134.911C2900.09 123.869 2900.09 112.83 2900.09 101.788C2900.66 100.118 2900.99 98.3576 2901.83 96.8002C2905.59 89.7985 2913.37 85.7993 2923.01 90.164C2926.32 91.659 2929.11 93.7271 2931.77 95.9572C2940.55 103.283 2950.92 105.974 2962.79 103.623C2979.67 100.284 2990.73 85.5086 2987.63 70.6995C2986.6 65.7783 2984.31 61.3763 2980.65 57.5224C2979.11 55.907 2978.34 54.1046 2978.49 51.995C2978.71 49.1627 2980.26 46.8787 2982.36 44.8396C2985.66 41.6377 2989.45 38.9384 2993.71 36.7457C3002.47 32.2315 3012.15 30.4084 3022.13 29.7896C3029.47 29.337 3036.84 29.3079 3044.2 29.0836C3044.58 29.0712 3044.96 28.9757 3045.34 28.9175C3047.48 28.9217 3049.62 28.9217 3051.76 28.9217C3051.8 29.3328 3051.87 29.7398 3051.87 30.1509C3051.88 64.6861 3051.88 99.2172 3051.88 133.752V134.948H3050.2C3000.63 134.948 2951.08 134.948 2901.51 134.948C2901.04 134.948 2900.57 134.928 2900.09 134.915V134.911Z"/>
<path fill="#7F7B00" d="M4490.72 134.948C4490.72 117.985 4490.72 101.023 4490.72 84.0609C4490.73 83.8303 4490.77 83.6008 4490.77 83.3703C4490.77 77.489 4490.77 71.6078 4490.77 65.7265C4490.77 65.5481 4490.77 65.3707 4490.77 65.1071C4514.79 77.7135 4538.69 90.2578 4562.62 102.823C4562.7 102.531 4562.76 102.303 4562.82 102.078C4565.48 92.4017 4569.6 83.1608 4575.34 74.4041C4579.85 67.5195 4585.31 61.1963 4592.27 55.774C4597.1 52.0065 4602.48 48.8735 4608.55 46.5342C4613.98 44.4384 4619.68 43.0563 4625.66 42.5041C4628.27 42.2635 4630.9 42.2034 4633.52 42.0621V134.949L4490.72 134.948Z"/>
<path fill="#C0B991" d="M3376.26 129.455C3376.26 129.366 3376.26 129.277 3376.26 129.189V128.611H3376.25C3376.19 124.754 3375.31 120.846 3373.52 117.061C3370.55 110.773 3365.51 105.769 3359.36 102.393C3358.53 101.865 3357.72 101.3 3357.02 100.642C3356.53 100.173 3356.15 99.6753 3355.76 98.9411C3355.76 98.9284 3355.75 98.92 3355.75 98.9115C3355.7 98.8145 3355.65 98.7174 3355.61 98.6161C3355.51 98.3883 3355.44 98.1604 3355.37 97.9241C3355.23 97.4261 3355.19 96.9957 3355.23 96.4218C3355.32 95.063 3356.15 93.814 3357.25 92.8307C3357.37 92.7253 3357.46 92.6113 3357.51 92.4932C3365.21 85.0156 3367.79 74.1032 3363.11 64.2035C3360.26 58.1818 3354.92 53.1939 3348.21 50.2949C3344.86 48.8433 3341.2 47.9234 3337.47 47.59C3333.17 47.206 3329.5 48.1428 3325.29 48.5015C3321.67 48.8095 3318.03 47.1596 3316.05 44.5475C3313.69 41.4417 3311.13 38.7368 3307.58 36.5425C3293.56 27.9003 3274.14 30.7529 3264.18 42.9186C3257.58 50.987 3256.81 61.123 3261.12 69.5584C3261.14 69.6555 3261.17 69.7483 3261.2 69.8454C3261.7 71.5839 3262.56 73.4196 3261.73 75.1877C3260.56 77.6774 3257.68 78.6395 3254.78 78.8842C3244.03 77.9643 3233.03 81.9267 3226.33 90.1174C3222.36 94.9702 3220.5 100.561 3220.58 106.085H3220.48V134.949C3220.48 134.949 3314.92 134.949 3314.92 134.94H3376.26V129.455H3376.26ZM3355.73 98.8904C3355.7 98.8271 3355.7 98.8271 3355.73 98.8904Z"/>
<path fill="#D17A00" d="M346.086 43.8182C333.544 41.9384 320.955 41.6348 308.292 42.5881C300.837 43.1493 293.421 43.8989 286.347 46.1553C284.091 46.8742 281.866 47.9159 279.957 49.196C277.29 50.9873 277.134 53.6282 279.61 55.6001C281.723 57.2838 284.195 58.6408 286.641 59.9516C292.291 62.973 298.174 65.6677 303.668 68.8851C308.101 71.4837 311.578 74.9971 312.772 79.8483C313.53 82.9197 313.149 85.9296 312.036 88.8741C307.37 101.225 292.304 110.681 277.641 110.362C270.164 110.197 263.129 108.171 256.107 106.095C249.726 104.212 243.366 102.155 236.829 100.833C225.633 98.5687 217.235 102.786 212.944 112.246C210.749 117.082 209.875 122.163 209.503 127.33C209.321 129.867 209.208 132.408 209.061 134.949H346.87V44.0334C346.662 43.9373 346.402 43.8643 346.077 43.8182H346.086Z"/>
<path fill="#F7422C" d="M130.294 65.5521V134.948H0C0 109.741 0 84.5376 0 59.3306C0.0656064 58.9665 0.135313 58.5988 0.196819 58.2348C0.947192 53.8047 5.53144 50.128 10.62 50.0126C14.4539 49.9261 18.296 49.9333 22.1339 49.9946C26.6198 50.0667 29.9288 51.9267 32.0815 55.3655C32.9836 56.8073 33.3198 58.3862 33.3485 60.019C33.3772 61.5438 33.2788 63.083 33.4756 64.5897C34.0948 69.337 38.9743 73.0822 44.4155 73.0822C47.4498 73.0822 50.4841 73.0713 53.5184 73.0894C54.3016 73.093 55.0929 73.1434 55.8679 73.2408C60.8499 73.8752 64.897 77.7321 65.2742 82.1442C65.3726 83.2868 65.3972 84.4619 65.7212 85.5613C67.0046 89.9409 71.5027 92.9292 76.6569 92.9292C79.6584 92.9292 82.6599 92.9328 85.6614 92.9256C86.1699 92.9256 86.6783 92.8967 87.1827 92.839C92.7879 92.1794 96.958 87.9872 96.9621 83.0201C96.9621 77.4185 96.958 71.8133 96.9703 66.2118C96.9703 65.5521 97.0318 64.8889 97.1466 64.2364C97.938 59.7415 102.58 56.1369 107.758 56.054C111.547 55.9927 115.336 55.9891 119.125 56.0395C124.39 56.1116 128.765 59.2332 129.954 63.6885C130.118 64.2977 130.188 64.9285 130.302 65.5485L130.294 65.5521Z"/>
<path fill="#D17A00" d="M3684.11 64.7042V96.0325C3684.11 99.9409 3687.64 103.11 3692.01 103.11H3656.46C3652.1 103.11 3648.56 106.279 3648.56 110.187C3648.56 106.279 3645.02 103.11 3640.66 103.11C3645.02 103.11 3648.56 99.9409 3648.56 96.0325V78.3439C3648.56 74.4355 3645.02 71.2666 3640.66 71.2666H3620.91C3616.55 71.2666 3613.01 74.4355 3613.01 78.3439V46.5101C3613.01 42.6017 3609.47 39.4328 3605.11 39.4328H3585.36C3581 39.4328 3577.46 42.6017 3577.46 46.5101V78.3486C3577.46 74.4402 3573.92 71.2713 3569.56 71.2713H3541.9V134.948H3719.65V39.4328H3692.01C3687.84 39.4328 3684.43 42.3302 3684.14 45.9999L3684.11 64.7089V64.7042Z"/>
<path fill="#253465" d="M4097.92 110.147C4097.68 110.142 4097.45 110.137 4097.21 110.127C4089.9 109.858 4082.31 107.042 4078.5 101.441C4075.49 97.0232 4075.22 91.6017 4073.81 86.5896C4072.39 81.5775 4068.93 76.2659 4063.24 75.4223C4059.73 74.9031 4056.24 76.236 4053.08 77.7086C4051.77 78.3277 4050.44 78.9816 4049.09 79.5557C4046.96 75.4023 4046.11 70.5999 4045.85 65.9872C4045.64 62.3629 4045.72 58.6887 4044.75 55.1642C4042.7 47.7509 4035.73 41.6156 4027.42 39.9183C4019.11 38.226 4009.86 41.0515 4004.43 46.9372C3998.44 53.442 3997.44 62.4328 3996.68 70.8395C3989.75 68.1437 3981.51 67.2502 3974.76 70.2904C3968.02 73.3306 3963.74 81.1033 3966.91 87.2486C3968.44 90.2239 3971.56 93.0395 3970.65 96.2144C3970.33 97.3227 3969.53 98.2812 3968.61 99.0799C3962.79 104.192 3953.47 103.388 3945.32 103.148C3937.83 102.924 3930.29 103.478 3922.99 104.976C3922.05 105.165 3921.11 105.395 3920.17 105.635V134.948H4097.92V110.142V110.147Z"/>
<path fill="#C0B991" d="M4837.48 78.6472C4837.48 69.0656 4830.76 57.6393 4822.97 50.9291C4816.4 45.269 4806.91 37.0995 4790.97 36.8124C4757.57 36.2106 4769.16 69.9939 4756.04 74.0688C4746.3 77.0935 4736.5 69.1875 4725.13 65.3211C4723.08 64.6249 4720.97 64.2552 4718.87 64.1332C4705.63 63.378 4694.4 72.4207 4693.68 83.8864V134.949H4837.48V78.6432V78.6472Z"/>
<path fill="#253465" d="M4582.42 134.936C4609.7 94.6981 4635.14 87.7663 4681.03 70.6582C4690.34 67.0107 4701.05 63.0559 4707.55 55.7728C4712.31 50.4373 4711.9 43.7648 4710.14 37.5074C4709.59 36.1027 4708.98 34.9733 4708.49 34.1752C4712.43 36.402 4715.3 39.9377 4717.21 43.677C4717.71 44.6547 4719.19 47.6318 4719.65 51.1995C4720.04 54.1566 4719.8 58.0835 4717.27 63.435C4714.67 68.9222 4712.06 70.8298 4699.15 83.8754C4692.03 91.0626 4688.31 95.0453 4686.99 101.235C4686.34 104.28 4686.51 106.758 4686.62 107.824C4687.41 115.609 4692.4 120.865 4694.47 123.04C4705.02 134.138 4722.32 134.861 4725.22 134.948"/>
<path fill="#7F7B00" d="M3293.73 98.2491V134.949H3141.51V106.472C3141.51 87.8115 3148.97 69.7051 3162.73 55.5044C3162.82 55.4079 3162.92 55.3114 3163.01 55.2191C3169.45 48.6243 3176.83 42.7636 3184.97 37.7923C3185.63 37.3896 3186.41 38.1657 3185.85 38.6859C3182.33 42.0001 3179.4 45.8639 3177.23 50.122C3174.49 55.4876 3172.96 61.4909 3172.96 67.8214C3172.96 90.7188 3192.95 109.278 3217.62 109.278C3242.28 109.278 3262.27 90.7188 3262.27 67.8214C3262.27 63.1145 3261.42 58.5878 3259.86 54.3675C3259.68 53.8809 3260.24 53.4362 3260.77 53.6417C3260.9 53.6921 3261.03 53.7424 3261.16 53.7928C3281.04 61.6084 3293.73 79.0939 3293.73 98.2533V98.2491Z"/>
<path fill="#87BDF1" d="M2975.07 69.2265V134.948H2819.28C2819.28 113.436 2819.28 91.9628 2819.28 70.4892C2819.74 72.431 2820.3 74.3537 2820.65 76.3082C2824.9 100.123 2839.57 117.364 2864.36 127.974C2870.11 130.436 2876.48 131.82 2882.58 133.698C2882.77 133.374 2882.97 133.057 2883.16 132.733C2873.3 128.406 2866.93 121.622 2864.81 112.326C2862.65 102.89 2865.3 94.298 2872.85 87.1529C2885.81 74.8741 2908.6 75.0517 2921.48 87.0323C2933.16 97.9023 2935.66 121.153 2910.7 133.279C2912.56 133 2913.59 132.892 2914.59 132.683C2936.73 127.981 2953.36 116.927 2964.74 99.8378C2971.03 90.3764 2973.47 79.9125 2975.07 69.2392V69.2265Z"/>
<path fill="#87BDF1" d="M5128.75 0H4974.51V134.948H5128.75V0Z"/>
<path fill="#87BDF1" d="M4788.07 50.6137C4790.17 43.8786 4801.47 42.0478 4808.02 41.067C4823.63 38.7289 4839.87 39.2743 4855.6 40.1284C4878.84 41.3925 4916.67 56.4821 4939.71 59.3741C4983.3 64.8451 4981.54 45.0455 5005.26 50.1613C5020.11 53.3619 5028.24 71.6606 5041.8 69.9356C5051.07 68.756 5058.82 64.4434 5056.49 47.7768C5054.52 33.6342 5069.05 23.5336 5084.26 23.5336C5096.35 23.5336 5101.72 26.0703 5107.46 31.0889C5122.53 44.276 5103 65.3989 5086.49 50.952C5078.74 44.1703 5075.06 57.8013 5074.66 61.9996C5074.29 65.8852 5073.49 74.6751 5083.37 78.3365C5093.64 82.1417 5096.06 69.4832 5115.47 69.4832C5129.78 69.4832 5159.74 67.4706 5159.74 94.276C5159.74 100.516 5175.63 96.5676 5182.62 97.7852C5189.06 98.9056 5195.49 100.068 5201.91 101.273C5207.79 102.381 5213.67 103.527 5219.53 104.723C5224.89 105.818 5230.23 106.951 5235.57 108.14C5240.42 109.218 5245.26 110.342 5250.09 111.513C5254.46 112.579 5258.82 113.687 5263.16 114.849C5267.07 115.898 5270.98 116.993 5274.86 118.143C5278.34 119.179 5281.81 120.257 5285.25 121.394C5288.32 122.413 5291.38 123.479 5294.41 124.603C5297.1 125.605 5299.76 126.658 5302.4 127.77C5304.73 128.755 5307.03 129.791 5309.29 130.894C5311.29 131.867 5313.25 132.886 5315.17 133.972C5316.85 134.928 5318.49 135.934 5320.08 137.004C5321.48 137.942 5322.83 138.936 5324.12 139.989C5325.25 140.915 5326.33 141.891 5327.34 142.927C5328.23 143.845 5329.06 144.804 5329.82 145.815C5330.49 146.724 5331.1 147.671 5331.62 148.652C5332.1 149.553 5332.5 150.487 5332.82 151.438C5333.12 152.335 5333.34 153.248 5333.49 154.174C5333.63 155.062 5333.7 155.962 5333.7 156.858C5333.7 157.738 5333.64 158.617 5333.52 159.488C5333.4 160.355 5333.23 161.213 5333.02 162.067C5332.8 162.917 5332.55 163.758 5332.26 164.591C5331.98 165.42 5331.66 166.245 5331.32 167.056C5330.99 167.864 5330.64 168.667 5330.28 169.466C5329.92 170.253 5329.56 171.035 5329.19 171.817C5328.84 172.578 5328.48 173.343 5328.14 174.109C5327.81 174.848 5327.49 175.593 5327.19 176.341C5326.9 177.06 5326.64 177.783 5326.4 178.514C5326.4 178.539 5326.39 178.565 5326.38 178.59C5323.5 187.862 5298.88 191.156 5260.02 189.135C5256.14 188.932 5252.75 188.809 5251.07 189.054C5249.47 190.073 5247.53 190.864 5245.3 191.46C5243.08 192.056 5240.95 192.53 5240.18 193.198C5234.16 202.034 5201.87 196.999 5179.17 192.733C5187.41 194.314 5196.89 195.439 5205.14 197.02C5194.64 195.654 5183.56 192.644 5172.98 192.462C5170.67 193.046 5168.07 193.418 5165.21 193.6C5142.32 195.054 5103.31 184.509 5076.08 176.527C5069.98 175.077 5065.69 174.81 5061.41 174.548C5058.03 174.312 5054.5 174.007 5050.87 173.639C5010.96 169.602 4958.3 157.831 4938.06 139.181C4936.81 137.938 4936.7 136.97 4937.3 136.163C4937.89 135.355 4939.18 134.708 4940.73 134.108C4942.97 133.934 4946.24 133.956 4949.4 134.328C4907.6 124.764 4869.1 108.063 4843.67 91.0331C4841.7 90.1791 4839.77 89.325 4837.9 88.4837C4804.06 73.2672 4785.27 59.7546 4788.11 50.6053L4788.07 50.6137Z"/>
<path fill="#C0B991" d="M5297.72 134.946L5297.71 134.948H5253.15L5253.15 134.946H5192.21L5204.27 103.501L5204.28 103.482C5198.45 98.8078 5194.79 92.0857 5194.79 84.6152C5194.79 70.7085 5207.46 59.395 5223.23 59.0562C5237.55 39.8487 5266.03 30.8974 5292.83 38.7953C5324.46 48.1149 5341.79 77.3685 5331.53 104.14C5331.48 104.269 5331.43 104.398 5331.38 104.526L5330.28 107.378C5341.93 112.443 5346.45 123.585 5346.45 134.941H5333.14L5333.16 134.946L5297.72 134.946Z"/>
<path fill="#EFABAB" d="M4994.79 77.101V134.949H4843V100.495C4843.47 100.964 4843.72 101.213 4843.96 101.467C4849.19 106.827 4855.18 107.898 4861.87 104.078C4865.27 102.13 4868.43 99.6 4871.12 96.8683C4878.58 89.3013 4883.72 80.3662 4888.71 71.3623C4889.97 69.078 4891.27 66.7593 4892.92 64.703C4895.63 61.3518 4898.58 61.0076 4902.28 63.4382C4904.45 64.8578 4906.39 66.5485 4908.5 68.0455C4914.03 71.9861 4918.9 71.999 4923.47 67.2024C4927.23 63.2489 4930.3 58.7018 4933.28 54.1977C4936.47 49.3753 4938.84 44.0925 4942.24 39.4078C4944.79 35.8931 4948.05 32.628 4951.63 29.935C4956.46 26.2999 4962.15 26.2611 4967.12 29.7113C4970.44 32.0171 4973.61 34.8305 4975.86 37.9881C4979.73 43.4128 4983.32 49.0956 4986.12 55.0237C4989.5 62.1906 4991.95 69.7276 4994.79 77.101H4994.79Z"/>
<path fill="#F7422C" d="M4261.03 108.407V134.933C4260.87 134.937 4260.7 134.949 4260.54 134.949C4212.3 134.949 4164.06 134.949 4115.83 134.949C4115.63 134.949 4115.44 134.949 4115.24 134.949V108.374H4170.76V101.758H4143.6V31.5468H4232.01V101.779H4206.2V108.391C4206.51 108.391 4206.76 108.391 4207.02 108.391C4224.79 108.391 4242.55 108.391 4260.32 108.391C4260.56 108.391 4260.8 108.403 4261.04 108.407H4261.03Z"/>
<path fill="#EFABAB" d="M4237.41 134.949H4380.57V81.9724C4370.07 68.7351 4363.83 66.2807 4359.95 67.1553C4357.56 67.6951 4356.73 69.3418 4353.98 69.3222C4348.01 69.2828 4346.1 61.4941 4340.99 61.6989C4337.73 61.8289 4335.19 65.1422 4334.23 67.3366C4332.61 71.0753 4334.66 73.7503 4335.05 77.2724C4335.8 83.9579 4330.44 92.57 4321.48 96.0605C4313.16 99.2989 4303.13 97.5458 4296.8 92.2666C4291.47 87.8267 4288.91 81.0268 4289.95 75.0031C4291.72 64.7679 4302.98 62.0496 4301.73 53.7842C4301.25 50.5734 4298.93 46.9331 4296.05 46.488C4292.74 45.9758 4291.06 50.0455 4285.28 51.0737C4280.81 51.8695 4280.31 49.7067 4276.23 50.1715C4268.02 51.1052 4266.42 60.2846 4258.12 60.8046C4255.23 60.9859 4254.89 59.9143 4252.58 60.1073C4248.32 60.4619 4242.84 64.6615 4237.41 81.4247V134.949Z"/>
<path fill="#87BDF1" d="M4529.1 47.3237C4529.65 47.3237 4530.19 47.3237 4530.74 47.3237C4530.8 47.3553 4530.86 47.3989 4530.92 47.4147C4532.34 47.7669 4533.09 48.4791 4533.18 49.6663C4533.23 50.2796 4533.24 50.9048 4533.13 51.5102C4532.7 54.0111 4532.14 56.5001 4531.76 59.0049C4531.26 62.3723 4531.48 65.72 4532.45 69.0281C4533.96 74.1485 4537.1 78.5686 4541.26 82.5573C4541.48 82.763 4541.62 83.0796 4541.63 83.3487C4541.64 100.376 4541.64 117.407 4541.64 134.434C4541.64 134.604 4541.64 134.771 4541.64 134.949H4384.86C4385.26 134.778 4385.55 134.676 4385.81 134.549C4387.33 133.813 4388.91 133.148 4390.35 132.313C4393.78 130.311 4396.59 127.85 4398.37 124.684C4399.11 123.378 4399.87 122.08 4400.7 120.814C4403.81 116.089 4407.35 111.594 4411.77 107.597C4414.77 104.899 4418.21 102.635 4422.12 100.867C4422.84 100.542 4423.67 100.328 4424.48 100.202C4425.61 100.02 4426.34 100.57 4426.28 101.508C4426.25 102.022 4426.13 102.544 4425.98 103.047C4425.49 104.693 4424.99 106.331 4424.97 108.037C4424.95 110.284 4425.48 112.445 4426.77 114.435C4427.72 115.891 4428.97 116.002 4430.3 114.752C4431.15 113.956 4431.9 113.082 4432.59 112.188C4434.95 109.121 4437.2 105.991 4439.61 102.952C4443.88 97.5743 4448.91 92.6557 4453.88 87.7014C4457.65 83.9422 4462.15 80.8834 4467.43 78.6042C4468.69 78.0581 4470.07 77.702 4471.41 77.2706C4471.62 77.2034 4471.87 77.1994 4472.1 77.1796C4473.98 77.0174 4475.02 77.8602 4474.63 79.356C4474.29 80.6658 4473.81 81.9518 4473.35 83.2379C4471.52 88.3741 4472.06 93.36 4474.82 98.1916C4475.48 99.347 4476.32 100.415 4477.64 101.167C4478.83 101.852 4479.94 101.828 4481.08 101.096C4481.47 100.843 4481.87 100.57 4482.17 100.249C4483.24 99.1215 4484.34 98.0095 4485.28 96.8145C4489.87 91.0095 4493.71 84.8721 4497.46 78.6912C4500.55 73.5945 4503.74 68.5335 4507.02 63.5159C4509.16 60.2474 4511.61 57.1332 4515.02 54.5849C4517.77 52.5351 4520.63 50.6159 4523.85 49.0727C4525.5 48.2813 4527.24 47.6877 4529.1 47.3197V47.3237Z"/>
<path fill="#EFABAB" d="M3457.08 71.8557H3485.77L3513.03 107.181C3513.97 108.401 3515.53 109.132 3517.22 109.132H3528.95V84.077H3540.17C3542.08 84.077 3543.83 85.0208 3544.7 86.5134L3556.33 106.695C3557.2 108.188 3558.94 109.132 3560.85 109.132H3572.05V71.8557H3600.82V134.949H3457.01L3457.08 71.8557Z"/>
<path fill="#C0B991" d="M2372.38 134.948L2507.19 134.948V110.567L2372.38 110.567V134.948Z"/>
<path fill="#C0B991" d="M2372.34 110.574L2507.15 110.574C2507.15 97.2891 2495.12 86.5328 2480.25 86.5328L2372.34 86.5328V110.574Z"/>
<path fill="#C0B991" d="M2372.34 86.6441L2480.25 86.6441C2495.12 86.6441 2507.15 75.8877 2507.15 62.6026L2372.34 62.6026V86.6441Z"/>
<path fill="#C0B991" d="M2507.15 38.5567L2399.25 38.5567C2384.38 38.5567 2372.34 49.3131 2372.34 62.5982L2507.15 62.5982V38.5567Z"/>
<path fill="#807B00" d="M2409.78 134.945L2287.03 134.945C2287.01 134.754 2286.99 134.566 2286.99 134.375C2286.99 123.678 2287 112.98 2286.99 102.283C2286.99 99.3772 2287.18 96.4887 2287.66 93.6103C2288.24 90.1481 2289.17 86.7678 2290.5 83.4729C2294.33 73.9774 2300.63 66.0082 2309.4 59.6266C2319.52 52.2754 2331.15 48.243 2344.17 47.4474C2347.88 47.222 2351.59 47.2972 2355.29 47.6557C2358.44 47.9596 2361.54 48.4649 2364.6 49.199C2373.2 51.2613 2380.92 54.8259 2387.76 59.8861C2394.23 64.6731 2399.39 70.4025 2403.21 77.0777C2407.66 84.8694 2409.83 93.1425 2409.82 101.877C2409.81 112.711 2409.82 123.544 2409.82 134.378C2409.82 134.57 2409.79 134.757 2409.78 134.949L2409.78 134.945Z"/>
<path fill="#EFABAB" d="M2011.27 74.2366V134.949H1854.52C1854.5 134.808 1854.49 134.738 1854.49 134.668C1854.49 132.018 1854.49 129.373 1854.49 126.723C1854.49 126.583 1854.5 126.442 1854.54 126.306C1854.99 124.459 1855.35 122.591 1855.92 120.774C1859.09 110.689 1865.31 102.48 1875.08 96.5886C1878.24 94.6802 1881.65 93.0877 1884.97 91.3943C1892.76 87.4196 1900.52 83.4099 1907.92 78.8737C1911.45 76.7109 1914.91 74.4515 1917.92 71.714C1919.11 70.6392 1920.21 69.4942 1920.9 68.0903C1921.76 66.3531 1921.32 64.9755 1919.52 63.9709C1918.01 63.1242 1916.33 62.7382 1914.55 62.6636C1912.02 62.5583 1909.6 63.0496 1907.22 63.7603C1903.39 64.901 1899.82 66.5461 1896.28 68.257C1891.7 70.4813 1887.13 72.7318 1882.53 74.9297C1880.32 75.987 1877.96 76.7021 1875.45 76.9171C1872.19 77.1935 1869.08 76.7547 1866.3 75.1491C1862.21 72.7932 1860.52 69.2661 1860.39 65.0633C1860.29 61.7467 1861.14 58.5924 1862.68 55.5917C1864.9 51.2836 1868.19 47.6511 1871.88 44.2906C1877 39.6184 1882.79 35.6877 1889.1 32.371C1900.1 26.5845 1911.83 22.7503 1924.68 22.0176C1929.75 21.7281 1934.77 21.9825 1939.7 23.11C1946.51 24.6586 1952.42 27.5892 1957.17 32.2526C1961.83 36.8283 1964.6 42.22 1965.62 48.3223C1966.08 51.0906 1966.18 53.8719 1965.59 56.6402C1964.64 61.0798 1962.12 64.7474 1958.63 67.9368C1955.35 70.9331 1951.53 73.289 1947.5 75.3948C1942.01 78.2551 1936.22 80.5583 1930.44 82.8615C1925.78 84.7172 1921.08 86.4984 1916.65 88.7621C1914.35 89.9422 1912.13 91.232 1910.33 93.0219C1909.38 93.9783 1908.65 95.0443 1908.35 96.3166C1907.93 98.1942 1908.64 99.8306 1909.7 101.401C1910.35 102.375 1911.31 102.897 1912.54 103.077C1914.24 103.327 1915.9 103.068 1917.55 102.687C1921.41 101.792 1924.99 100.274 1928.46 98.5627C1937.15 94.2766 1945 88.9463 1952.31 82.98C1954.85 80.9137 1957.27 78.7289 1960.07 76.9346C1969.02 71.2183 1978.86 67.9061 1989.97 68.0114C1997.54 68.0859 2004.46 70.0294 2010.67 73.9207C2010.86 74.0392 2011.07 74.1269 2011.26 74.2278L2011.27 74.2366Z"/>
<path fill="#87BDF1" d="M2130.29 112.124C2113.74 50.8436 2053.55 52.5653 2039.51 53.8452C2038.94 53.8978 2038.84 54.6061 2039.37 54.7955C2042.86 56.0333 2045.27 58.7649 2046.88 61.4158C2048.71 64.4455 2049.71 67.8293 2049.97 71.2798C2053.01 112.524 2007.42 112.022 2007.42 112.022V134.948H2130.29"/>
<path fill="#681127" d="M2251.95 134.949C2235.2 118.957 2220.82 107.344 2210.99 99.8275C2192.23 85.4854 2176.72 75.858 2178.42 65.9071C2179.68 58.5965 2189.46 55.6206 2189.36 45.698C2189.35 44.7235 2189.21 40.49 2186.36 36.952C2181.45 30.8424 2170.65 29.5363 2164.05 34.9788C2163.3 35.5974 2158.83 39.4185 2158.63 45.3421C2158.37 53.1419 2165.81 55.661 2165.65 60.59C2165.34 70.0152 2137.81 69.9505 2122.19 85.0002C2114.35 92.5655 2106.76 106.588 2108.14 134.949H2251.95Z"/>
<path fill="#D17A00" d="M1958.38 115.538C1956.73 122.104 1948.87 128.587 1948.48 134.948H2072.71C2072.34 125.261 2059.59 120.88 2055.46 112.666C2052.9 107.956 2053.4 102.552 2053.33 97.4428C2053.57 88.6708 2049.57 81.9175 2038.64 82.8471C2034.39 83.2044 2030.32 84.4912 2026.18 85.3549C2021.49 86.3885 2016.58 86.7701 2011.81 85.9272C2003.33 84.4184 1995.45 80.0237 1986.77 78.6883C1977.08 76.8743 1965.63 78.3866 1959.2 85.6601L1959.15 85.7156C1955.1 90.3808 1954.36 96.9572 1956.12 102.66C1957.47 106.839 1959.63 111.133 1958.38 115.542V115.538Z"/>
<path fill="#C0B991" d="M2244.08 134.948C2244.04 134.948 2244.01 134.948 2243.98 134.948C2243.95 134.948 2243.91 134.948 2243.88 134.948H2199.23V96.4523C2199.23 96.4321 2199.23 96.4119 2199.23 96.3917C2199.23 75.0974 2219.26 57.835 2243.98 57.835C2252.85 57.835 2261.13 60.0621 2268.09 63.9033C2271.79 62.5375 2275.87 61.7814 2280.16 61.7814C2294.83 61.7814 2307.09 70.6363 2310.15 82.4804C2319.16 87.0968 2325.19 95.5668 2325.19 105.251C2325.19 105.443 2325.19 105.634 2325.19 105.825V134.948H2244.08Z"/>
<path fill="#F7422C" d="M1867.85 47.3374C1869.44 47.3374 1871.01 47.3374 1872.6 47.3374C1873.5 47.4787 1874.39 47.6377 1875.3 47.7966C1879.63 48.5562 1883.57 50.0929 1887.18 52.2302C1889.12 53.3783 1891.16 54.5265 1892.64 56.0455C1894.95 58.4124 1896.99 61.0266 1898.89 63.6762C1901.72 67.6505 1903.84 71.9074 1904.91 76.4999C1905.3 78.1603 1906.05 79.7677 1905.76 81.5164C1905.47 83.265 1905.24 85.0137 1904.97 86.7624C1904.38 90.6131 1902.71 94.0398 1899.74 97.0073C1898.21 98.544 1896.85 100.222 1895.53 101.9C1894.58 103.084 1894.66 103.472 1895.76 104.55C1900.87 109.513 1904.69 115.095 1906.36 121.613C1906.91 123.803 1907.94 125.923 1907.98 128.219C1907.98 129.173 1908.34 130.109 1908.52 131.063V134.949H1776.7C1776.7 134.648 1776.7 134.366 1776.7 134.065C1776.89 133.412 1777.08 132.758 1777.26 132.105C1778.31 128.431 1780.17 125.004 1782.25 121.701C1783.98 118.945 1786.25 116.437 1788.31 113.858C1789.63 112.216 1791.04 110.608 1792.36 108.966C1793.22 107.87 1793.18 107.782 1792.11 106.899C1791.32 106.245 1790.48 105.627 1789.76 104.921C1787.39 102.642 1785.01 100.363 1782.73 97.9965C1781.84 97.0779 1781.03 96.0535 1780.48 94.9583C1778.89 91.8495 1777.86 88.6171 1777.51 85.208C1777.3 83.2651 1777.1 81.3574 1777.45 79.4144C1777.96 76.4999 1779.26 73.8327 1780.68 71.1832C1783.06 66.7496 1786.09 62.74 1790.56 59.6136C1796.36 55.5509 1803.27 54.3851 1810.44 54.0849C1813.21 53.9612 1815.99 54.4381 1818.75 54.4735C1821 54.5088 1823.12 54.8267 1825.1 55.7276C1826.61 56.4165 1828.07 57.1936 1829.48 58.0415C1832.45 59.8432 1835.54 61.4506 1838.92 62.7223C1839.19 62.475 1839.44 62.2278 1839.7 62.0158C1843.02 59.172 1846.24 56.2222 1849.71 53.502C1853.25 50.7288 1857.42 48.8388 1862.22 48.1146C1864.1 47.832 1866 47.5847 1867.87 47.3197L1867.85 47.3374Z"/>
<path fill="#7F7B00" d="M1611.17 48.6438C1618.22 80.7262 1644.9 109.225 1692.22 134.949H1530.17C1577.21 109.373 1604.04 80.7486 1611.17 48.6438Z"/>
<path fill="#7F7B00" d="M1627.56 34.2316C1627.63 42.1334 1620.2 48.6629 1611.14 48.6449C1602.53 48.6315 1594.93 42.0661 1594.83 34.5455C1594.72 26.4734 1601.8 20.1905 1611.05 20.1547C1620.52 20.1188 1627.48 26.0608 1627.55 34.2316H1627.56Z"/>
<path fill="#253465" d="M1413.05 59.5873H1490.05C1537.39 59.5873 1575.83 93.3553 1575.83 134.948H1413.05V59.5873Z"/>
<path fill="#681127" d="M1445.22 37.319C1441.71 37.1613 1438.2 36.9822 1434.69 36.8713C1430.13 36.7306 1425.57 36.8201 1421.01 37.0632C1417.52 37.2508 1414.02 37.4555 1410.55 37.8009C1406.62 38.1889 1402.7 38.6623 1398.81 39.2294C1391.95 40.2315 1385.21 41.6771 1378.58 43.532C1373.98 44.8241 1369.47 46.3208 1365.06 48.0564C1362.68 48.9988 1361.16 51.0925 1361.05 53.4123C1361.04 53.5786 1361.03 53.7491 1361 53.9197C1360.63 56.538 1358.21 58.636 1355.26 58.9046C1353.94 59.024 1352.7 58.798 1351.63 58.3161C1349.24 57.2373 1346.4 57.3908 1344.25 58.8236C1343.85 59.0965 1343.44 59.3694 1343.04 59.6466C1339.76 61.9109 1336.67 64.3586 1333.78 67.0024C1327.91 72.3583 1323.01 78.341 1319.06 84.9335C1315.32 91.1764 1312.54 97.7476 1310.56 104.592C1309.37 108.702 1308.47 112.864 1307.84 117.069C1307.22 121.162 1306.83 125.273 1306.67 129.405C1306.64 130.07 1306.62 130.731 1306.59 131.397C1306.59 131.473 1306.56 131.55 1306.54 131.627V134.94L1306.55 134.949C1353.31 134.949 1400.07 134.949 1446.84 134.949H1447.34V37.5024C1446.63 37.4384 1445.92 37.3532 1445.22 37.319Z"/>
<path fill="#87BDF1" d="M1240.39 134.948C1241.58 132.57 1243.29 129.113 1245.29 124.907C1248.57 118.021 1250.23 114.513 1251.31 111.348C1252.38 108.241 1254.19 102.809 1254.45 95.7185C1254.72 88.5205 1253.34 80.9828 1252.18 74.6572C1252.05 73.9886 1251.85 72.9802 1251.83 71.5857C1251.8 69.3401 1251.81 64.1087 1256.02 59.6354C1257.21 58.3732 1260.73 54.633 1266.49 54.3469C1272.26 54.0608 1276.27 57.4221 1276.7 57.7939C1282.79 63.0539 1281.41 72.4331 1280.89 75.9517C1280.54 78.3581 1279.98 79.9529 1279.63 82.3916C1279.43 83.7397 1279.33 84.6622 1279.32 85.8351C1279.29 88.6456 1279.25 91.3561 1280.94 93.7232C1282.45 95.8365 1285.72 98.2394 1289.79 98.0141C1294.78 97.7352 1297.48 93.6052 1297.9 92.958C1297.9 92.958 1301.34 87.7088 1298.01 79.5382C1297.98 79.4631 1297.71 78.8087 1297.38 77.8969C1297.27 77.5929 1297.15 77.2604 1297.03 76.8814C1296.76 76.0625 1296.51 75.1006 1296.34 73.8813C1295.92 71.085 1295.39 67.0838 1297.85 63.2362C1298.42 62.3566 1299.88 60.1468 1302.88 58.7129C1307.42 56.5424 1312.18 57.7296 1313.35 58.0228C1321.57 60.086 1325.27 67.4342 1326.44 69.7441C1326.94 70.7453 1328.3 73.6203 1329.06 80.0853C1330.16 89.5646 1330.1 107.958 1330.89 111.802C1330.99 112.274 1331.43 114.509 1333.24 115.939C1333.63 116.24 1335.48 117.684 1337.95 117.32C1339.68 117.066 1340.74 116.032 1341.16 115.625C1342.79 114.012 1342.95 112.017 1343.07 110.072C1343.15 108.831 1343.01 107.551 1342.72 104.994C1342.5 103.152 1342.25 101.604 1342.94 99.6947C1343.07 99.3622 1343.2 98.9832 1343.48 98.5219C1343.48 98.5219 1344.83 96.1762 1347.9 95.2608C1351.15 94.2882 1354.69 95.8079 1356.01 96.4086C1365.34 100.667 1370.08 112.235 1370.21 119.894C1370.22 120.384 1370.21 121.128 1370.19 122.962C1370.19 123.495 1370.19 125.522 1370.18 127.35C1370.18 129.134 1370.09 131.776 1370.1 134.948C1355.64 134.955 1318.64 134.934 1304.19 134.948C1290.62 134.962 1253.96 134.93 1240.39 134.948Z"/>
<path fill="#87BDF1" d="M286.52 122.986C286.804 122.903 286.889 122.68 287.019 122.482C287.703 121.424 288.373 120.361 289.079 119.316C290.602 117.058 292.371 114.956 294.46 113.061C296.99 110.763 299.865 108.851 302.982 107.201C307.584 104.765 312.434 102.807 317.58 101.401C320.465 100.613 323.322 99.7542 326.074 98.6542C327.745 97.985 329.384 97.2547 331.03 96.5397C331.764 96.2219 332.427 95.8064 333.014 95.3052C334.607 93.9394 335.302 92.2649 335.211 90.3338C335.134 88.7113 334.505 87.2476 333.487 85.9001C332.922 85.1515 332.241 84.4823 331.508 83.8559C330.434 82.9393 329.272 82.1143 328.04 81.3687C326.078 80.177 324.098 79.0067 322.112 77.8456C318.967 76.0061 315.846 74.1361 312.929 72.0247C311.473 70.9705 310.069 69.8613 308.651 68.7705C307.633 67.9883 306.861 67.038 306.229 65.996C305.214 64.3185 304.593 62.5279 304.211 60.6701C303.898 59.1515 303.803 57.6237 303.898 56.0867C304 54.3817 304.376 52.7286 305.155 51.152C305.53 50.3911 306.001 49.6761 306.583 49.0222C307.622 47.858 308.931 47.0025 310.504 46.4464C314.214 45.1294 317.973 45.0744 321.775 46.0919C323.898 46.6602 325.892 47.4791 327.798 48.46C329.131 49.1475 330.437 49.8778 331.753 50.5928C332.578 51.042 333.393 51.5064 334.225 51.9464C334.74 52.2184 335.274 52.4689 335.811 52.7103C336.829 53.1748 337.917 53.4009 339.065 53.4589C340.09 53.5109 341.115 53.5537 342.14 53.4589C342.849 53.3948 343.54 53.2664 344.207 53.0464C345.73 52.5453 346.752 51.6225 347.292 50.2903C347.601 49.5264 347.72 48.735 347.756 47.9283C347.819 46.4861 347.84 45.0438 347.945 43.6047C348.226 39.7791 348.851 36.0023 350.153 32.3265C350.767 30.594 351.539 28.9195 352.55 27.3306C353.565 25.7386 354.793 24.2872 356.33 23.0436C358.321 21.4302 360.665 20.4005 363.273 19.7863C364.575 19.4808 365.899 19.2913 367.243 19.2791C370.398 19.2485 373.175 20.1377 375.576 21.9191C377.113 23.0589 378.349 24.4217 379.37 25.9311C381.108 28.4978 382.28 31.257 382.968 34.1751C383.378 35.926 383.589 37.7043 383.786 39.4827C383.993 41.3741 384.151 43.2716 384.554 45.1416C384.74 45.9972 384.979 46.8405 385.355 47.6503C385.632 48.2461 385.983 48.8083 386.46 49.3064C387.176 50.0489 388.075 50.5378 389.159 50.767C389.974 50.9381 390.725 50.8189 391.427 50.4339C391.901 50.1742 392.311 49.8472 392.627 49.45C393.119 48.8297 393.617 48.2064 394.031 47.5464C394.698 46.483 395.312 45.3922 395.93 44.3044C397.225 42.0249 398.591 39.7791 400.223 37.6646C401.518 35.9871 402.975 34.4287 404.544 32.9406C406.506 31.0798 408.9 29.8545 411.676 29.2037C416.569 28.0609 421.339 28.3695 425.863 30.3862C430.609 32.5006 433.463 35.9321 434.593 40.4421C435.263 43.1127 435 45.7711 434.196 48.3958C433.543 50.5317 432.55 52.5453 431.357 54.4917C429.791 57.0431 427.913 59.4204 425.863 61.6937C423.427 64.3979 421.065 67.148 418.886 70.0141C417.145 72.3089 415.509 74.6556 414.147 77.1428C413.399 78.5087 412.757 79.9081 412.283 81.3687C411.504 83.7857 411.757 86.1262 412.894 88.4118C413.94 90.5141 415.555 92.2405 417.538 93.7194C420.086 95.6169 423.02 96.8422 426.253 97.5633C429.387 98.263 432.571 98.5258 435.797 98.3669C438.408 98.2386 440.953 97.8139 443.382 96.9125C445.509 96.1211 447.748 95.733 450.072 95.7972C452.645 95.8675 455.06 96.445 457.225 97.6825C460.311 99.4425 461.883 101.96 462.069 105.147C462.188 107.195 461.686 109.153 460.876 111.06C460.619 111.659 460.346 112.258 460.023 112.832C459.215 114.265 459.068 115.772 459.293 117.321C459.545 119.087 460.209 120.749 461.03 122.369C461.722 123.731 462.529 125.042 463.41 126.319C463.691 126.726 463.985 127.126 464.273 127.526V134.948H286.52V122.986Z"/>
<path fill="#F7422C" d="M1031.44 111.874L1057.36 134.948H928.535L954.447 111.874L928.535 44.6905H1057.36L1031.44 111.874Z"/>
<path fill="#F7422C" d="M2620.51 112.209C2610.54 110.066 2599.44 111.208 2593.45 111.822C2587.75 112.408 2583.44 113.22 2578.07 111.438C2575.32 110.527 2573.23 109.247 2571.77 108.175C2571.35 107.848 2570.06 106.85 2569.36 105.664C2568.28 103.853 2568.77 101.921 2568.96 101.141C2569.48 99.1229 2570.76 97.6342 2572.02 96.5053C2575.59 93.3158 2579.82 92.268 2590.13 89.3755C2595.65 87.826 2598.39 86.9737 2599.19 86.7339C2604.95 84.9925 2610.31 81.6168 2612.89 76.9773C2614.89 73.3913 2615.28 69.4067 2616.16 65.5255C2617.04 60.8492 2618.96 56.147 2618.42 51.3914C2617.28 41.8377 2607.39 34.8961 2597.21 31.572C2588.75 28.6961 2579.54 27.9472 2570.48 28.2552C2568.59 28.2848 2566.7 28.3014 2564.81 28.2608C2559.68 28.1981 2554.6 27.5118 2549.48 27.2407C2539.29 26.6356 2528.12 29.6572 2522.15 36.8257C2520.68 38.5265 2519.44 40.3546 2518.17 42.1679C2516.75 44.2063 2515.27 46.2244 2513.66 48.1706C2511.48 50.838 2509.04 53.3966 2507.4 56.2688C2501.56 66.3279 2506.83 77.3573 2517.39 83.5537C2523.59 87.422 2531.26 88.8756 2538.24 91.5006C2548.81 95.4815 2551.91 98.647 2553.35 102.253C2553.67 103.045 2555.4 107.673 2552.8 111.209C2552.47 111.652 2551.35 113.111 2549.27 113.943C2544.87 115.703 2540.94 112.737 2535.08 111.744C2527.87 110.519 2527.75 113.711 2518.71 113.973C2509.98 114.225 2500.98 110.835 2494.34 110.588C2492.62 110.525 2489.99 110.623 2488.03 112.11C2487.86 112.239 2487.7 112.375 2487.54 112.517V134.949H2488.54C2494.71 135.076 2503.81 134.897 2517.8 134.936C2552.57 134.912 2600.61 134.984 2633.34 134.91V117.09C2630.44 115.456 2626.12 113.416 2620.52 112.211L2620.51 112.209Z"/>
<path fill="#EFABAB" d="M2745.44 134.949L2678.28 56.0769H2701.52C2701.52 40.5936 2687.24 28.0414 2669.64 28.0414C2652.04 28.0414 2637.77 40.5936 2637.77 56.0769L2661.01 56.0769L2593.84 134.949L2745.44 134.949Z"/>
<path fill="#681127" d="M3947.43 102.005C3913.51 102.005 3886.02 77.5219 3886.02 47.3197V134.949H4008.85V47.3197C4008.85 77.5219 3981.35 102.005 3947.43 102.005Z"/>
<path fill="#7F7B00" d="M3757.23 132.601C3757.66 131.315 3758.7 130.58 3760.14 130.179C3760.62 130.043 3761.09 129.868 3761.54 129.657C3762.09 129.398 3762.19 129.039 3761.85 128.585C3761.62 128.274 3761.3 128.009 3761.02 127.721C3760.59 127.277 3760.09 126.866 3759.73 126.377C3758.79 125.091 3759.45 123.414 3761.11 122.886C3761.72 122.692 3762.39 122.62 3763.03 122.497C3763.47 122.413 3763.93 122.358 3764.18 121.969C3764.49 121.487 3764.3 120.936 3763.76 120.561C3763.02 120.039 3762.28 119.508 3761.57 118.958C3760.91 118.443 3760.87 117.786 3761.11 117.099C3761.34 116.442 3761.86 116.06 3762.65 115.959C3763.51 115.849 3764.36 115.852 3765.18 116.111C3765.65 116.257 3766.1 116.247 3766.5 115.956C3766.95 115.619 3766.97 115.321 3766.51 114.988C3765.89 114.525 3765.24 114.091 3764.6 113.634C3764.06 113.242 3763.65 112.776 3763.6 112.131C3763.52 111.024 3764.41 110.127 3765.7 110.072C3766.48 110.036 3767.26 110.065 3768.04 110.001C3768.76 109.939 3768.96 109.57 3768.55 109.065C3768.3 108.77 3767.93 108.547 3767.59 108.32C3767.31 108.129 3766.97 108.003 3766.69 107.812C3765.28 106.834 3765.6 105.027 3767.3 104.502C3768.13 104.246 3769.01 104.104 3769.88 103.952C3770.83 103.78 3771.17 103.087 3770.53 102.446C3770.23 102.148 3769.81 101.941 3769.45 101.691C3768.92 101.316 3768.35 100.972 3767.87 100.551C3767.21 99.9814 3766.93 99.2851 3767.3 98.4918C3767.66 97.7146 3768.42 97.4069 3769.32 97.3357C3770.1 97.2741 3770.88 97.2839 3771.66 97.2288C3772.03 97.2029 3772.41 97.1478 3772.74 97.0118C3773.3 96.7787 3773.36 96.335 3772.98 95.9173C3772.4 95.2988 3771.7 94.8325 3770.82 94.5734C3770.18 94.3856 3769.62 94.0941 3769.2 93.6278C3768.7 93.0708 3768.54 92.4717 3768.87 91.8111C3769.2 91.1602 3769.81 90.8526 3770.6 90.8008C3771.15 90.7652 3771.71 90.7684 3772.27 90.7652C3773.33 90.7652 3774.26 90.2503 3774.61 89.4569C3774.84 88.9452 3774.78 88.4692 3774.27 88.1195C3773.72 87.7406 3773.14 87.3973 3772.55 87.067C3771.88 86.6946 3771.4 86.2024 3771.17 85.5418C3770.89 84.7192 3771.26 84.0521 3772.17 83.7057C3772.94 83.411 3773.76 83.4725 3774.57 83.4854C3775.14 83.4952 3775.74 83.5405 3775.96 82.9641C3776.2 82.3682 3775.59 82.1318 3775.19 81.8242C3774.97 81.6623 3774.73 81.5295 3774.52 81.3611C3773.51 80.5062 3773.56 79.2433 3774.64 78.4305C3775.44 77.8249 3776.4 77.6468 3777.43 77.5917C3777.88 77.5658 3778.33 77.5334 3778.76 77.4266C3779.57 77.2258 3779.8 76.5522 3779.2 76.0406C3778.73 75.6325 3778.17 75.299 3777.62 74.9557C3776.9 74.4927 3776.43 73.9001 3776.34 73.1196C3776.18 71.6106 3777.35 70.4675 3779.13 70.3703C3779.84 70.3314 3780.55 70.3509 3781.25 70.2861C3782.3 70.1922 3782.8 69.3664 3782.3 68.5536C3782.14 68.2881 3781.87 68.0581 3781.62 67.8379C3781.1 67.3781 3780.51 66.9636 3780.01 66.4811C3779.41 65.8982 3779.11 65.1923 3779.25 64.4021C3779.45 63.2234 3780.68 62.498 3782.14 62.6923C3782.58 62.7506 3783 62.8931 3783.44 62.9902C3783.78 63.0679 3784.13 63.1618 3784.48 63.2104C3784.85 63.259 3785.17 63.1521 3785.36 62.8574C3785.56 62.5692 3785.37 62.3361 3785.19 62.1094C3784.88 61.7143 3784.53 61.3387 3784.24 60.9306C3783.64 60.0693 3783.38 59.1755 3784.16 58.2882C3784.95 57.3815 3786.05 57.2811 3787.24 57.5078C3787.66 57.5887 3788.06 57.7571 3788.48 57.8543C3788.76 57.919 3789.08 57.9967 3789.35 57.9482C3790.17 57.8057 3790.47 57.158 3790.01 56.5104C3789.42 55.6781 3789.15 54.7779 3789.14 53.8161C3789.14 52.511 3790.34 51.6561 3791.84 51.8861C3792.55 51.9962 3793.18 52.2649 3793.71 52.6859C3794.14 53.0259 3794.56 53.3854 3795.01 53.706C3795.89 54.3342 3796.86 54.1043 3797.19 53.1619C3797.42 52.5078 3797.54 51.8245 3797.71 51.1574C3797.78 50.8789 3797.84 50.5972 3797.96 50.3349C3798.5 49.1141 3800.11 48.638 3801.36 49.3893C3801.9 49.7164 3802.35 50.1762 3802.75 50.6393C3803.21 51.1769 3803.58 51.7727 3803.96 52.3621C3804.46 53.1425 3805.26 53.2429 3805.93 52.5467C3806.17 52.307 3806.32 51.9962 3806.45 51.6982C3806.71 51.0668 3806.92 50.4159 3807.17 49.7812C3807.27 49.5253 3807.41 49.2792 3807.55 49.0363C3808.52 47.3524 3810.73 47.537 3811.85 48.6607C3812.55 49.3667 3812.74 50.2248 3812.92 51.0927C3812.95 51.2319 3812.98 51.3712 3813.02 51.5104C3813.11 51.8537 3813.2 52.2131 3813.7 52.2844C3814.24 52.3621 3814.78 52.1386 3815.02 51.7112C3815.15 51.4813 3815.22 51.2254 3815.3 50.9761C3815.56 50.1633 3815.84 49.3569 3816.5 48.6996C3817.5 47.7086 3819 47.7119 3819.96 48.7352C3820.22 49.0137 3820.44 49.3343 3820.6 49.6646C3820.84 50.1762 3821.03 50.7105 3821.24 51.2352C3821.33 51.4813 3821.4 51.7339 3821.49 51.9767C3821.73 52.5758 3821.98 52.7539 3822.52 52.7248C3823.14 52.6892 3823.59 52.3588 3823.68 51.8116C3823.79 51.1736 3823.81 50.5195 3823.95 49.888C3824.07 49.3602 3824.26 48.8356 3824.49 48.3336C3824.78 47.6924 3825.34 47.3071 3826.18 47.32C3827.06 47.333 3827.82 47.5888 3828.15 48.3207C3828.41 48.8906 3828.5 49.5188 3828.61 50.1277C3828.7 50.5745 3828.69 51.0311 3828.73 51.4813C3828.77 51.9703 3828.92 52.4268 3829.35 52.7798C3829.8 53.1555 3830.28 53.0454 3830.49 52.537C3830.8 51.8083 3831.06 51.0603 3831.44 50.364C3831.86 49.6128 3832.48 48.9845 3833.47 48.7579C3835.06 48.3952 3836.57 49.2889 3836.85 50.7105C3836.92 51.0927 3837.04 51.4683 3837.17 51.8375C3837.3 52.2358 3837.6 52.5078 3838.11 52.5693C3838.63 52.6341 3838.97 52.4009 3839.23 52.0544C3839.67 51.4683 3840.07 50.853 3840.55 50.2993C3840.93 49.8718 3841.37 49.4606 3841.86 49.1432C3842.75 48.5765 3843.81 48.6704 3844.54 49.3796C3844.95 49.7779 3845.24 50.2734 3845.55 50.7429C3845.83 51.1574 3846.01 51.614 3846.31 52.0188C3846.81 52.7183 3847.31 52.6827 3847.73 51.9508C3848.06 51.3841 3848.35 50.798 3848.73 50.2572C3849.23 49.5415 3849.97 49.0979 3850.99 49.1335C3851.91 49.1659 3852.58 49.6063 3853.04 50.2475C3853.38 50.7267 3853.62 51.2675 3853.94 51.7662C3854.08 51.9962 3854.28 52.2293 3854.52 52.3783C3855 52.6697 3855.48 52.5402 3855.77 52.103C3856.03 51.7112 3856.26 51.2967 3856.57 50.934C3857.73 49.5836 3859.62 49.5253 3860.92 50.7915C3861.2 51.0732 3861.43 51.3971 3861.69 51.6982C3861.87 51.9055 3862.04 52.1257 3862.25 52.3038C3862.77 52.7539 3863.39 52.7993 3863.93 52.3718C3864.36 52.035 3864.7 51.6173 3865.08 51.2287C3865.17 51.1283 3865.23 51.0085 3865.32 50.9016C3866.39 49.5739 3868.25 49.5383 3869.39 50.8368C3869.81 51.3226 3870.04 51.8731 3870.1 52.4851C3870.13 52.8284 3870.23 53.1781 3870.37 53.502C3870.66 54.182 3871.49 54.3472 3872.11 53.8582C3872.31 53.693 3872.48 53.4858 3872.65 53.2947C3872.84 53.0939 3873 52.8737 3873.21 52.6827C3873.98 51.9346 3875.04 51.6853 3876.01 52.0059C3876.93 52.3103 3877.46 53.0454 3877.48 54.0492C3877.49 54.4767 3877.47 54.9042 3877.5 55.3316C3877.57 56.3193 3878.18 56.669 3879.26 56.3225C3879.91 56.1153 3880.52 55.8303 3881.17 55.6328C3882.31 55.2895 3883.2 55.5453 3883.82 56.329C3884.26 56.8828 3884.3 57.4592 3883.98 58.0615C3883.7 58.6153 3883.39 59.1658 3883.11 59.7195C3883.02 59.8847 3882.94 60.0563 3882.91 60.2312C3882.77 60.9986 3883.49 61.5071 3884.33 61.248C3885.08 61.0181 3885.82 60.7558 3886.57 60.5485C3887.12 60.3996 3887.67 60.4384 3888.19 60.6845C3889.11 61.1282 3889.45 61.9248 3889.07 62.8121C3888.72 63.6379 3888.15 64.3179 3887.3 64.8134C3887.16 64.8943 3887.02 64.972 3886.9 65.0627C3886.63 65.2473 3886.48 65.4805 3886.63 65.7751C3886.79 66.0763 3887.08 66.2479 3887.47 66.1832C3887.73 66.1411 3887.99 66.0504 3888.21 65.9241C3888.77 65.597 3889.28 65.2117 3889.85 64.9008C3890.29 64.6612 3890.76 64.4215 3891.26 64.3244C3893.22 63.939 3894.75 65.4837 3894.12 67.1676C3893.92 67.6987 3893.56 68.1359 3893.06 68.4888C3892.33 69.0037 3891.59 69.5154 3890.87 70.0432C3890.6 70.2375 3890.44 70.4901 3890.65 70.801C3890.84 71.0957 3891.13 71.2155 3891.52 71.1475C3891.71 71.1151 3891.89 71.0503 3892.08 71.005C3892.67 70.8561 3893.25 70.6682 3893.85 70.5743C3894.64 70.448 3895.41 70.5937 3896.12 70.8981C3897.22 71.3742 3897.6 72.8865 3896.84 73.9033C3896.59 74.2466 3896.23 74.5412 3895.87 74.8133C3895.28 75.2699 3894.64 75.6876 3894.03 76.1248C3893.72 76.3515 3893.46 76.6105 3893.66 76.9959C3893.82 77.3068 3894.2 77.3974 3894.76 77.2938C3895.72 77.1092 3896.69 76.9182 3897.66 76.7595C3898.43 76.6332 3899.19 76.6785 3899.91 76.9635C3901.05 77.4136 3901.54 78.2653 3901.26 79.3177C3901.09 79.9557 3900.75 80.5192 3900.16 80.9272C3899.65 81.2802 3899.07 81.5619 3898.53 81.8857C3898.19 82.0897 3897.8 82.2711 3897.54 82.5399C3897.04 83.0645 3897.44 83.8514 3898.23 83.887C3898.64 83.9064 3899.07 83.8255 3899.46 83.7154C3900.3 83.479 3901.14 83.3818 3902.03 83.4822C3903.7 83.67 3904.53 84.6869 3904.15 86.1052C3903.89 87.0476 3903.22 87.6952 3902.24 88.1551C3901.54 88.4789 3900.88 88.8578 3900.23 89.2367C3899.95 89.3986 3899.62 89.5994 3899.81 89.9653C3900.02 90.3701 3900.32 90.7522 3900.9 90.7166C3901.7 90.668 3902.5 90.5288 3903.3 90.4543C3903.94 90.3927 3904.6 90.2697 3905.21 90.3506C3906.74 90.5482 3907.58 92.1932 3906.72 93.3105C3906.37 93.7573 3905.83 94.1038 3905.33 94.4471C3904.95 94.7094 3904.48 94.8778 3904.07 95.1174C3903.59 95.3992 3903.46 95.7813 3903.66 96.1569C3903.83 96.4872 3904.2 96.6135 3904.78 96.5034C3905.84 96.2994 3906.84 96.4613 3907.79 96.8694C3909.44 97.5753 3909.77 99.1653 3908.46 100.283C3907.94 100.72 3907.29 101.04 3906.67 101.38C3906.26 101.61 3905.8 101.775 3905.36 101.976C3905.03 102.132 3904.82 102.358 3904.93 102.705C3905.03 103.055 3905.36 103.093 3905.71 103.097C3906.77 103.106 3907.85 103.058 3908.9 103.152C3910.53 103.297 3911.25 104.638 3910.41 105.856C3909.98 106.481 3909.34 106.889 3908.59 107.196C3907.98 107.446 3907.38 107.711 3906.78 107.977C3906.66 108.029 3906.51 108.09 3906.46 108.181C3906.37 108.343 3906.26 108.553 3906.31 108.702C3906.35 108.815 3906.62 108.929 3906.8 108.939C3907.44 108.977 3908.09 108.961 3908.74 108.99C3909.97 109.049 3911.01 109.415 3911.7 110.357C3912.7 111.714 3912.11 113.242 3910.38 113.812C3910.07 113.913 3909.74 113.984 3909.46 114.126C3909.09 114.324 3908.71 114.544 3908.39 114.813C3907.99 115.166 3907.93 115.574 3908.17 115.911C3908.45 116.306 3908.87 116.458 3909.4 116.403C3910.56 116.28 3911.71 116.309 3912.82 116.668C3913.69 116.95 3914.35 117.413 3914.42 118.278C3914.47 118.948 3914.11 119.505 3913.53 119.903C3912.95 120.302 3912.29 120.616 3911.66 120.959C3911.49 121.047 3911.3 121.102 3911.13 121.183C3910.6 121.448 3910.19 121.801 3910.2 122.374C3910.2 122.973 3910.54 123.433 3911.16 123.676C3911.78 123.925 3912.45 124.091 3913.09 124.298C3913.63 124.469 3914.18 124.605 3914.68 124.832C3915.99 125.422 3916.19 126.843 3915.04 127.64C3914.39 128.096 3913.59 128.407 3912.86 128.783C3912.73 128.848 3912.55 128.87 3912.46 128.961C3912.32 129.11 3912.14 129.311 3912.16 129.469C3912.18 129.647 3912.38 129.89 3912.56 129.958C3912.89 130.072 3913.26 130.094 3913.62 130.104C3915.41 130.153 3916.52 130.92 3916.93 132.426C3916.95 132.487 3916.98 132.546 3917 132.607V134.939C3916.79 134.942 3916.58 134.949 3916.37 134.949C3863.5 134.949 3810.63 134.949 3757.76 134.949C3757.58 134.949 3757.4 134.942 3757.22 134.939C3757.22 134.162 3757.22 133.385 3757.22 132.607L3757.23 132.601Z"/>
<path fill="#C0B991" d="M4049.16 134.949L4057.64 103.484C4059.8 95.4628 4068.9 90.3747 4078.21 91.9811L4094.97 94.8748C4099.57 95.6708 4104.35 94.8353 4108.24 92.5548L4125.65 82.357C4134.21 77.3406 4145.89 79.7824 4150.89 87.6352L4180.98 134.942"/>
<path fill="#D17A00" d="M4447.35 134.949V118.431C4443.4 118.091 4439.43 117.947 4435.47 117.906C4433.26 117.877 4430.73 117.825 4428.67 117.314C4424.45 116.298 4424.61 114.271 4427.94 112.564C4430.98 110.937 4434.72 110.319 4437.92 108.623C4442.03 106.61 4444.66 102.462 4440.97 98.9557C4438.38 96.0796 4431.31 94.9058 4430.16 91.4286C4429.62 87.1875 4439.97 85.7602 4441.84 82.4494C4444.12 78.9926 4439.13 75.7916 4439.18 72.3677C4439.12 69.8968 4441.06 67.4881 4440.87 64.964C4440.61 61.7981 4438.06 59.6385 4434.57 58.2293C4429 56.2043 4422.04 56.6084 4416.98 59.3827C4413.7 61.1156 4411.19 63.8944 4409.02 66.6505C4403.55 73.7984 4397.73 73.9297 4388.48 73.7961C4381.5 73.9931 4360.98 72.6767 4359.33 80.3611C4359.16 82.7833 4361.9 84.4732 4364.29 85.3414C4372.36 88.093 4381.3 87.0256 4389.75 87.604C4392.42 87.8847 4395.97 88.926 4393.93 90.6567C4391.5 92.3194 4387.05 92.4847 4383.86 92.4949C4374.89 92.5243 4365.92 92.4326 4356.99 92.5594C4348.97 92.7824 4340.52 93.2102 4333.22 96.3818C4328.49 98.4169 4325.22 102.853 4329.52 106.708C4338.53 114.074 4359.07 112.752 4370.9 112.948C4375.4 113.026 4380.04 112.747 4384.48 113.163C4386.95 113.35 4391.99 114.969 4387.98 116.756C4385.56 117.761 4382.28 117.871 4379.52 117.868C4368.6 117.871 4357.68 117.868 4346.76 117.868C4337.41 117.839 4327.95 117.759 4318.71 118.983V134.949H4447.35Z"/>
<path fill="#F7422C" d="M4890.82 114.088C4875.25 58.0789 4818.63 59.6525 4805.42 60.8223C4804.89 60.8703 4804.79 61.5177 4805.29 61.6908C4808.57 62.8221 4810.84 65.3188 4812.35 67.7417C4814.08 70.5107 4815.02 73.6035 4815.26 76.7571C4818.12 114.453 4775.23 113.995 4775.23 113.995V134.949H4890.83"/>
<path fill="#D17A00" d="M4957.73 134.948C4957.73 134.948 4995.16 120.185 4992.18 93.452C4987.98 55.6736 5108.34 134.948 5108.34 134.948H4957.73Z"/>
<path fill="#C0B991" d="M5462.86 81.1536H5308.63V134.949H5462.86V81.1536Z"/>
<path fill="#C0B991" d="M5308.63 81.1492C5308.37 78.7647 5316.18 74.8172 5318.4 73.7032C5320 72.8985 5325.29 70.3699 5333.25 69.4677C5339.22 68.7943 5344.45 69.5821 5354.65 71.1916C5360.68 72.1403 5361.32 72.4665 5373.01 74.6435C5383.56 76.6045 5388.84 77.5872 5391.5 77.782C5395.69 78.087 5405.23 78.7477 5416.1 75.9015C5421.24 74.5588 5426.82 72.386 5436.37 71.5389C5438.06 71.3906 5438.9 71.3144 5439.91 71.3017C5450.87 71.1916 5463.19 77.9557 5462.85 81.1535C5461.7 92.0599 5309.77 91.3822 5308.63 81.1492Z"/>
</svg>