<svg width="82" height="40" viewBox="0 0 82 40" fill="none" xmlns="http://www.w3.org/2000/svg">
<path d="M82 0V40H0C0 26.9074 0 13.838 0 0.768562C0.241424 1.95037 0.536499 3.12059 0.720441 4.31013C2.95458 18.8047 10.6802 29.2981 23.7247 35.7555C26.756 37.254 30.1091 38.096 33.3166 39.2392C33.42 39.0422 33.5235 38.8491 33.6231 38.6521C28.4344 36.0182 25.0813 31.8895 23.9623 26.2315C22.828 20.4886 24.2229 15.2592 28.1968 10.9105C35.018 3.43729 47.0126 3.54543 53.7917 10.8371C59.9422 17.4529 61.2567 31.6037 48.1201 38.9843C49.0973 38.8143 49.6415 38.7487 50.1665 38.6212C61.82 35.7594 70.5764 29.0316 76.5622 18.6309C79.877 12.8725 81.1569 6.50381 82 0.00772424V0Z" fill="#FC4C1C"/>
</svg>
