<svg width="42" height="41" viewBox="0 0 42 41" fill="none" xmlns="http://www.w3.org/2000/svg">
<path d="M42 40.9987V25.1381C42 16.6394 37.5585 12.685 31.6365 12.685C26.8577 12.685 24.7157 15.37 23.5226 17.2547V13.3351H14.5189C14.6383 15.9316 14.5189 40.9987 14.5189 40.9987H23.5226V25.5496C23.5226 24.7252 23.5804 23.8981 23.8193 23.3083C24.4689 21.6555 25.9508 19.945 28.4366 19.945C31.6956 19.945 32.9976 22.4812 32.9976 26.1997V41L42 40.9987ZM5.03344 9.55898C8.17163 9.55898 10.1286 7.43298 10.1286 4.77748C10.0708 2.06434 8.17294 0 5.09381 0C2.01469 0 0 2.063 0 4.77748C0 7.43298 1.95431 9.55898 4.977 9.55898H5.03344ZM9.53531 40.9987V13.3351H0.532875V40.9987H9.53531Z" fill="#222222"/>
</svg>
