<svg width="55" height="53" viewBox="0 0 55 53" fill="none" xmlns="http://www.w3.org/2000/svg">
<path d="M27.5 23.8498C28.39 23.8498 29.26 23.5908 30.0001 23.1054C30.7401 22.6201 31.3169 21.9303 31.6575 21.1233C31.9981 20.3163 32.0872 19.4282 31.9135 18.5715C31.7399 17.7147 31.3113 16.9277 30.682 16.3101C30.0526 15.6924 29.2508 15.2717 28.3779 15.1013C27.505 14.9309 26.6002 15.0184 25.7779 15.3527C24.9557 15.6869 24.2529 16.253 23.7584 16.9794C23.2639 17.7057 23 18.5596 23 19.4331C23 20.6045 23.4741 21.7279 24.318 22.5562C25.1619 23.3845 26.3065 23.8498 27.5 23.8498ZM25.9025 39.1094C26.1117 39.3163 26.3605 39.4806 26.6347 39.5928C26.9089 39.7049 27.203 39.7626 27.5 39.7626C27.797 39.7626 28.0911 39.7049 28.3653 39.5928C28.6395 39.4806 28.8883 39.3163 29.0975 39.1094L38.3 30.0552C40.4374 27.9585 41.8932 25.2867 42.4834 22.3778C43.0735 19.469 42.7714 16.4537 41.6153 13.7133C40.4592 10.9729 38.5011 8.63064 35.9886 6.98267C33.476 5.33469 30.5219 4.45508 27.5 4.45508C24.4781 4.45508 21.524 5.33469 19.0114 6.98267C16.4989 8.63064 14.5408 10.9729 13.3847 13.7133C12.2286 16.4537 11.9265 19.469 12.5166 22.3778C13.1068 25.2867 14.5626 27.9585 16.7 30.0552L25.9025 39.1094ZM16.7675 18.4173C16.9212 16.8428 17.4313 15.3219 18.2604 13.9655C19.0896 12.6092 20.2169 11.4518 21.56 10.5777C23.3245 9.44063 25.3892 8.8348 27.5 8.8348C29.6108 8.8348 31.6755 9.44063 33.44 10.5777C34.7742 11.4488 35.8951 12.5992 36.7221 13.9463C37.5492 15.2933 38.0618 16.8035 38.2232 18.3682C38.3846 19.933 38.1906 21.5133 37.6554 22.9957C37.1201 24.4781 36.2568 25.8257 35.1275 26.9415L27.5 34.4277L19.8725 26.9415C18.7419 25.8365 17.8766 24.498 17.3395 23.0234C16.8023 21.5489 16.6069 19.9753 16.7675 18.4173ZM43.25 44.1665H11.75C11.1533 44.1665 10.581 44.3991 10.159 44.8133C9.73705 45.2274 9.5 45.7891 9.5 46.3748C9.5 46.9605 9.73705 47.5222 10.159 47.9363C10.581 48.3505 11.1533 48.5831 11.75 48.5831H43.25C43.8467 48.5831 44.419 48.3505 44.841 47.9363C45.2629 47.5222 45.5 46.9605 45.5 46.3748C45.5 45.7891 45.2629 45.2274 44.841 44.8133C44.419 44.3991 43.8467 44.1665 43.25 44.1665Z" fill="black"/>
</svg>
