<svg width="390" height="548" viewBox="0 0 390 548" fill="none" xmlns="http://www.w3.org/2000/svg">
<mask id="mask0_691_4225" style="mask-type:alpha" maskUnits="userSpaceOnUse" x="-1" y="0" width="393" height="548">
<rect width="393" height="548" transform="translate(-1)" fill="white"/>
</mask>
<g mask="url(#mask0_691_4225)">
<path d="M372.577 93.6177V84.9168L328.675 77.3594L328.62 77.3397C325.5 76.7879 323.128 74.038 323.128 70.7286C323.128 69.0789 323.718 67.5687 324.695 66.3999L324.741 66.3449L356.976 21.3691L356.983 21.3592C358.598 19.1363 359.553 16.3924 359.553 13.4237C359.553 6.00982 353.602 0 346.261 0C340.202 0 335.091 4.09411 333.49 9.69232L333.393 10.0523L319.375 56.9257L319.368 56.9493C317.737 62.4173 312.713 66.3999 306.768 66.3999C302.772 66.3999 299.191 64.6007 296.778 61.7606L275.344 33.8042C270.974 28.0999 262.254 28.7615 258.777 35.061L241.037 67.2066H241V93.6188L372.577 93.6177Z" fill="#D17A00"/>
<path d="M238.665 79.8582C238.486 79.8541 238.311 79.8499 238.137 79.8416C232.679 79.6173 227.01 77.2738 224.167 72.6117C221.927 68.9345 221.723 64.422 220.667 60.2503C219.612 56.0785 217.03 51.6575 212.783 50.9553C210.164 50.5231 207.554 51.6326 205.201 52.8583C204.216 53.3735 203.227 53.9179 202.221 54.3957C200.633 50.9386 199.997 46.9414 199.802 43.1021C199.648 40.0855 199.706 37.0273 198.979 34.0938C197.45 27.9235 192.246 22.8168 186.044 21.4041C179.843 19.9955 172.939 22.3473 168.891 27.2462C164.418 32.6603 163.67 40.1437 163.105 47.1409C157.934 44.8971 151.779 44.1533 146.745 46.6838C141.712 49.2143 138.52 55.6838 140.885 60.7987C142.028 63.2752 144.355 65.6187 143.674 68.2613C143.437 69.1838 142.838 69.9815 142.157 70.6464C137.809 74.9012 130.855 74.2322 124.775 74.0328C119.18 73.8458 113.556 74.307 108.103 75.5535C107.405 75.7114 106.702 75.9026 106 76.102V100.501H238.665V79.8541V79.8582Z" fill="#F7422C"/>
<path d="M421.868 143.717C421.868 143.629 421.868 143.542 421.868 143.454V142.883H421.864C421.809 139.073 421.052 135.213 419.503 131.474C416.928 125.263 412.561 120.319 407.243 116.984C406.519 116.463 405.825 115.905 405.219 115.254C404.79 114.792 404.461 114.3 404.125 113.574C404.121 113.562 404.116 113.553 404.112 113.545C404.07 113.449 404.032 113.353 403.994 113.253C403.91 113.028 403.843 112.803 403.784 112.57C403.666 112.078 403.628 111.653 403.662 111.086C403.742 109.743 404.466 108.51 405.417 107.538C405.518 107.434 405.593 107.322 405.64 107.205C412.304 99.8183 414.543 89.0386 410.487 79.2594C408.021 73.3109 403.397 68.3838 397.586 65.52C394.683 64.0861 391.519 63.1773 388.292 62.848C384.568 62.4687 381.387 63.3941 377.748 63.7484C374.613 64.0527 371.462 62.4228 369.745 59.8426C367.7 56.7745 365.483 54.1025 362.407 51.9349C350.277 43.3979 333.459 46.2158 324.838 58.2335C319.12 66.2037 318.455 76.2164 322.188 84.5492C322.209 84.645 322.23 84.7367 322.255 84.8326C322.688 86.55 323.437 88.3633 322.718 90.1099C321.704 92.5693 319.209 93.5197 316.697 93.7615C307.394 92.8528 297.868 96.767 292.066 104.858C288.628 109.652 287.017 115.175 287.088 120.632H287V149.144C287 149.144 368.765 149.144 368.765 149.136H421.321C421.321 149.132 421.321 149.132 421.321 149.127H421.872V143.717H421.868ZM404.1 113.524C404.074 113.462 404.074 113.462 404.1 113.524V113.524Z" fill="#87BDF1"/>
<path d="M95.0657 58H121.204L146.041 95.855C146.899 97.1626 148.328 97.9454 149.859 97.9454H160.55V71.0965H170.78C172.521 71.0965 174.114 72.1078 174.902 73.7073L185.506 95.3346C186.29 96.9341 187.883 97.9454 189.619 97.9454H199.829V58H226.038V125.611H95L95.0657 58Z" fill="#EEAAAA"/>
<path d="M257 94H321.043C360.417 94 392.383 125.928 392.383 165.255H257V94Z" fill="#F7422C"/>
<path d="M218.856 130.931C232.995 130.931 244.458 119.69 244.458 105.822C244.458 91.9547 232.995 80.7129 218.856 80.7129C204.716 80.7129 193.254 91.9547 193.254 105.822C193.254 119.69 204.716 130.931 218.856 130.931Z" fill="#C0B991"/>
<path d="M326.384 155.245H275.598C274.822 151.176 275.065 146.86 276.505 142.656C281.014 129.51 295.528 122.435 308.93 126.852C310.021 127.21 311.076 127.639 312.084 128.124C312.12 128.14 312.153 128.156 312.189 128.175C322.412 133.15 326.386 144.092 326.386 155.245H326.384Z" fill="#C0B991"/>
<path d="M313.28 124.992C312.917 126.057 312.516 127.104 312.084 128.128C308.492 136.641 302.644 143.698 295.415 148.89C291.788 151.497 287.817 153.633 283.602 155.249H244.489C231.839 150.494 221.996 141.597 216.148 130.8C209.808 119.097 208.162 105.159 212.723 91.8489C214.099 87.837 215.959 84.1131 218.223 80.7171C230.789 61.8518 255.786 53.0596 279.315 60.8166C307.081 69.9694 322.287 98.6995 313.28 124.992Z" fill="#C0B991"/>
<path d="M313.28 124.993L312.186 128.179L304.11 151.756L302.911 155.248H191L201.581 124.366L212.726 91.8485L244.2 102.222L313.28 124.993Z" fill="#C0B991"/>
<path d="M314.705 155.244H272.191L276.507 142.653V142.651L295.417 148.885L304.112 151.752L314.705 155.244Z" fill="#C0B991"/>
<path d="M105.341 148.158H-29.9577C-29.9704 147.92 -29.9958 147.686 -29.9958 147.448C-30 134.122 -29.9915 120.796 -30 107.47C-30 103.85 -29.7925 100.252 -29.259 96.6659C-28.6197 92.3529 -27.5908 88.142 -26.1257 84.0374C-21.9043 72.2085 -14.9645 62.2809 -5.29366 54.3312C5.8549 45.1735 18.6717 40.1501 33.0298 39.159C37.1115 38.8783 41.2017 38.9719 45.2792 39.4185C48.7554 39.7971 52.1766 40.4266 55.547 41.3411C65.0189 43.9102 73.5295 48.3508 81.0706 54.6544C88.2051 60.6178 93.8916 67.7551 98.0961 76.0706C103.004 85.7771 105.392 96.0832 105.383 106.964C105.375 120.46 105.383 133.956 105.383 147.452C105.383 147.691 105.358 147.924 105.345 148.163L105.341 148.158Z" fill="#D17A00"/>
<path d="M153.918 146.269C135.611 72.8741 69.0313 74.9362 53.5041 76.4691C52.8721 76.5321 52.7568 77.3804 53.3461 77.6072C57.2066 79.0897 59.8756 82.3613 61.652 85.5364C63.6805 89.1649 64.7908 93.2177 65.0726 97.3502C68.4334 146.748 18 146.147 18 146.147V173.605H153.927" fill="#C0B991"/>
<path d="M231.006 115.249V141.592C231.006 144.878 233.668 147.542 236.952 147.542H210.206C206.923 147.542 204.261 150.207 204.261 153.493C204.261 150.207 201.599 147.542 198.315 147.542C201.599 147.542 204.261 144.878 204.261 141.592V126.718C204.261 123.432 201.599 120.767 198.315 120.767H183.456C180.173 120.767 177.511 123.432 177.511 126.718V99.9509C177.511 96.6645 174.849 94 171.566 94H156.707C153.423 94 150.761 96.6645 150.761 99.9509V126.722C150.761 123.436 148.099 120.771 144.812 120.771H124V174.314H257.752V94H236.952C233.814 94 231.25 96.4363 231.03 99.5219L231.006 115.253V115.249Z" fill="#681127"/>
<path d="M373.577 152.068C373.577 141.977 367.424 129.943 360.3 122.876C354.29 116.915 345.601 108.311 331.017 108.008C300.46 107.375 311.062 142.955 299.063 147.246C290.148 150.432 281.177 142.106 270.779 138.033C268.903 137.3 266.973 136.911 265.048 136.782C252.93 135.987 242.66 145.511 242 157.586V211.364H373.577V167.694V152.064V152.068Z" fill="#87BDF1"/>
<path d="M187.692 169.063C150.306 169.063 120 138.591 120 101V210.066H255.383V101C255.383 138.591 225.077 169.063 187.692 169.063Z" fill="#D17A00"/>
<path d="M132.383 181.093V230.939H-3C-3 203.065 -3 175.178 -3 147.296C-2.93178 147.11 -2.82944 146.924 -2.80812 146.734C-1.55023 135.594 6.49601 126.49 17.4802 123.836C18.9513 123.477 20.4565 123.275 21.9446 123C23.2963 123 24.6437 123 25.9954 123C27.1681 123.211 28.3449 123.393 29.509 123.638C41.5123 126.156 50.3985 136.477 50.697 148.559C50.8932 156.543 50.7524 164.536 50.7652 172.529C50.7652 172.893 50.7652 173.252 50.7652 173.615C51.0253 173.45 51.1191 173.273 51.1831 173.087C53.4729 166.75 57.4086 161.592 62.7216 157.46C77.7779 145.754 100.556 144.938 116.427 155.542C123.902 160.536 129.211 167.147 131.445 175.935C131.876 177.624 132.076 179.373 132.383 181.093Z" fill="#87BDF1"/>
<path d="M171.29 173C180.867 173 189.793 175.74 197.301 180.466C201.299 178.786 205.7 177.856 210.323 177.856C226.153 177.856 239.39 188.758 242.69 203.34C252.412 209.022 258.928 219.447 258.928 231.37C258.928 231.395 258.927 231.421 258.927 231.446V267.919H171.758C171.602 267.92 171.446 267.922 171.29 267.922C171.134 267.922 170.978 267.92 170.822 267.919H123L146.975 261.472C132.636 253.242 123 237.958 123 220.461C123 194.249 144.62 173 171.29 173Z" fill="#EEAAAA"/>
<path d="M263.927 253.549V291.448H128V262.04C128 242.77 134.656 224.072 146.947 209.407C147.028 209.307 147.113 209.207 147.198 209.112C152.947 202.302 159.539 196.249 166.809 191.115C167.401 190.7 168.091 191.501 167.597 192.038C164.45 195.461 161.831 199.451 159.893 203.848C157.453 209.389 156.086 215.589 156.086 222.126C156.086 245.772 173.938 264.939 195.963 264.939C217.989 264.939 235.837 245.772 235.837 222.126C235.837 217.266 235.079 212.591 233.686 208.233C233.525 207.73 234.027 207.271 234.5 207.483C234.615 207.535 234.725 207.587 234.84 207.639C252.599 215.71 263.927 233.767 263.927 253.553V253.549Z" fill="#D17A00"/>
<path d="M390.156 230.647H255V155C262.608 162.486 275.473 161.464 283.912 167.99C290.458 173.054 293.594 182.121 301.067 185.659C298.918 184.201 297.805 181.55 297.59 178.959C297.375 176.368 297.931 173.777 298.483 171.232C299.512 174.432 302.261 176.791 305.19 178.427C308.12 180.063 311.328 181.153 314.228 182.844C317.6 184.813 320.46 187.615 322.578 190.897C324.697 187.615 327.557 184.812 330.929 182.844C333.829 181.153 337.036 180.063 339.966 178.427C342.895 176.791 345.643 174.432 346.672 171.232C347.224 173.777 347.78 176.368 347.565 178.959C347.35 181.55 346.238 184.201 344.088 185.659C351.561 182.121 354.698 173.054 361.244 167.99C369.683 161.464 382.548 162.486 390.156 155V230.647Z" fill="#C0B991"/>
<path d="M-12 240.916L-3.29201 204.487C-1.07366 195.2 8.27057 189.31 17.8311 191.169L35.0435 194.52C39.7729 195.441 44.6804 194.474 48.676 191.834L66.5543 180.027C75.3514 174.219 87.3466 177.046 92.4789 186.138L123.387 240.908" fill="#253465"/>
<path d="M-2 275.35C-2 245.294 -2 215.241 -2 185.184C-1.88811 185.069 -1.75965 184.966 -1.66434 184.838C-0.180827 182.832 1.47259 181.002 3.49481 179.563C6.92182 177.118 10.6182 176.273 14.6378 177.737C17.5095 178.783 19.7721 180.729 21.757 183.05C24.6329 186.413 26.6924 190.288 28.3997 194.376C30.6125 199.685 32.1167 205.22 33.2024 210.879C34.284 216.525 34.918 222.223 35.1791 227.967C35.2288 229.047 35.2661 230.131 35.3075 231.236C54.2618 226.196 73.1662 226.221 92.0666 231.33C92.079 231.219 92.0873 231.151 92.0914 231.082C92.3235 227.429 92.4727 223.763 92.8125 220.119C93.3512 214.306 94.4327 208.592 96.0116 202.98C97.5572 197.479 99.5546 192.17 102.538 187.305C104.391 184.283 106.545 181.527 109.446 179.491C113.793 176.44 118.289 176.132 122.881 178.898C125.5 180.477 127.526 182.713 129.291 185.218C129.461 185.457 129.569 185.803 129.569 186.097C129.581 215.655 129.581 245.217 129.581 274.774V275.346H-2V275.35Z" fill="#F7422C"/>
<path d="M82 296.593C82 296.593 114.587 281.861 111.995 255.183C108.334 217.484 213.132 296.593 213.132 296.593H82Z" fill="#681127" stroke="#681127" stroke-width="1.31789" stroke-miterlimit="10"/>
<path d="M388.387 187.547C385.013 187.38 381.639 187.189 378.264 187.071C373.878 186.921 369.487 187.017 365.105 187.275C361.745 187.475 358.38 187.693 355.038 188.06C351.266 188.473 347.494 188.976 343.751 189.58C337.155 190.646 330.67 192.183 324.296 194.157C319.868 195.531 315.527 197.123 311.294 198.97C308.996 199.972 307.536 202.199 307.434 204.667C307.425 204.844 307.411 205.025 307.388 205.207C307.027 207.992 304.702 210.224 301.86 210.51C300.598 210.637 299.405 210.396 298.375 209.884C296.073 208.736 293.336 208.899 291.275 210.423C290.887 210.714 290.498 211.004 290.11 211.299C286.958 213.708 283.981 216.311 281.199 219.124C275.555 224.821 270.84 231.185 267.041 238.198C263.445 244.839 260.778 251.83 258.869 259.11C257.722 263.483 256.863 267.91 256.253 272.383C255.656 276.738 255.277 281.111 255.125 285.506C255.102 286.214 255.083 286.917 255.055 287.624C255.055 287.706 255.018 287.788 255 287.869V291.394L255.009 291.403C299.988 291.403 344.966 291.403 389.945 291.403H390.43V187.742C389.746 187.674 389.066 187.584 388.387 187.547Z" fill="#F7422C"/>
<path d="M275.01 325.862C275.374 324.612 276.249 323.898 277.46 323.508C277.866 323.376 278.269 323.206 278.643 323.001C279.106 322.75 279.198 322.4 278.909 321.96C278.713 321.658 278.446 321.4 278.209 321.12C277.844 320.689 277.426 320.289 277.121 319.814C276.322 318.565 276.88 316.935 278.282 316.422C278.798 316.233 279.363 316.164 279.905 316.045C280.276 315.963 280.663 315.909 280.872 315.532C281.132 315.063 280.977 314.528 280.52 314.163C279.892 313.657 279.271 313.141 278.672 312.606C278.114 312.105 278.079 311.467 278.282 310.8C278.478 310.161 278.916 309.79 279.585 309.692C280.308 309.585 281.024 309.588 281.722 309.84C282.118 309.982 282.495 309.972 282.828 309.689C283.212 309.362 283.228 309.072 282.844 308.748C282.315 308.298 281.766 307.877 281.23 307.433C280.771 307.052 280.428 306.599 280.387 305.973C280.314 304.897 281.072 304.025 282.156 303.972C282.812 303.937 283.475 303.966 284.128 303.903C284.74 303.843 284.911 303.484 284.559 302.993C284.353 302.707 284.043 302.49 283.754 302.27C283.516 302.084 283.228 301.961 282.993 301.776C281.804 300.825 282.074 299.07 283.51 298.56C284.211 298.311 284.949 298.173 285.682 298.025C286.49 297.858 286.776 297.185 286.233 296.562C285.983 296.273 285.628 296.071 285.323 295.829C284.873 295.464 284.391 295.13 283.985 294.721C283.434 294.168 283.193 293.491 283.504 292.72C283.808 291.965 284.452 291.666 285.213 291.597C285.869 291.537 286.528 291.547 287.185 291.493C287.495 291.468 287.822 291.414 288.098 291.282C288.567 291.056 288.624 290.625 288.298 290.219C287.809 289.618 287.216 289.165 286.474 288.913C285.939 288.731 285.466 288.447 285.114 287.994C284.693 287.453 284.556 286.871 284.835 286.229C285.108 285.597 285.628 285.298 286.294 285.247C286.76 285.213 287.229 285.216 287.698 285.213C288.592 285.213 289.379 284.713 289.68 283.942C289.873 283.445 289.823 282.982 289.391 282.642C288.928 282.274 288.437 281.941 287.936 281.62C287.369 281.258 286.966 280.779 286.772 280.138C286.535 279.338 286.845 278.69 287.616 278.354C288.269 278.067 288.957 278.127 289.639 278.14C290.121 278.149 290.628 278.193 290.818 277.633C291.018 277.054 290.501 276.824 290.162 276.526C289.981 276.368 289.775 276.239 289.604 276.076C288.745 275.245 288.792 274.018 289.699 273.228C290.374 272.64 291.189 272.467 292.055 272.413C292.432 272.388 292.819 272.356 293.177 272.253C293.859 272.058 294.052 271.403 293.551 270.906C293.152 270.51 292.676 270.185 292.216 269.852C291.604 269.402 291.208 268.826 291.138 268.068C291.005 266.602 291.988 265.491 293.494 265.397C294.087 265.359 294.686 265.378 295.276 265.315C296.167 265.224 296.589 264.421 296.167 263.631C296.027 263.373 295.806 263.15 295.593 262.936C295.149 262.489 294.655 262.087 294.236 261.618C293.729 261.051 293.475 260.365 293.589 259.598C293.764 258.452 294.797 257.748 296.027 257.936C296.398 257.993 296.76 258.131 297.124 258.226C297.416 258.301 297.708 258.393 298.006 258.44C298.317 258.487 298.586 258.383 298.751 258.097C298.913 257.817 298.761 257.59 298.608 257.37C298.342 256.986 298.047 256.621 297.806 256.225C297.296 255.388 297.074 254.519 297.733 253.657C298.402 252.776 299.334 252.679 300.336 252.899C300.691 252.978 301.027 253.141 301.379 253.236C301.617 253.299 301.884 253.374 302.115 253.327C302.806 253.188 303.06 252.559 302.67 251.93C302.172 251.121 301.944 250.247 301.941 249.312C301.934 248.044 302.949 247.213 304.217 247.437C304.82 247.544 305.346 247.805 305.796 248.214C306.161 248.544 306.509 248.894 306.89 249.205C307.632 249.815 308.453 249.592 308.735 248.676C308.929 248.041 309.024 247.377 309.17 246.729C309.23 246.458 309.284 246.184 309.382 245.93C309.835 244.743 311.199 244.281 312.248 245.011C312.705 245.329 313.088 245.775 313.421 246.225C313.811 246.748 314.128 247.327 314.445 247.899C314.867 248.658 315.539 248.755 316.11 248.079C316.307 247.846 316.44 247.544 316.544 247.254C316.766 246.641 316.944 246.008 317.153 245.392C317.239 245.143 317.356 244.904 317.473 244.668C318.295 243.032 320.162 243.211 321.101 244.303C321.69 244.989 321.852 245.823 322.011 246.666C322.036 246.801 322.061 246.936 322.093 247.072C322.169 247.405 322.239 247.755 322.667 247.824C323.123 247.899 323.58 247.682 323.777 247.267C323.884 247.043 323.945 246.795 324.011 246.553C324.233 245.763 324.468 244.979 325.026 244.341C325.869 243.378 327.141 243.381 327.946 244.375C328.165 244.646 328.349 244.957 328.485 245.278C328.694 245.775 328.853 246.295 329.024 246.804C329.103 247.043 329.16 247.289 329.243 247.525C329.439 248.107 329.649 248.28 330.105 248.252C330.628 248.217 331.009 247.896 331.088 247.364C331.18 246.745 331.199 246.109 331.316 245.495C331.415 244.983 331.576 244.473 331.77 243.985C332.017 243.362 332.486 242.988 333.2 243C333.938 243.013 334.585 243.261 334.861 243.973C335.077 244.526 335.156 245.137 335.251 245.728C335.321 246.162 335.318 246.606 335.349 247.043C335.384 247.519 335.511 247.962 335.869 248.305C336.25 248.67 336.656 248.563 336.836 248.069C337.093 247.361 337.315 246.634 337.638 245.958C337.987 245.228 338.514 244.618 339.347 244.397C340.689 244.045 341.963 244.913 342.198 246.295C342.261 246.666 342.359 247.031 342.467 247.39C342.585 247.777 342.838 248.041 343.266 248.101C343.707 248.164 343.989 247.937 344.208 247.6C344.579 247.031 344.915 246.433 345.327 245.895C345.644 245.48 346.015 245.08 346.434 244.772C347.182 244.221 348.076 244.312 348.694 245.001C349.04 245.388 349.284 245.87 349.544 246.326C349.776 246.729 349.934 247.172 350.181 247.566C350.606 248.245 351.031 248.211 351.386 247.5C351.662 246.949 351.906 246.38 352.226 245.854C352.651 245.159 353.273 244.728 354.135 244.762C354.915 244.794 355.473 245.222 355.863 245.845C356.155 246.31 356.351 246.836 356.621 247.32C356.745 247.544 356.909 247.77 357.115 247.915C357.518 248.198 357.921 248.072 358.168 247.648C358.39 247.267 358.58 246.864 358.84 246.512C359.82 245.2 361.421 245.143 362.512 246.373C362.753 246.647 362.946 246.962 363.165 247.254C363.317 247.456 363.457 247.67 363.634 247.843C364.078 248.28 364.598 248.324 365.058 247.909C365.419 247.582 365.708 247.176 366.022 246.798C366.101 246.701 366.155 246.584 366.228 246.48C367.128 245.19 368.698 245.156 369.658 246.417C370.017 246.889 370.207 247.424 370.261 248.019C370.289 248.352 370.369 248.692 370.486 249.007C370.73 249.668 371.434 249.828 371.954 249.353C372.128 249.192 372.268 248.991 372.417 248.805C372.575 248.61 372.712 248.396 372.883 248.211C373.539 247.484 374.433 247.242 375.251 247.553C376.025 247.849 376.472 248.563 376.491 249.539C376.497 249.954 376.482 250.369 376.507 250.785C376.567 251.744 377.084 252.084 377.994 251.747C378.539 251.546 379.056 251.269 379.605 251.077C380.565 250.744 381.32 250.992 381.843 251.754C382.211 252.292 382.243 252.852 381.979 253.437C381.735 253.975 381.478 254.51 381.237 255.048C381.165 255.208 381.095 255.375 381.069 255.545C380.955 256.291 381.561 256.785 382.274 256.533C382.905 256.31 383.527 256.055 384.164 255.853C384.624 255.709 385.093 255.746 385.527 255.986C386.304 256.417 386.589 257.191 386.272 258.053C385.977 258.855 385.492 259.516 384.776 259.997C384.662 260.076 384.544 260.151 384.437 260.24C384.208 260.419 384.081 260.645 384.215 260.932C384.348 261.224 384.592 261.391 384.919 261.328C385.137 261.287 385.359 261.199 385.543 261.077C386.016 260.759 386.45 260.384 386.929 260.082C387.3 259.849 387.699 259.617 388.118 259.522C389.773 259.148 391.066 260.649 390.53 262.285C390.362 262.801 390.058 263.226 389.636 263.569C389.018 264.069 388.393 264.566 387.788 265.079C387.566 265.268 387.43 265.513 387.601 265.815C387.763 266.101 388.013 266.218 388.336 266.152C388.495 266.12 388.65 266.057 388.809 266.013C389.307 265.869 389.795 265.686 390.302 265.595C390.968 265.472 391.621 265.614 392.22 265.909C393.153 266.372 393.466 267.841 392.829 268.829C392.617 269.163 392.312 269.449 392.011 269.713C391.51 270.157 390.974 270.563 390.458 270.988C390.191 271.208 389.979 271.46 390.144 271.834C390.277 272.136 390.6 272.224 391.069 272.124C391.884 271.944 392.702 271.759 393.52 271.605C394.167 271.482 394.808 271.526 395.42 271.803C396.38 272.24 396.796 273.068 396.561 274.09C396.418 274.71 396.127 275.258 395.629 275.654C395.198 275.997 394.709 276.271 394.253 276.585C393.964 276.784 393.638 276.96 393.419 277.221C392.994 277.731 393.333 278.495 394.002 278.53C394.345 278.549 394.709 278.47 395.039 278.363C395.749 278.133 396.46 278.039 397.208 278.136C398.616 278.319 399.319 279.307 398.993 280.685C398.774 281.601 398.21 282.23 397.382 282.677C396.796 282.991 396.238 283.36 395.686 283.728C395.451 283.885 395.175 284.08 395.337 284.436C395.515 284.829 395.765 285.2 396.253 285.166C396.932 285.118 397.604 284.983 398.283 284.911C398.818 284.851 399.373 284.731 399.893 284.81C401.184 285.002 401.894 286.6 401.165 287.686C400.873 288.12 400.416 288.457 399.995 288.79C399.671 289.045 399.272 289.209 398.929 289.442C398.527 289.715 398.416 290.087 398.581 290.452C398.726 290.773 399.04 290.895 399.525 290.788C400.42 290.59 401.266 290.747 402.071 291.144C403.46 291.83 403.739 293.375 402.633 294.46C402.198 294.885 401.647 295.196 401.127 295.527C400.775 295.75 400.388 295.911 400.02 296.106C399.738 296.257 399.567 296.477 399.652 296.814C399.741 297.154 400.017 297.191 400.312 297.194C401.212 297.204 402.116 297.157 403.007 297.248C404.38 297.389 404.985 298.692 404.278 299.875C403.917 300.482 403.375 300.879 402.74 301.178C402.227 301.42 401.72 301.678 401.215 301.936C401.117 301.986 400.99 302.046 400.946 302.134C400.867 302.292 400.775 302.496 400.819 302.641C400.851 302.751 401.082 302.861 401.234 302.871C401.777 302.908 402.325 302.893 402.867 302.921C403.907 302.978 404.789 303.333 405.372 304.249C406.209 305.567 405.718 307.052 404.256 307.606C403.996 307.703 403.717 307.773 403.482 307.911C403.162 308.103 402.842 308.317 402.579 308.578C402.236 308.921 402.189 309.318 402.392 309.645C402.626 310.029 402.985 310.177 403.428 310.123C404.408 310.004 405.378 310.032 406.314 310.381C407.046 310.655 407.604 311.105 407.661 311.945C407.706 312.596 407.404 313.137 406.913 313.524C406.422 313.911 405.864 314.217 405.331 314.55C405.191 314.635 405.033 314.689 404.89 314.767C404.437 315.025 404.097 315.368 404.101 315.925C404.101 316.507 404.392 316.954 404.912 317.19C405.439 317.432 406 317.593 406.545 317.794C406.995 317.961 407.465 318.093 407.886 318.313C408.987 318.886 409.161 320.267 408.191 321.041C407.636 321.485 406.967 321.787 406.345 322.152C406.238 322.215 406.085 322.237 406.013 322.325C405.895 322.47 405.737 322.665 405.756 322.819C405.775 322.992 405.94 323.228 406.098 323.294C406.371 323.404 406.688 323.426 406.989 323.436C408.501 323.483 409.434 324.229 409.786 325.692C409.798 325.751 409.824 325.808 409.839 325.868V328.133C409.662 328.136 409.484 328.143 409.307 328.143C364.69 328.143 320.073 328.143 275.457 328.143C275.304 328.143 275.152 328.136 275 328.133C275 327.378 275 326.623 275 325.868L275.01 325.862Z" fill="#EEAAAA"/>
<rect x="308" y="279" width="108.198" height="127.076" fill="#681127"/>
<path d="M274.989 286.924C265.918 284.683 255.818 285.877 250.367 286.519C245.174 287.132 241.257 287.981 236.368 286.118C233.869 285.165 231.965 283.826 230.638 282.706C230.254 282.364 229.079 281.321 228.44 280.08C227.463 278.186 227.905 276.167 228.085 275.351C228.55 273.241 229.719 271.684 230.866 270.504C234.114 267.169 237.965 266.073 247.34 263.049C252.365 261.428 254.862 260.537 255.583 260.286C260.83 258.466 265.708 254.936 268.054 250.085C269.875 246.335 270.229 242.169 271.032 238.11C271.833 233.221 273.575 228.304 273.087 223.331C272.048 213.342 263.048 206.084 253.781 202.608C246.089 199.601 237.708 198.818 229.468 199.14C227.743 199.171 226.024 199.188 224.308 199.146C219.638 199.08 215.013 198.362 210.359 198.079C201.082 197.446 190.918 200.606 185.484 208.101C184.147 209.88 183.018 211.791 181.863 213.687C180.575 215.819 179.227 217.929 177.761 219.964C175.78 222.753 173.557 225.428 172.068 228.431C166.749 238.949 171.545 250.482 181.158 256.961C186.795 261.006 193.778 262.526 200.124 265.271C209.743 269.433 212.57 272.743 213.877 276.514C214.165 277.341 215.741 282.181 213.373 285.878C213.076 286.341 212.054 287.867 210.162 288.737C206.157 290.577 202.58 287.476 197.256 286.438C190.694 285.157 190.586 288.494 182.357 288.768C174.414 289.032 166.228 285.487 160.18 285.228C158.619 285.163 156.221 285.265 154.442 286.82C154.29 286.955 154.143 287.098 154 287.246V310.55C154.182 310.589 154.375 310.616 154.579 310.637C160.191 310.77 168.8 310.647 181.527 310.687C213.163 310.662 256.878 310.738 286.663 310.66V292.028C284.025 290.319 280.087 288.185 274.995 286.926L274.989 286.924Z" fill="#807B00"/>
<path d="M248.765 290.021C250.364 290.021 251.941 290.021 253.54 290.021C254.453 290.186 255.346 290.372 256.26 290.559C260.62 291.449 264.585 293.249 268.218 295.753C270.17 297.098 272.225 298.443 273.72 300.222C276.045 302.995 278.101 306.058 280.011 309.162C282.855 313.818 284.993 318.805 286.073 324.185C286.467 326.13 287.215 328.013 286.924 330.062C286.633 332.111 286.405 334.159 286.135 336.208C285.533 340.719 283.851 344.734 280.862 348.21C279.326 350.01 277.955 351.976 276.627 353.942C275.672 355.328 275.755 355.784 276.855 357.046C282.004 362.861 285.845 369.4 287.526 377.036C288.087 379.602 289.125 382.085 289.166 384.775C289.166 385.892 289.519 386.989 289.706 388.107V392.659H157C157 392.307 157 391.976 157 391.624C157.187 390.859 157.374 390.093 157.561 389.327C158.619 385.023 160.488 381.009 162.585 377.139C164.329 373.911 166.612 370.973 168.689 367.951C170.017 366.027 171.429 364.144 172.758 362.219C173.63 360.936 173.588 360.833 172.509 359.798C171.72 359.033 170.869 358.308 170.142 357.481C167.754 354.811 165.367 352.142 163.062 349.369C162.17 348.293 161.36 347.093 160.799 345.81C159.201 342.168 158.163 338.381 157.81 334.387C157.602 332.111 157.394 329.876 157.747 327.6C158.266 324.185 159.574 321.061 161.007 317.957C163.394 312.763 166.446 308.065 170.952 304.402C176.786 299.643 183.741 298.277 190.965 297.926C193.747 297.781 196.55 298.339 199.332 298.381C201.595 298.422 203.734 298.795 205.727 299.85C207.242 300.657 208.716 301.568 210.128 302.561C213.118 304.671 216.232 306.555 219.637 308.044C219.907 307.755 220.156 307.465 220.426 307.217C223.768 303.885 227.007 300.429 230.495 297.243C234.066 293.994 238.26 291.78 243.097 290.931C244.986 290.6 246.896 290.31 248.786 290L248.765 290.021Z" fill="#F7422C"/>
<path d="M131.752 301.668C116.192 284.862 102.829 272.658 93.6945 264.758C76.267 249.686 61.8578 239.568 63.4444 229.11C64.6082 221.427 73.6924 218.3 73.6003 207.872C73.592 206.848 73.4622 202.399 70.8206 198.681C66.2576 192.26 56.223 190.887 50.0943 196.607C49.3952 197.257 45.2466 201.273 45.0582 207.498C44.8154 215.695 51.727 218.342 51.5762 223.522C51.2874 233.428 25.7175 233.36 11.2036 249.176C3.9195 257.126 -3.12603 271.863 -1.84921 301.668H131.752Z" fill="#EEAAAA"/>
<path d="M171.569 265.505V347.801H40C40 317.908 40 288.02 40 258.127C40.0662 257.695 40.1366 257.259 40.1987 256.827C40.9565 251.573 45.5856 247.213 50.7239 247.076C54.5953 246.974 58.475 246.982 62.3505 247.055C66.8802 247.141 70.2216 249.346 72.3954 253.424C73.3063 255.134 73.6458 257.007 73.6748 258.943C73.7038 260.751 73.6044 262.577 73.8031 264.363C74.4284 269.993 79.3556 274.435 84.85 274.435C87.914 274.435 90.978 274.422 94.042 274.443C94.8328 274.447 95.6319 274.507 96.4145 274.623C101.445 275.375 105.532 279.949 105.913 285.181C106.012 286.536 106.037 287.93 106.364 289.234C107.66 294.427 112.202 297.971 117.407 297.971C120.438 297.971 123.469 297.975 126.499 297.967C127.013 297.967 127.526 297.933 128.036 297.864C133.696 297.082 137.907 292.111 137.911 286.22C137.911 279.577 137.907 272.93 137.919 266.287C137.919 265.505 137.981 264.718 138.097 263.944C138.896 258.614 143.583 254.339 148.813 254.241C152.639 254.168 156.464 254.164 160.29 254.224C165.607 254.309 170.025 258.011 171.225 263.295C171.391 264.017 171.461 264.765 171.577 265.5L171.569 265.505Z" fill="#87BDF1"/>
<g opacity="0.4">
<path d="M64.6641 380.721C28.5205 381.135 -13.9966 381.094 -50.1814 380.887L-66.5879 380.721C-66.6701 380.638 64.7463 380.638 64.6641 380.721Z" fill="#681127"/>
</g>
<path d="M-66.9707 380.717L64.2812 380.717L64.2813 353.976L-66.9707 353.976L-66.9707 380.717Z" fill="#681127"/>
<path d="M-67 353.98H64.2519C64.2519 339.41 52.533 327.612 38.0591 327.612H-67V353.98Z" fill="#681127"/>
<path d="M-67 327.735H38.0591C52.533 327.735 64.2519 315.938 64.2519 301.367H-67V327.735Z" fill="#681127"/>
<path d="M64.2519 275H-40.8072C-55.2811 275 -67 286.797 -67 301.368H64.2519V275Z" fill="#681127"/>
<path d="M203.325 377.506V405.635C203.172 405.64 203.018 405.653 202.864 405.653C158.089 405.653 113.314 405.653 68.543 405.653C68.3634 405.653 68.1839 405.653 68 405.653V377.472H119.535V370.456H94.3211V296H176.384V370.477H152.428V377.489C152.714 377.489 152.949 377.489 153.189 377.489C169.68 377.489 186.171 377.489 202.663 377.489C202.885 377.489 203.107 377.502 203.33 377.506H203.325Z" fill="#253465"/>
<path d="M191 405.631C191 394.314 191 383.001 191 371.684C191.511 369.973 191.812 368.168 192.568 366.572C195.962 359.396 202.977 355.297 211.676 359.77C214.658 361.303 217.175 363.422 219.581 365.708C227.494 373.216 236.85 375.974 247.556 373.565C262.789 370.143 272.76 354.999 269.967 339.822C269.039 334.778 266.969 330.266 263.669 326.317C262.282 324.661 261.582 322.814 261.723 320.652C261.917 317.749 263.317 315.408 265.212 313.318C268.189 310.037 271.608 307.27 275.449 305.023C283.353 300.396 292.078 298.528 301.087 297.894C307.707 297.43 314.357 297.4 320.994 297.17C321.338 297.157 321.677 297.06 322.021 297C323.95 297.004 325.878 297.004 327.812 297.004C327.846 297.426 327.915 297.843 327.915 298.264C327.919 333.659 327.919 369.049 327.919 404.443V405.669H326.403C281.695 405.669 236.992 405.669 192.284 405.669C191.855 405.669 191.43 405.648 191 405.635L191 405.631Z" fill="#87BDF1"/>
<path d="M161.311 345.199C167.084 375.83 188.924 403.039 227.665 427.598H95C133.512 403.18 155.476 375.851 161.311 345.199Z" fill="#EEAAAA"/>
<path d="M174.73 331.44C174.788 338.984 168.703 345.218 161.293 345.201C154.24 345.188 148.022 338.92 147.939 331.74C147.847 324.033 153.644 318.034 161.218 318C168.966 317.966 174.667 323.639 174.726 331.44H174.73Z" fill="#EEAAAA"/>
<path d="M189 447.849C189 430.163 189 412.477 189 394.791C189.018 394.551 189.052 394.311 189.052 394.071C189.054 387.939 189.054 381.806 189.054 375.674C189.054 375.488 189.054 375.303 189.054 375.028C211.915 388.173 234.663 401.252 257.447 414.354C257.52 414.049 257.574 413.812 257.633 413.576C260.161 403.488 264.09 393.853 269.548 384.722C273.839 377.544 279.038 370.951 285.663 365.297C290.266 361.369 295.387 358.102 301.159 355.663C306.33 353.478 311.757 352.037 317.447 351.461C319.928 351.21 322.434 351.147 324.928 351V447.85H189V447.849Z" fill="#253465"/>
<path d="M277 422.926C277.212 422.855 277.275 422.664 277.372 422.493C277.883 421.587 278.383 420.675 278.91 419.779C280.047 417.843 281.367 416.04 282.926 414.416C284.815 412.445 286.96 410.805 289.287 409.39C292.721 407.302 296.342 405.623 300.182 404.417C302.336 403.742 304.468 403.005 306.522 402.062C307.769 401.488 308.993 400.862 310.221 400.249C310.769 399.976 311.264 399.62 311.701 399.19C312.891 398.019 313.409 396.583 313.341 394.928C313.284 393.536 312.815 392.281 312.055 391.126C311.633 390.484 311.125 389.91 310.577 389.373C309.776 388.587 308.909 387.88 307.989 387.24C306.525 386.219 305.047 385.215 303.564 384.219C301.217 382.642 298.888 381.039 296.711 379.228C295.624 378.324 294.576 377.373 293.518 376.438C292.758 375.767 292.182 374.952 291.71 374.059C290.953 372.62 290.489 371.085 290.204 369.492C289.97 368.19 289.9 366.88 289.97 365.562C290.046 364.1 290.327 362.682 290.908 361.331C291.189 360.678 291.54 360.065 291.975 359.504C292.75 358.506 293.727 357.772 294.901 357.296C297.67 356.166 300.476 356.119 303.313 356.992C304.898 357.479 306.386 358.181 307.808 359.022C308.804 359.612 309.778 360.238 310.761 360.851C311.376 361.236 311.984 361.634 312.605 362.012C312.99 362.245 313.388 362.46 313.789 362.667C314.549 363.065 315.361 363.259 316.218 363.309C316.983 363.353 317.748 363.39 318.513 363.309C319.042 363.254 319.558 363.144 320.056 362.955C321.193 362.525 321.955 361.734 322.359 360.592C322.589 359.937 322.678 359.258 322.704 358.566C322.751 357.33 322.767 356.093 322.846 354.859C323.055 351.579 323.522 348.34 324.494 345.188C324.952 343.703 325.528 342.267 326.283 340.905C327.04 339.539 327.957 338.295 329.104 337.229C330.59 335.845 332.34 334.962 334.286 334.436C335.258 334.174 336.246 334.011 337.249 334.001C339.604 333.974 341.677 334.737 343.469 336.264C344.616 337.242 345.538 338.41 346.301 339.705C347.597 341.905 348.472 344.271 348.986 346.773C349.292 348.275 349.449 349.8 349.596 351.325C349.751 352.946 349.869 354.573 350.17 356.177C350.309 356.91 350.487 357.634 350.767 358.328C350.974 358.839 351.236 359.321 351.592 359.748C352.127 360.385 352.798 360.804 353.607 361C354.215 361.147 354.775 361.045 355.299 360.715C355.653 360.492 355.96 360.212 356.195 359.871C356.562 359.339 356.934 358.805 357.243 358.239C357.741 357.327 358.199 356.392 358.661 355.459C359.627 353.504 360.646 351.579 361.864 349.766C362.831 348.327 363.918 346.991 365.089 345.715C366.554 344.119 368.341 343.069 370.413 342.511C374.065 341.531 377.625 341.795 381.002 343.525C384.544 345.338 386.674 348.28 387.517 352.147C388.018 354.437 387.821 356.717 387.221 358.967C386.734 360.799 385.992 362.525 385.102 364.194C383.933 366.382 382.532 368.42 381.002 370.37C379.184 372.689 377.421 375.047 375.794 377.504C374.494 379.472 373.274 381.484 372.257 383.617C371.699 384.788 371.22 385.988 370.866 387.24C370.284 389.313 370.473 391.32 371.322 393.28C372.103 395.082 373.308 396.563 374.788 397.831C376.69 399.458 378.88 400.508 381.293 401.127C383.632 401.727 386.008 401.952 388.416 401.816C390.365 401.706 392.264 401.342 394.077 400.569C395.665 399.89 397.336 399.557 399.07 399.612C400.991 399.673 402.793 400.168 404.409 401.229C406.712 402.738 407.886 404.897 408.025 407.63C408.114 409.385 407.739 411.065 407.134 412.7C406.943 413.213 406.738 413.727 406.497 414.219C405.895 415.448 405.785 416.74 405.952 418.068C406.141 419.582 406.636 421.008 407.249 422.396C407.765 423.565 408.368 424.689 409.025 425.784C409.235 426.133 409.455 426.476 409.67 426.819V433.183H277V422.931V422.926Z" fill="#D17A00"/>
<path d="M410.296 459.487L350.801 380.925H371.385C371.385 365.503 358.741 353 343.148 353C327.555 353 314.915 365.503 314.915 380.925H335.499L276 459.487H410.296Z" fill="#681127"/>
<path d="M0 427.819C0 427.55 0 427.337 0 427.128C0 411.806 0 396.484 0.0127531 381.167C0.0127531 380.724 0.12328 380.259 0.276318 379.833C1.31783 376.944 3.06501 374.43 4.60814 371.81C9.3183 363.812 14.2155 355.934 19.5676 348.35C22.7771 343.804 26.1227 339.364 29.9444 335.303C32.0019 333.122 34.1657 331.055 36.7461 329.491C38.1192 328.656 39.5688 328.009 41.2182 328C43.0249 327.987 44.1216 328.729 44.5723 330.488C44.8826 331.694 45.0909 332.968 45.0866 334.208C45.0696 336.846 44.9208 339.483 44.755 342.116C44.5255 345.759 44.2024 349.398 44.398 353.054C44.5212 355.38 44.7933 357.69 45.8986 359.794C46.2557 360.476 46.7318 361.115 47.2632 361.673C48.4917 362.969 49.9838 363.301 51.68 362.705C53.1041 362.202 54.3837 361.426 55.4762 360.421C58.0141 358.082 60.5307 355.717 62.9623 353.271C67.5364 348.678 72.0298 344 77.3946 340.288C80.6297 338.051 84.0687 336.232 87.8947 335.218C92.7706 333.927 97.5658 334.336 102.301 335.904C107.335 337.57 111.807 340.254 115.913 343.561C122.69 349.019 128.178 355.546 132.067 363.369C133.645 366.539 134.826 369.85 135.234 373.395C135.353 374.413 135.387 375.444 135.387 376.471C135.392 393.387 135.387 410.307 135.387 427.222C135.387 427.397 135.387 427.576 135.387 427.823H0V427.819Z" fill="#F7422C"/>
<path d="M245.961 451.618H114.001C113.893 409.233 129.191 379.833 134.831 384.122C135.664 384.756 135.688 386.494 135.416 388.541C135.206 390.121 137.275 390.859 138.083 389.491C142.354 382.242 149.873 373.076 160.196 371.458C177.011 368.824 169.302 394.248 171.561 411.53C173.82 428.813 185.033 437.554 197.033 435.636C211.498 433.327 232.036 412.397 205.904 354.364C204.787 351.879 208.027 349.778 209.808 351.829C224.805 369.128 246.081 404.056 245.961 451.623V451.618Z" fill="#C0B991"/>
<path d="M133.839 444.426V424.639C129.703 424.232 125.539 424.059 121.395 424.01C119.071 423.976 116.425 423.914 114.267 423.301C109.835 422.085 110.002 419.656 113.5 417.611C116.686 415.662 120.608 414.921 123.961 412.89C128.263 410.478 131.027 405.51 127.159 401.309C124.44 397.864 117.034 396.458 115.83 392.292C115.26 387.212 126.112 385.502 128.071 381.536C130.462 377.395 125.232 373.56 125.279 369.459C125.22 366.499 127.247 363.613 127.056 360.59C126.779 356.797 124.107 354.21 120.444 352.522C114.605 350.096 107.313 350.58 102.013 353.903C98.5743 355.979 95.9418 359.308 93.6636 362.61C87.9348 371.172 81.8301 371.33 72.1343 371.17C64.8155 371.406 43.3065 369.829 41.5826 379.034C41.3974 381.936 44.2705 383.96 46.7841 385C55.2387 388.296 64.6086 387.018 73.4688 387.711C76.2663 388.047 79.9845 389.294 77.8442 391.368C75.3022 393.359 70.6362 393.557 67.2898 393.57C57.8874 393.605 48.4863 393.495 39.1313 393.647C30.7199 393.914 21.8624 394.427 14.215 398.226C9.25557 400.664 5.82668 405.978 10.3318 410.596C19.7789 419.42 41.3108 417.837 53.704 418.071C58.4215 418.165 63.293 417.83 67.9469 418.329C70.5348 418.552 75.816 420.491 71.6151 422.632C69.0745 423.836 65.6402 423.968 62.7468 423.965C51.3014 423.968 39.8506 423.965 28.4052 423.965C18.6052 423.93 8.68364 423.834 -1 425.301V444.426H133.837H133.839Z" fill="#253465"/>
<path d="M232.928 414.847C237 410.143 245.737 400.324 260.531 396.651C264.536 395.654 277.222 392.504 289.6 398.948C292.705 400.565 298.497 403.682 301.974 410.442C302.553 411.57 306.697 419.923 303.723 428.934C300.335 439.209 290.737 441.109 291.104 449.238C291.146 450.154 291.294 453.406 293.673 455.34C295.983 457.223 299.038 456.767 299.912 456.641C304.044 456.028 306.672 452.912 307.305 452.152C308.34 450.91 308.332 450.437 309.891 448.638C311.243 447.076 312.104 446.105 313.591 445.353C315.733 444.272 317.723 444.399 318.23 444.441C318.69 444.479 320.304 444.652 322.028 445.691C323.388 446.51 324.149 447.469 325.036 448.604C326.595 450.606 326.713 451.51 327.887 453.279C327.887 453.279 329.374 455.657 331.787 457.46C334.317 459.352 337.076 459.757 346.509 459.804C349.678 459.82 353.497 459.795 357.839 459.677C357.839 470.859 357.839 482.041 357.839 493.219C312.894 493.219 267.945 493.219 223 493.219C223 472.333 223 451.446 223 430.56C224.749 426.582 227.791 420.78 232.928 414.847Z" fill="#F7422C"/>
<path d="M133.747 439.716H0.0078125V492.569H133.747V439.716Z" fill="#87BDF1"/>
<path d="M0.00581019 439.714C-0.226076 437.371 6.54922 433.493 8.47177 432.398C9.85887 431.608 14.446 429.123 21.352 428.237C26.5294 427.575 31.0617 428.349 39.9071 429.931C45.1393 430.863 45.6958 431.183 55.8356 433.322C64.9846 435.249 69.559 436.214 71.8653 436.406C75.5038 436.705 83.7758 437.354 93.203 434.558C97.6552 433.239 102.5 431.104 110.776 430.272C112.239 430.126 112.968 430.051 113.845 430.039C123.352 429.931 134.036 436.576 133.741 439.718C132.742 450.433 0.992381 449.768 0.00581019 439.714Z" fill="#87BDF1"/>
<path d="M237.056 377.004C237.511 377.004 237.966 377.004 238.42 377.004C238.473 377.038 238.518 377.084 238.574 377.101C239.752 377.474 240.373 378.23 240.454 379.489C240.495 380.139 240.499 380.802 240.41 381.445C240.048 384.097 239.585 386.737 239.273 389.394C238.851 392.965 239.033 396.516 239.845 400.025C241.1 405.456 243.714 410.144 247.177 414.374C247.356 414.593 247.478 414.928 247.482 415.214C247.494 433.274 247.494 451.337 247.494 469.397C247.494 469.578 247.494 469.754 247.494 469.943H117C117.337 469.762 117.572 469.653 117.792 469.519C119.058 468.738 120.374 468.033 121.567 467.148C124.425 465.024 126.764 462.413 128.246 459.056C128.859 457.671 129.492 456.294 130.186 454.951C132.776 449.94 135.716 445.172 139.402 440.933C141.895 438.071 144.757 435.67 148.017 433.794C148.614 433.45 149.304 433.223 149.974 433.089C150.92 432.896 151.524 433.479 151.476 434.474C151.447 435.019 151.35 435.573 151.224 436.106C150.818 437.852 150.4 439.59 150.388 441.399C150.371 443.783 150.806 446.074 151.886 448.185C152.673 449.73 153.713 449.847 154.821 448.521C155.527 447.678 156.157 446.75 156.729 445.802C158.694 442.549 160.562 439.229 162.571 436.006C166.128 430.302 170.309 425.085 174.446 419.83C177.584 415.843 181.331 412.599 185.724 410.182C186.772 409.602 187.925 409.225 189.037 408.767C189.211 408.696 189.419 408.692 189.609 408.671C191.18 408.499 192.041 409.393 191.716 410.979C191.432 412.368 191.034 413.732 190.653 415.096C189.134 420.544 189.577 425.832 191.879 430.957C192.427 432.182 193.129 433.315 194.221 434.113C195.212 434.839 196.137 434.814 197.083 434.037C197.412 433.769 197.745 433.479 197.997 433.139C198.882 431.943 199.799 430.764 200.587 429.496C204.407 423.339 207.598 416.83 210.72 410.274C213.294 404.868 215.945 399.5 218.677 394.178C220.46 390.712 222.502 387.409 225.34 384.706C227.625 382.532 230.004 380.496 232.688 378.859C234.06 378.02 235.509 377.39 237.056 377V377.004Z" fill="#D17A00"/>
<path d="M23 501.858C48.034 459.185 71.366 451.834 113.465 433.69C122.008 429.822 131.832 425.628 137.797 417.904C142.163 412.246 141.788 405.17 140.168 398.534C139.668 397.044 139.102 395.846 138.656 395C142.275 397.362 144.906 401.111 146.658 405.077C147.117 406.114 148.472 409.271 148.897 413.054C149.252 416.19 149.033 420.355 146.708 426.03C144.324 431.849 141.932 433.872 130.089 447.707C123.561 455.33 120.145 459.553 118.935 466.117C118.34 469.346 118.493 471.975 118.592 473.105C119.315 481.362 123.896 486.935 125.792 489.242C135.471 501.012 151.347 501.778 154.003 501.871" fill="#681127"/>
<path d="M0 537.446H132.792V481.512C123.049 467.536 117.266 464.944 113.663 465.868C111.449 466.438 110.68 468.176 108.129 468.156C102.592 468.114 100.819 459.891 96.0807 460.107C93.0519 460.244 90.6971 463.742 89.811 466.059C88.3091 470.007 90.2104 472.831 90.5723 476.55C91.263 483.608 86.2913 492.701 77.9787 496.387C70.2653 499.806 60.9626 497.955 55.0839 492.381C50.1414 487.693 47.7658 480.514 48.7351 474.154C50.3785 463.347 60.8253 460.477 59.6646 451.75C59.2152 448.36 57.0685 444.517 54.3933 444.047C51.3229 443.506 49.7628 447.803 44.4042 448.889C40.2604 449.729 39.7902 447.445 36.0084 447.936C28.3949 448.922 26.9096 458.614 19.2045 459.163C16.5293 459.354 16.209 458.223 14.0705 458.426C10.1181 458.801 5.03411 463.235 0 480.934V537.442V537.446Z" fill="#C0B991" stroke="#C0B991" stroke-width="0.658947" stroke-miterlimit="10"/>
<mask id="mask1_691_4225" style="mask-type:luminance" maskUnits="userSpaceOnUse" x="133" y="395" width="134" height="135">
<path d="M266.208 395H133V529.732H266.208V395Z" fill="white"/>
</mask>
<g mask="url(#mask1_691_4225)">
<path d="M-28.0164 445.532C-26.2093 438.807 -16.4434 436.98 -10.7925 436C2.68773 433.666 16.7189 434.211 30.3035 435.063C50.3736 436.325 83.0476 451.391 102.942 454.278C140.591 459.74 139.076 439.973 159.56 445.08C172.38 448.276 179.408 466.545 191.115 464.823C199.12 463.645 205.818 459.339 203.806 442.699C202.1 428.58 214.649 418.495 227.791 418.495C238.233 418.495 242.87 421.028 247.824 426.038C260.841 439.204 243.972 460.293 229.711 445.87C223.017 439.099 219.841 452.708 219.499 456.9C219.177 460.779 218.485 469.555 227.015 473.21C235.888 477.009 237.975 464.371 254.739 464.371C267.101 464.371 292.977 462.362 292.977 489.124C292.977 495.355 306.703 491.412 312.742 492.628C318.301 493.746 323.852 494.907 329.394 496.11C334.477 497.216 339.552 498.36 344.615 499.555C349.243 500.648 353.859 501.779 358.466 502.965C362.657 504.042 366.838 505.165 371.008 506.334C374.785 507.398 378.549 508.504 382.297 509.664C385.677 510.711 389.049 511.805 392.401 512.953C395.41 513.987 398.402 515.063 401.374 516.199C404.028 517.216 406.67 518.28 409.282 519.403C411.607 520.403 413.911 521.454 416.185 522.564C418.197 523.548 420.188 524.582 422.141 525.684C423.864 526.655 425.559 527.672 427.211 528.757C428.664 529.711 430.087 530.716 431.46 531.783C432.666 532.721 433.835 533.713 434.945 534.764C435.922 535.688 436.856 536.663 437.724 537.697C438.497 538.613 439.214 539.572 439.865 540.58C440.45 541.488 440.971 542.434 441.422 543.413C441.835 544.312 442.186 545.245 442.461 546.195C442.72 547.09 442.912 548.001 443.041 548.926C443.162 549.812 443.221 550.711 443.221 551.606C443.221 552.484 443.167 553.362 443.062 554.232C442.962 555.097 442.812 555.954 442.628 556.807C442.445 557.655 442.223 558.495 441.977 559.327C441.731 560.154 441.46 560.977 441.168 561.788C440.88 562.594 440.575 563.396 440.266 564.194C439.957 564.979 439.644 565.76 439.327 566.541C439.018 567.301 438.714 568.065 438.417 568.829C438.129 569.567 437.854 570.31 437.595 571.057C437.349 571.775 437.119 572.497 436.919 573.227C436.911 573.252 436.906 573.278 436.898 573.303C434.411 582.56 413.143 585.849 379.588 583.831C376.233 583.628 373.303 583.506 371.859 583.751C370.473 584.768 368.796 585.557 366.876 586.152C364.956 586.748 363.116 587.22 362.452 587.887C357.252 596.71 329.365 591.682 309.758 587.423C316.878 589.002 325.066 590.125 332.186 591.703C323.121 590.34 313.552 587.334 304.412 587.153C302.421 587.735 300.172 588.107 297.701 588.288C277.935 589.74 244.239 579.213 220.726 571.243C215.455 569.795 211.753 569.529 208.051 569.268C205.129 569.031 202.087 568.727 198.953 568.36C164.48 564.329 119.002 552.577 101.523 533.957C100.443 532.716 100.347 531.75 100.86 530.943C101.373 530.137 102.488 529.491 103.827 528.892C105.76 528.719 108.585 528.74 111.314 529.111C75.2098 519.563 41.9599 502.889 19.9992 485.886C18.2964 485.034 16.6312 484.181 15.0119 483.341C-14.2064 468.149 -30.4411 454.658 -27.9872 445.523L-28.0164 445.532Z" fill="#EEAAAA"/>
</g>
<path d="M396.665 477.205V534.206H264V500.256C264.407 500.718 264.622 500.964 264.838 501.214C269.402 506.496 274.643 507.551 280.485 503.787C283.464 501.867 286.219 499.374 288.576 496.683C295.095 489.226 299.588 480.422 303.945 471.55C305.053 469.299 306.181 467.014 307.63 464.988C309.995 461.686 312.576 461.347 315.812 463.742C317.704 465.141 319.405 466.807 321.243 468.282C326.081 472.165 330.334 472.177 334.33 467.451C337.621 463.555 340.301 459.075 342.907 454.637C345.695 449.885 347.765 444.68 350.736 440.063C352.965 436.6 355.815 433.383 358.944 430.729C363.163 427.147 368.134 427.109 372.479 430.509C375.379 432.781 378.151 435.553 380.117 438.664C383.499 444.01 386.64 449.609 389.088 455.451C392.046 462.513 394.179 469.939 396.669 477.205H396.665Z" fill="#807B00"/>
<path d="M230.536 519.767C228.788 527.77 220.418 535.671 220 543.425H352.234C351.84 531.617 338.269 526.278 333.87 516.266C331.15 510.525 331.68 503.938 331.601 497.711C331.862 487.019 327.6 478.788 315.963 479.921C311.44 480.356 307.108 481.925 302.706 482.977C297.715 484.237 292.485 484.702 287.411 483.675C278.379 481.836 269.992 476.479 260.752 474.852C250.44 472.641 238.252 474.484 231.414 483.349L231.364 483.417C227.049 489.103 226.262 497.119 228.138 504.069C229.571 509.164 231.87 514.398 230.536 519.771V519.767Z" fill="#C0B991" stroke="#C0B991" stroke-width="0.658947" stroke-miterlimit="10"/>
<path d="M14 566.355C14 553.613 14 540.871 14 528.132C15.5772 527.727 17.1514 527.316 18.7316 526.923C27.0201 524.858 35.4378 523.455 43.9426 522.868C53.0002 522.242 62.0849 522.018 71.1605 521.707C78.5478 521.453 85.8269 520.413 92.9678 518.589C103.915 515.796 114.252 511.348 124.253 506.159C132.067 502.104 139.698 497.696 147.41 493.438C147.623 493.321 147.809 493.148 148.007 493C148.1 493.045 148.257 493.076 148.275 493.145C148.314 493.299 148.287 493.469 148.287 493.635V566.358H14V566.355Z" fill="#F7422C"/>
<path d="M128 551.537C129.229 548.719 130.991 544.622 133.052 539.638C136.425 531.477 138.137 527.32 139.253 523.57C140.348 519.888 142.219 513.451 142.488 505.048C142.76 496.518 141.338 487.585 140.142 480.089C140.016 479.297 139.811 478.102 139.79 476.449C139.756 473.788 139.76 467.589 144.103 462.288C145.328 460.792 148.957 456.359 154.894 456.02C160.831 455.681 164.968 459.665 165.413 460.105C171.681 466.339 170.258 477.454 169.726 481.623C169.361 484.475 168.79 486.365 168.425 489.255C168.224 490.852 168.123 491.946 168.106 493.336C168.073 496.666 168.039 499.878 169.776 502.683C171.328 505.188 174.702 508.035 178.893 507.768C184.037 507.438 186.814 502.544 187.255 501.777C187.255 501.777 190.792 495.556 187.364 485.873C187.335 485.784 187.054 485.009 186.714 483.928C186.601 483.568 186.483 483.174 186.353 482.725C186.076 481.755 185.824 480.615 185.64 479.17C185.212 475.856 184.662 471.114 187.205 466.555C187.788 465.512 189.29 462.894 192.382 461.194C197.06 458.622 201.961 460.029 203.169 460.377C211.636 462.822 215.454 471.53 216.654 474.267C217.174 475.453 218.576 478.86 219.352 486.522C220.489 497.755 220.43 519.553 221.24 524.108C221.34 524.667 221.794 527.316 223.665 529.011C224.059 529.367 225.972 531.079 228.519 530.647C230.294 530.346 231.393 529.121 231.817 528.638C233.499 526.727 233.663 524.362 233.793 522.057C233.877 520.587 233.726 519.07 233.424 516.04C233.206 513.858 232.946 512.023 233.659 509.76C233.785 509.366 233.927 508.917 234.213 508.37C234.213 508.37 235.606 505.59 238.761 504.506C242.113 503.353 245.763 505.154 247.123 505.866C256.739 510.913 261.623 524.621 261.749 533.697C261.757 534.278 261.749 535.159 261.736 537.333C261.736 537.965 261.728 540.367 261.723 542.533C261.723 544.647 261.723 547.63 261.732 551.389C246.842 551.397 208.561 551.431 193.67 551.448C179.686 551.465 141.984 551.516 128 551.537Z" fill="#253465"/>
<path d="M389.927 504.851V563.849H254.021C254.009 563.712 254 563.644 254 563.576C254 561.001 254 558.43 254 555.855C254 555.719 254.009 555.583 254.038 555.45C254.43 553.656 254.742 551.84 255.236 550.075C257.985 540.274 263.38 532.297 271.852 526.572C274.592 524.717 277.545 523.17 280.426 521.524C287.176 517.662 293.905 513.765 300.323 509.357C303.383 507.256 306.379 505.06 308.995 502.4C310.027 501.355 310.977 500.243 311.578 498.878C312.324 497.19 311.94 495.852 310.381 494.875C309.068 494.053 307.61 493.677 306.072 493.605C303.877 493.503 301.776 493.98 299.718 494.671C296.398 495.779 293.296 497.378 290.232 499.04C286.256 501.202 282.297 503.389 278.308 505.525C276.39 506.552 274.349 507.247 272.167 507.456C269.342 507.724 266.653 507.298 264.236 505.738C260.691 503.449 259.229 500.021 259.114 495.937C259.024 492.714 259.762 489.649 261.1 486.733C263.026 482.546 265.877 479.016 269.073 475.751C273.518 471.211 278.538 467.391 284.006 464.168C293.543 458.545 303.711 454.819 314.855 454.107C319.245 453.826 323.6 454.073 327.878 455.168C333.776 456.673 338.899 459.521 343.02 464.053C347.064 468.499 349.463 473.739 350.345 479.669C350.746 482.359 350.836 485.062 350.32 487.752C349.497 492.066 347.311 495.63 344.286 498.729C341.443 501.641 338.132 503.93 334.633 505.977C329.881 508.756 324.861 510.994 319.845 513.232C315.81 515.036 311.736 516.767 307.892 518.966C305.893 520.113 303.971 521.367 302.416 523.106C301.589 524.035 300.954 525.071 300.698 526.308C300.327 528.132 300.945 529.722 301.862 531.249C302.433 532.195 303.259 532.702 304.325 532.877C305.804 533.12 307.244 532.869 308.667 532.498C312.017 531.628 315.119 530.153 318.132 528.49C325.667 524.325 332.468 519.145 338.809 513.348C341.008 511.34 343.105 509.217 345.538 507.473C353.29 501.918 361.822 498.699 371.457 498.802C378.02 498.874 384.016 500.763 389.403 504.544C389.565 504.659 389.748 504.745 389.918 504.843L389.927 504.851Z" fill="#87BDF1"/>
<path d="M130.577 488V553.096H-1C-1 531.789 -1 510.52 -1 489.251C-0.61261 491.174 -0.139134 493.078 0.15602 495.014C3.74091 518.603 16.1374 535.68 37.0687 546.189C41.9326 548.627 47.313 549.998 52.4598 551.858C52.6258 551.537 52.7918 551.223 52.9517 550.903C44.6259 546.616 39.2455 539.897 37.45 530.689C35.6298 521.343 37.8681 512.833 44.2447 505.756C55.19 493.594 74.4365 493.77 85.3141 505.636C95.1833 516.403 97.2924 539.432 76.2135 551.443C77.7815 551.167 78.6547 551.06 79.4971 550.852C98.1964 546.195 112.247 535.246 121.852 518.32C127.171 508.949 129.224 498.584 130.577 488.013V488Z" fill="#807B00"/>
</g>
</svg>
