<svg width="5472" height="155" viewBox="0 0 5472 155" fill="none" xmlns="http://www.w3.org/2000/svg">
<path d="M3736.85 154C3771.65 154 3799.85 125.794 3799.85 91C3799.85 56.2061 3771.65 28 3736.85 28C3702.06 28 3673.85 56.2061 3673.85 91C3673.85 125.794 3702.06 154 3736.85 154Z" fill="#87BDF1"/>
<path d="M3807.93 148.754C3831.83 148.754 3851.2 129.385 3851.2 105.492C3851.2 81.5994 3831.83 62.2305 3807.93 62.2305C3784.04 62.2305 3764.67 81.5994 3764.67 105.492C3764.67 129.385 3784.04 148.754 3807.93 148.754Z" fill="#87BDF1"/>
<path d="M3787.77 120.971C3811.67 120.971 3831.04 101.602 3831.04 77.7089C3831.04 53.8162 3811.67 34.4473 3787.77 34.4473C3763.88 34.4473 3744.51 53.8162 3744.51 77.7089C3744.51 101.602 3763.88 120.971 3787.77 120.971Z" fill="#87BDF1"/>
<path d="M3673.85 90.9961L3851.18 105.479V153.996H3673.85" fill="#87BDF1"/>
<path d="M3436.65 19.0272C3438.77 19.0272 3440.86 19.0272 3442.98 19.0272C3444.19 19.2449 3445.38 19.4898 3446.59 19.7347C3452.37 20.9049 3457.63 23.2723 3462.45 26.565C3465.04 28.3338 3467.76 30.1026 3469.74 32.4429C3472.83 36.0893 3475.55 40.1167 3478.09 44.1985C3481.86 50.3213 3484.69 56.8795 3486.13 63.9547C3486.65 66.5126 3487.64 68.9889 3487.26 71.6829C3486.87 74.3769 3486.57 77.071 3486.21 79.765C3485.41 85.6972 3483.18 90.9764 3479.22 95.5481C3477.18 97.9155 3475.36 100.501 3473.6 103.086C3472.33 104.909 3472.44 105.508 3473.9 107.168C3480.73 114.814 3485.82 123.413 3488.05 133.455C3488.8 136.829 3490.17 140.095 3490.23 143.632C3490.23 145.102 3490.7 146.544 3490.95 148.013V154H3314.95C3314.95 153.537 3314.95 153.102 3314.95 152.639C3315.19 151.633 3315.44 150.626 3315.69 149.619C3317.09 143.959 3319.57 138.679 3322.35 133.591C3324.66 129.346 3327.69 125.482 3330.45 121.509C3332.21 118.978 3334.08 116.502 3335.84 113.971C3337 112.284 3336.95 112.148 3335.51 110.787C3334.47 109.78 3333.34 108.828 3332.37 107.739C3329.21 104.229 3326.04 100.718 3322.99 97.072C3321.8 95.6569 3320.73 94.0786 3319.98 92.3915C3317.86 87.6021 3316.49 82.6223 3316.02 77.3703C3315.74 74.3769 3315.47 71.438 3315.94 68.4447C3316.62 63.9547 3318.36 59.8456 3320.26 55.7638C3323.43 48.9335 3327.47 42.7563 3333.45 37.9397C3341.19 31.6809 3350.41 29.8849 3359.99 29.4223C3363.68 29.2318 3367.4 29.9665 3371.09 30.021C3374.09 30.0754 3376.93 30.5652 3379.57 31.953C3381.58 33.0143 3383.53 34.2116 3385.41 35.5178C3389.37 38.2935 3393.5 40.7698 3398.02 42.7291C3398.37 42.3481 3398.71 41.9671 3399.06 41.6406C3403.5 37.2594 3407.79 32.715 3412.42 28.5243C3417.15 24.252 3422.72 21.3403 3429.13 20.2246C3431.64 19.7892 3434.17 19.4082 3436.67 19L3436.65 19.0272Z" fill="#F7422C"/>
<path d="M3034.18 153.995C3034.18 153.694 3034.18 153.455 3034.18 153.221C3034.18 136.03 3034.18 118.839 3034.2 101.652C3034.2 101.155 3034.32 100.634 3034.5 100.156C3035.69 96.9149 3037.69 94.0943 3039.46 91.1543C3044.85 82.1811 3050.46 73.3418 3056.59 64.8323C3060.26 59.7314 3064.09 54.75 3068.47 50.1941C3070.82 47.7465 3073.3 45.4279 3076.25 43.6734C3077.82 42.7364 3079.48 42.0097 3081.37 42.0002C3083.44 41.9858 3084.7 42.8177 3085.21 44.7921C3085.57 46.145 3085.81 47.5744 3085.8 48.9655C3085.78 51.9247 3085.61 54.8839 3085.42 57.8383C3085.16 61.9257 3084.79 66.0083 3085.01 70.1101C3085.15 72.7203 3085.47 75.3114 3086.73 77.673C3087.14 78.4379 3087.68 79.155 3088.29 79.7812C3089.7 81.2345 3091.41 81.6074 3093.35 80.9381C3094.98 80.374 3096.44 79.504 3097.7 78.3757C3100.6 75.7512 3103.48 73.098 3106.27 70.3539C3111.5 65.2004 3116.65 59.9513 3122.79 55.7874C3126.49 53.2776 3130.43 51.2363 3134.81 50.0985C3140.39 48.65 3145.88 49.1089 3151.3 50.8682C3157.07 52.7374 3162.19 55.7492 3166.89 59.4589C3174.64 65.5829 3180.93 72.9067 3185.38 81.6839C3187.19 85.2407 3188.54 88.9552 3189.01 92.9327C3189.14 94.0752 3189.18 95.2321 3189.18 96.3843C3189.19 115.363 3189.18 134.347 3189.18 153.326C3189.18 153.522 3189.18 153.723 3189.18 154H3034.18V153.995Z" fill="#253465"/>
<path d="M785 154C785 116.41 785 78.8252 785 41.2351C785.145 41.091 785.312 40.9629 785.436 40.8028C787.364 38.2943 789.513 36.0046 792.141 34.206C796.595 31.1477 801.398 30.091 806.622 31.9216C810.354 33.2293 813.294 35.663 815.874 38.5665C819.611 42.7722 822.288 47.6184 824.507 52.7315C827.382 59.371 829.337 66.2934 830.748 73.3705C832.154 80.4317 832.978 87.5569 833.317 94.7408C833.382 96.0911 833.43 97.4468 833.484 98.8291C858.116 92.5258 882.684 92.5579 907.247 98.9465C907.263 98.8078 907.274 98.7224 907.279 98.637C907.581 94.0683 907.774 89.4836 908.216 84.9256C908.916 77.6563 910.322 70.5098 912.374 63.4913C914.382 56.6116 916.978 49.9721 920.855 43.8877C923.263 40.109 926.063 36.6611 929.833 34.1152C935.482 30.2991 941.325 29.9149 947.292 33.3734C950.695 35.3481 953.329 38.1449 955.623 41.2778C955.844 41.5767 955.984 42.009 955.984 42.3773C956 79.3429 956 116.314 956 153.279V153.995H785V154Z" fill="#C0B991"/>
<path fill-rule="evenodd" clip-rule="evenodd" d="M725.397 58C724.023 60.7435 723.329 63.725 723.159 66.9007C722.806 73.5259 724.749 79.4214 728.579 84.7623C730.163 86.9707 731.842 89.0702 734.186 90.5298C736.304 91.8425 738.638 92.506 741.077 92.7145C742.468 92.8332 743.871 92.8418 745.273 92.8504C745.887 92.8542 746.501 92.8579 747.114 92.8709H747.458C747.183 93.2892 746.903 93.702 746.624 94.1138C746.033 94.985 745.446 95.8512 744.911 96.7523C742.336 101.089 741.308 105.79 741.949 110.799C742.567 115.628 744.586 119.874 747.849 123.443C751.552 127.495 756.051 130.419 761.357 131.878C768.389 133.812 774.789 132.277 780.553 127.907C784.344 125.035 787.41 121.552 789.396 117.178C789.415 117.131 789.445 117.087 789.473 117.044C789.485 117.025 789.498 117.007 789.509 116.988C789.518 116.979 789.542 116.979 789.561 116.974C789.63 117.382 789.692 117.791 789.755 118.201C789.893 119.108 790.032 120.016 790.24 120.907C791.028 124.31 792.056 127.632 794.079 130.533C797.211 135.02 801.517 137.599 806.907 138.409C811.756 139.139 816.378 138.314 820.797 136.319C825.509 134.196 828.343 130.447 829.725 125.519C830.97 121.069 830.513 116.756 828.669 112.567C828.222 111.553 827.751 110.551 827.279 109.55C827.043 109.049 826.807 108.548 826.575 108.046C826.49 107.865 826.405 107.685 826.32 107.501C826.684 107.466 827.041 107.436 827.395 107.406C828.151 107.343 828.887 107.282 829.617 107.178C831.579 106.903 833.404 106.211 835.135 105.254C839.978 102.572 844.001 99.0033 846.586 94.0367C850.67 86.203 850.378 78.502 845.416 71.1279C841.37 65.1188 835.767 61.119 828.956 58.7921C828.058 58.4852 827.152 58.2212 826.238 58L861.545 58V153.981C861.455 153.983 861.364 153.986 861.274 153.99C861.138 153.995 861.002 154 860.866 154H711.679C711.453 154 711.226 153.991 711 153.981V58H725.397Z" fill="#7F7B00"/>
<path d="M709.73 62.2378C704.958 56.7298 694.721 45.2341 677.386 40.9326C672.693 39.7657 657.828 36.0772 643.324 43.6223C639.685 45.516 632.899 49.1649 628.825 57.0808C628.146 58.401 623.29 68.1809 626.775 78.7321C630.745 90.7617 641.992 92.9867 641.561 102.505C641.512 103.577 641.339 107.385 638.552 109.649C635.844 111.854 632.265 111.32 631.24 111.172C626.399 110.455 623.32 106.806 622.577 105.916C621.365 104.463 621.375 103.909 619.548 101.802C617.964 99.9731 616.954 98.8359 615.212 97.9558C612.702 96.69 610.37 96.8383 609.776 96.8878C609.237 96.9323 607.346 97.135 605.326 98.3513C603.732 99.3105 602.841 100.433 601.801 101.763C599.975 104.107 599.836 105.165 598.46 107.236C598.46 107.236 596.718 110.02 593.891 112.131C590.926 114.346 587.693 114.821 576.64 114.875C572.927 114.895 568.452 114.865 563.363 114.727C563.363 127.82 563.363 140.912 563.363 154C616.028 154 668.698 154 721.363 154C721.363 129.545 721.363 105.09 721.363 80.6357C719.314 75.9781 715.75 69.1846 709.73 62.2378Z" fill="#253465"/>
<path fill-rule="evenodd" clip-rule="evenodd" d="M499.986 154H489.988H406.297V55C411.607 60.2099 418.868 62.2707 426.168 64.3428C432.596 66.1673 439.055 68.0005 444.241 71.9997C447.939 74.8526 450.808 78.6762 453.658 82.4755C457.43 87.5022 461.17 92.4863 466.756 95.1233C463.934 93.2148 462.474 89.7463 462.192 86.3552C461.91 82.9641 462.64 79.573 463.365 76.2427C464.714 80.4304 468.321 83.5173 472.166 85.6581C473.995 86.6767 475.907 87.5338 477.819 88.3908C479.925 89.335 482.031 90.2791 484.026 91.439C488.451 94.0153 492.207 97.6804 494.987 101.976C497.767 97.6804 501.523 94.0153 505.948 91.439C507.943 90.2791 510.049 89.335 512.156 88.3908C514.067 87.5338 515.979 86.6767 517.809 85.6581C521.653 83.5173 525.26 80.4304 526.61 76.2427C527.335 79.573 528.065 82.9641 527.783 86.3552C527.501 89.7463 526.04 93.2148 523.219 95.1233C528.805 92.4863 532.544 87.5022 536.316 82.4755C539.167 78.6762 542.036 74.8526 545.734 71.9997C550.919 68.0005 557.378 66.1673 563.806 64.3428C571.107 62.2707 578.368 60.2099 583.678 55V154H499.986Z" fill="#681127"/>
<path d="M1642 153.996C1642 138.538 1642 123.079 1642 107.624C1643.93 107.132 1645.85 106.633 1647.78 106.156C1657.9 103.651 1668.18 101.949 1678.57 101.237C1689.63 100.477 1700.72 100.206 1711.8 99.8282C1720.82 99.52 1729.71 98.2581 1738.43 96.046C1751.8 92.6564 1764.43 87.2601 1776.64 80.965C1786.18 76.0457 1795.5 70.6971 1804.92 65.5319C1805.18 65.3889 1805.41 65.1798 1805.65 65C1805.76 65.055 1805.95 65.0917 1805.97 65.1761C1806.02 65.3632 1805.99 65.5686 1805.99 65.7704V154H1642V153.996Z" fill="#C0B991"/>
<path d="M1274.77 153.995H1114.77C1114.64 102.184 1133.18 66.2451 1140.02 71.4884C1141.03 72.2629 1141.06 74.3877 1140.73 76.8896C1140.48 78.8208 1142.99 79.7227 1143.97 78.0514C1149.14 69.1903 1158.26 57.9853 1170.78 56.0082C1191.16 52.7879 1181.82 83.8654 1184.56 104.991C1187.3 126.117 1200.89 136.803 1215.44 134.459C1232.98 131.636 1257.88 106.051 1226.2 35.1115C1224.84 32.0746 1228.77 29.5065 1230.93 32.0135C1249.11 53.1598 1274.91 95.8551 1274.77 154V153.995Z" fill="#D17A00"/>
<path d="M1031.92 87H1058.65L1084.05 124.513C1084.93 125.809 1086.39 126.584 1087.95 126.584H1098.89V99.9782H1109.35C1111.13 99.9782 1112.76 100.98 1113.56 102.565L1124.41 123.997C1125.21 125.582 1126.84 126.584 1128.61 126.584H1139.05V87H1165.86V154H1031.85L1031.92 87Z" fill="#EFABAB"/>
<path d="M2879.2 97.1985V154H2727.2C2727.2 122.237 2727.2 90.4588 2727.2 58.6858C2727.27 58.474 2727.39 58.2622 2727.41 58.0456C2728.82 45.3508 2737.86 34.9764 2750.19 31.9532C2751.84 31.544 2753.53 31.3129 2755.2 31C2756.72 31 2758.23 31 2759.75 31C2761.07 31.2407 2762.39 31.4477 2763.69 31.7269C2777.17 34.5961 2787.15 46.3569 2787.48 60.1252C2787.7 69.2239 2787.55 78.3321 2787.56 87.4404C2787.56 87.8544 2787.56 88.2636 2787.56 88.6776C2787.85 88.4899 2787.96 88.2877 2788.03 88.0759C2790.6 80.8547 2795.02 74.9767 2800.98 70.2685C2817.89 56.9287 2843.46 55.9996 2861.28 68.0829C2869.67 73.7732 2875.63 81.3072 2878.14 91.3205C2878.63 93.2462 2878.85 95.2392 2879.2 97.1985Z" fill="#D17A00"/>
<path d="M287.591 153.999V142.381L228.421 132.29L228.347 132.264C224.141 131.527 220.945 127.856 220.945 123.437C220.945 121.234 221.739 119.218 223.056 117.657L223.119 117.584L266.564 57.532L266.573 57.5188C268.751 54.5508 270.037 50.8871 270.037 46.9234C270.037 37.0243 262.017 29 252.123 29C243.957 29 237.067 34.4665 234.91 41.9412L234.779 42.4218L215.887 105.007L215.877 105.039C213.679 112.34 206.907 117.657 198.894 117.657C193.508 117.657 188.683 115.255 185.431 111.463L156.542 74.1354C150.653 66.519 138.9 67.4024 134.214 75.8135L110.304 118.734H110.254V154L287.591 153.999Z" fill="#EFABAB"/>
<path d="M2905.12 153.957C2905.12 141.356 2905.12 128.759 2905.12 116.158C2905.68 114.253 2906.02 112.243 2906.86 110.466C2910.63 102.476 2918.41 97.9122 2928.07 102.893C2931.38 104.599 2934.18 106.959 2936.85 109.504C2945.63 117.864 2956.02 120.935 2967.9 118.253C2984.81 114.442 2995.88 97.5804 2992.78 80.6806C2991.75 75.0647 2989.45 70.0412 2985.79 65.6433C2984.25 63.7997 2983.47 61.743 2983.63 59.3355C2983.85 56.1034 2985.4 53.4968 2987.5 51.1699C2990.81 47.516 2994.6 44.4356 2998.87 41.9333C3007.64 36.7818 3017.33 34.7014 3027.33 33.9952C3034.68 33.4787 3042.06 33.4455 3049.43 33.1896C3049.81 33.1753 3050.19 33.0663 3050.57 33C3052.71 33.0047 3054.85 33.0047 3057 33.0047C3057.04 33.4739 3057.11 33.9384 3057.11 34.4075C3057.12 73.8183 3057.12 113.224 3057.12 152.635V154H3055.43C3005.8 154 2956.17 154 2906.54 154C2906.07 154 2905.59 153.976 2905.12 153.962V153.957Z" fill="#681127"/>
<path d="M4497.95 153.999C4497.95 134.642 4497.95 115.285 4497.95 95.928C4497.97 95.6649 4498.01 95.403 4498.01 95.14C4498.01 88.4284 4498.01 81.7168 4498.01 75.0053C4498.01 74.8017 4498.01 74.5992 4498.01 74.2984C4522.06 88.6846 4545.99 103 4569.96 117.339C4570.04 117.005 4570.1 116.746 4570.16 116.488C4572.82 105.446 4576.95 94.9009 4582.69 84.9079C4587.21 77.0514 4592.68 69.8355 4599.65 63.6477C4604.49 59.3484 4609.88 55.773 4615.95 53.1034C4621.39 50.7118 4627.1 49.1346 4633.08 48.5044C4635.69 48.2299 4638.33 48.1613 4640.95 48V154H4497.95V153.999Z" fill="#7F7B00"/>
<path d="M3381.94 147.73C3381.94 147.629 3381.94 147.528 3381.94 147.427V146.767H3381.94C3381.88 142.366 3381 137.906 3379.21 133.587C3376.23 126.412 3371.18 120.7 3365.03 116.848C3364.19 116.246 3363.39 115.601 3362.69 114.849C3362.19 114.315 3361.81 113.747 3361.42 112.909C3361.42 112.894 3361.41 112.885 3361.41 112.875C3361.36 112.764 3361.31 112.654 3361.27 112.538C3361.17 112.278 3361.1 112.018 3361.03 111.748C3360.89 111.18 3360.85 110.689 3360.89 110.034C3360.98 108.483 3361.82 107.058 3362.92 105.936C3363.03 105.815 3363.12 105.685 3363.17 105.551C3370.88 97.0174 3373.47 84.5643 3368.78 73.267C3365.93 66.3952 3360.58 60.7032 3353.86 57.3949C3350.5 55.7384 3346.84 54.6886 3343.11 54.3081C3338.8 53.8699 3335.12 54.939 3330.91 55.3483C3327.29 55.6998 3323.64 53.817 3321.66 50.8361C3319.29 47.2919 3316.73 44.2051 3313.17 41.701C3299.14 31.8387 3279.69 35.094 3269.71 48.9773C3263.1 58.1847 3262.33 69.7517 3266.65 79.378C3266.67 79.4887 3266.7 79.5947 3266.73 79.7054C3267.23 81.6895 3268.09 83.7842 3267.26 85.8019C3266.09 88.6431 3263.2 89.7411 3260.3 90.0204C3249.54 88.9706 3238.52 93.4924 3231.81 102.839C3227.83 108.377 3225.97 114.758 3226.05 121.062H3225.95V154C3225.95 154 3320.52 154 3320.52 153.99H3381.31H3381.52H3381.65H3381.95V147.73H3381.94ZM3361.39 112.851C3361.36 112.779 3361.36 112.779 3361.39 112.851V112.851Z" fill="#C0B991"/>
<path d="M347.567 50.004C335.008 47.8589 322.401 47.5124 309.72 48.6003C302.255 49.2407 294.828 50.0961 287.745 52.6711C285.486 53.4915 283.258 54.6803 281.346 56.141C278.675 58.1852 278.519 61.1989 280.999 63.4493C283.115 65.3707 285.59 66.9192 288.039 68.4151C293.697 71.863 299.589 74.9381 305.09 78.6098C309.529 81.5752 313.011 85.5847 314.207 91.1208C314.966 94.6257 314.584 98.0605 313.47 101.421C308.797 115.515 293.71 126.307 279.026 125.943C271.539 125.754 264.495 123.442 257.463 121.073C251.073 118.924 244.704 116.577 238.158 115.068C226.947 112.484 218.537 117.296 214.24 128.092C212.042 133.611 211.167 139.41 210.794 145.306C210.612 148.201 210.499 151.1 210.352 154H348.352V50.2497C348.143 50.14 347.883 50.0567 347.558 50.004H347.567Z" fill="#D17A00"/>
<path d="M130.475 74.8069V154H0C0 125.234 0 96.4727 0 67.707C0.0656975 67.2915 0.135501 66.872 0.197092 66.4565C0.948507 61.401 5.53912 57.2052 10.6348 57.0736C14.474 56.9749 18.3214 56.9831 22.1647 57.053C26.6568 57.1353 29.9704 59.2579 32.1261 63.1822C33.0294 64.8276 33.3661 66.6293 33.3949 68.4927C33.4236 70.2327 33.325 71.9892 33.5221 73.7086C34.1422 79.1261 39.0284 83.4 44.4772 83.4C47.5157 83.4 50.5542 83.3877 53.5927 83.4082C54.377 83.4123 55.1695 83.4699 55.9455 83.581C60.9344 84.305 64.9871 88.7064 65.3649 93.7413C65.4634 95.0453 65.4881 96.3863 65.8125 97.6409C67.0977 102.639 71.602 106.049 76.7634 106.049C79.7691 106.049 82.7747 106.053 85.7804 106.045C86.2895 106.045 86.7987 106.012 87.3037 105.946C92.9168 105.193 97.0927 100.409 97.0968 94.7409C97.0968 88.3485 97.0927 81.9521 97.105 75.5597C97.105 74.8069 97.1666 74.05 97.2815 73.3055C98.074 68.1759 102.722 64.0624 107.908 63.9678C111.702 63.8979 115.496 63.8938 119.29 63.9514C124.562 64.0337 128.944 67.5959 130.134 72.6802C130.299 73.3754 130.368 74.0953 130.483 74.8028L130.475 74.8069Z" fill="#F7422C"/>
<path d="M3690.22 73.8391V109.59C3690.22 114.05 3693.77 117.667 3698.13 117.667H3662.54C3658.17 117.667 3654.63 121.283 3654.63 125.743C3654.63 121.283 3651.09 117.667 3646.72 117.667C3651.09 117.667 3654.63 114.05 3654.63 109.59V89.4044C3654.63 84.9442 3651.09 81.328 3646.72 81.328H3626.94C3622.57 81.328 3619.03 84.9442 3619.03 89.4044V53.0764C3619.03 48.6162 3615.49 45 3611.12 45H3591.34C3586.97 45 3583.43 48.6162 3583.43 53.0764V89.4098C3583.43 84.9496 3579.89 81.3333 3575.51 81.3333H3547.82V154H3725.82V45H3698.13C3693.96 45 3690.55 48.3064 3690.25 52.4942L3690.22 73.8445V73.8391Z" fill="#D17A00"/>
<path d="M4104.61 125.698C4104.37 125.692 4104.14 125.686 4103.91 125.675C4096.58 125.367 4088.98 122.154 4085.16 115.762C4082.16 110.721 4081.88 104.534 4080.47 98.8142C4079.05 93.0946 4075.59 87.0331 4069.89 86.0703C4066.37 85.4778 4062.87 86.9989 4059.71 88.6795C4058.39 89.3859 4057.07 90.1322 4055.72 90.7873C4053.59 86.0475 4052.73 80.5671 4052.47 75.3032C4052.26 71.1672 4052.34 66.9743 4051.37 62.9523C4049.31 54.4924 4042.33 47.491 4034.01 45.554C4025.69 43.6228 4016.43 46.8472 4011 53.5638C4005 60.9869 4003.99 71.247 4003.23 80.8406C3996.3 77.7642 3988.04 76.7445 3981.28 80.2139C3974.53 83.6833 3970.25 92.5534 3973.42 99.5662C3974.95 102.962 3978.08 106.175 3977.16 109.798C3976.84 111.063 3976.04 112.156 3975.13 113.068C3969.29 118.901 3959.96 117.984 3951.8 117.711C3944.3 117.454 3936.75 118.087 3929.44 119.796C3928.5 120.012 3927.56 120.274 3926.61 120.548V154H4104.61V125.692V125.698Z" fill="#253465"/>
<path d="M4845.2 89.75C4845.2 78.8157 4838.47 65.7763 4830.67 58.1187C4824.09 51.6596 4814.58 42.3367 4798.62 42.0091C4765.18 41.3223 4776.78 79.875 4763.65 84.5252C4753.89 87.977 4744.07 78.9549 4732.7 74.5425C4730.64 73.7481 4728.53 73.3261 4726.42 73.187C4713.16 72.3252 4701.92 82.6445 4701.2 95.7288V154H4845.2V106.681V89.7455V89.75Z" fill="#C0B991"/>
<path d="M4589.78 153.986C4617.11 108.067 4642.58 100.157 4688.53 80.6335C4697.86 76.4711 4708.58 71.958 4715.09 63.6468C4719.86 57.5579 4719.45 49.9435 4717.68 42.8027C4717.13 41.1996 4716.52 39.9108 4716.03 39C4719.98 41.5412 4722.85 45.5761 4724.76 49.8433C4725.26 50.9591 4726.74 54.3564 4727.21 58.4278C4727.6 61.8024 4727.36 66.2836 4724.82 72.3906C4722.22 78.6525 4719.6 80.8294 4706.68 95.7167C4699.55 103.919 4695.82 108.464 4694.5 115.527C4693.85 119.002 4694.02 121.83 4694.13 123.046C4694.92 131.931 4699.92 137.929 4701.99 140.411C4712.55 153.076 4729.88 153.9 4732.78 154" fill="#253465"/>
<path d="M3299.3 112.119V154H3146.88V121.503C3146.88 100.208 3154.34 79.5456 3168.12 63.3401C3168.21 63.23 3168.31 63.1199 3168.4 63.0146C3174.85 55.4887 3182.24 48.8007 3190.39 43.1275C3191.06 42.668 3191.83 43.5536 3191.28 44.1473C3187.75 47.9294 3184.81 52.3386 3182.64 57.1979C3179.9 63.321 3178.37 70.1718 3178.37 77.3961C3178.37 103.526 3198.39 124.706 3223.09 124.706C3247.79 124.706 3267.8 103.526 3267.8 77.3961C3267.8 72.0246 3266.95 66.8589 3265.39 62.0427C3265.21 61.4874 3265.77 60.9799 3266.3 61.2145C3266.43 61.272 3266.56 61.3294 3266.68 61.3869C3286.6 70.3059 3299.3 90.2599 3299.3 112.124V112.119Z" fill="#7F7B00"/>
<path d="M2980.2 79V154H2824.2C2824.2 129.451 2824.2 104.946 2824.2 80.4411C2824.66 82.6569 2825.22 84.8511 2825.57 87.0815C2829.82 114.259 2844.52 133.934 2869.33 146.042C2875.1 148.851 2881.48 150.43 2887.58 152.573C2887.78 152.204 2887.98 151.842 2888.17 151.473C2878.29 146.534 2871.91 138.793 2869.79 128.184C2867.63 117.416 2870.28 107.611 2877.84 99.4572C2890.82 85.4449 2913.64 85.6477 2926.53 99.3196C2938.24 111.724 2940.74 138.257 2915.74 152.095C2917.6 151.777 2918.64 151.654 2919.64 151.415C2941.81 146.049 2958.47 133.434 2969.85 113.933C2976.16 103.136 2978.6 91.1947 2980.2 79.0145V79Z" fill="#87BDF1"/>
<rect x="5117.53" y="31" width="155" height="123" fill="#7F7B00"/>
<mask id="mask0_638_4736" style="mask-type:luminance" maskUnits="userSpaceOnUse" x="4982" y="0" width="155" height="154">
<path d="M5136.87 0L4982.42 0V154H5136.87V0Z" fill="white"/>
</mask>
<g mask="url(#mask0_638_4736)">
<path d="M4795.72 57.7587C4797.82 50.0727 4809.14 47.9835 4815.7 46.8642C4831.33 44.196 4847.59 44.8184 4863.34 45.7931C4886.62 47.2357 4924.5 64.4556 4947.57 67.7558C4991.22 73.9992 4989.46 51.4044 5013.21 57.2425C5028.08 60.8949 5036.23 81.7769 5049.8 79.8083C5059.08 78.4622 5066.85 73.5408 5064.52 54.5212C5062.54 38.3821 5077.09 26.8555 5092.33 26.8555C5104.43 26.8555 5109.81 29.7504 5115.55 35.4775C5130.65 50.5262 5111.09 74.6313 5094.55 58.1447C5086.79 50.4056 5083.11 65.961 5082.71 70.7521C5082.34 75.1861 5081.53 85.217 5091.43 89.3953C5101.71 93.7377 5104.13 79.2921 5123.57 79.2921C5137.9 79.2921 5167.91 76.9954 5167.91 107.585C5167.91 114.707 5183.82 110.2 5190.82 111.59C5197.27 112.868 5203.7 114.195 5210.13 115.57C5216.02 116.834 5221.91 118.142 5227.78 119.507C5233.14 120.757 5238.5 122.05 5243.84 123.406C5248.7 124.636 5253.55 125.92 5258.38 127.256C5262.76 128.472 5267.12 129.736 5271.47 131.063C5275.39 132.259 5279.3 133.509 5283.18 134.821C5286.67 136.004 5290.14 137.234 5293.59 138.532C5296.67 139.695 5299.73 140.91 5302.76 142.194C5305.45 143.337 5308.13 144.539 5310.76 145.808C5313.09 146.932 5315.4 148.114 5317.67 149.373C5319.67 150.483 5321.63 151.646 5323.55 152.886C5325.23 153.976 5326.88 155.124 5328.47 156.345C5329.87 157.416 5331.23 158.55 5332.51 159.751C5333.65 160.808 5334.73 161.923 5335.74 163.105C5336.63 164.152 5337.46 165.247 5338.22 166.4C5338.9 167.437 5339.5 168.518 5340.02 169.638C5340.5 170.665 5340.91 171.732 5341.23 172.817C5341.53 173.84 5341.75 174.882 5341.9 175.939C5342.04 176.952 5342.11 177.98 5342.11 179.003C5342.11 180.006 5342.05 181.01 5341.93 182.004C5341.81 182.993 5341.64 183.972 5341.42 184.947C5341.21 185.917 5340.95 186.877 5340.67 187.827C5340.38 188.773 5340.07 189.714 5339.73 190.64C5339.39 191.562 5339.04 192.479 5338.68 193.39C5338.33 194.288 5337.96 195.18 5337.59 196.073C5337.24 196.942 5336.88 197.815 5336.54 198.688C5336.21 199.532 5335.89 200.382 5335.59 201.236C5335.3 202.056 5335.03 202.881 5334.8 203.716C5334.79 203.745 5334.79 203.774 5334.78 203.802C5331.89 214.383 5307.23 218.142 5268.33 215.836C5264.44 215.604 5261.04 215.464 5259.37 215.744C5257.76 216.907 5255.82 217.809 5253.59 218.489C5251.36 219.17 5249.23 219.71 5248.46 220.472C5242.43 230.556 5210.1 224.81 5187.36 219.942C5195.62 221.746 5205.11 223.03 5213.37 224.834C5202.86 223.276 5191.76 219.84 5181.16 219.633C5178.86 220.299 5176.25 220.723 5173.38 220.931C5150.47 222.59 5111.4 210.557 5084.13 201.448C5078.02 199.793 5073.73 199.489 5069.44 199.19C5066.05 198.92 5062.52 198.572 5058.89 198.153C5018.92 193.545 4966.19 180.112 4945.92 158.83C4944.67 157.411 4944.56 156.307 4945.15 155.385C4945.75 154.463 4947.04 153.725 4948.59 153.04C4950.83 152.842 4954.11 152.866 4957.27 153.291C4915.41 142.377 4876.86 123.319 4851.4 103.884C4849.42 102.91 4847.49 101.935 4845.61 100.975C4811.74 83.6103 4792.91 68.1901 4795.76 57.7491L4795.72 57.7587Z" fill="#87BDF1"/>
</g>
<path fill-rule="evenodd" clip-rule="evenodd" d="M5341.55 153.991H5354.87H5354.88C5354.88 141.033 5350.34 128.319 5338.68 122.538L5339.81 119.182C5339.85 119.069 5339.89 118.956 5339.93 118.842C5350.21 88.2916 5332.86 54.908 5301.18 44.2728C5274.34 35.2599 5245.82 45.4747 5231.49 67.3937C5215.69 67.7805 5203.01 80.6911 5203.01 96.561C5203.01 105.086 5206.67 112.757 5212.5 118.092L5212.5 118.113L5200.43 153.997H5261.44L5261.45 154H5306.07L5306.08 153.997H5328.1L5328.1 153.997H5341.56L5341.55 153.991Z" fill="#253465"/>
<path d="M5002.73 87.9856V154H4850.73V114.682C4851.2 115.217 4851.44 115.502 4851.69 115.791C4856.92 121.908 4862.92 123.131 4869.62 118.771C4873.03 116.547 4876.19 113.661 4878.89 110.543C4886.36 101.908 4891.5 91.7117 4896.5 81.4366C4897.77 78.8298 4899.06 76.1838 4900.72 73.8372C4903.43 70.0129 4906.38 69.6201 4910.09 72.3938C4912.26 74.0139 4914.21 75.9432 4916.31 77.6516C4921.86 82.1485 4926.73 82.1632 4931.31 76.6894C4935.08 72.1778 4938.15 66.9888 4941.13 61.8488C4944.33 56.3456 4946.7 50.317 4950.11 44.9709C4952.66 40.96 4955.92 37.2339 4959.51 34.1607C4964.34 30.0124 4970.04 29.9683 4975.02 33.9055C4978.34 36.5368 4981.51 39.7474 4983.77 43.3508C4987.64 49.5414 4991.24 56.0265 4994.05 62.7914C4997.43 70.9702 4999.88 79.5711 5002.73 87.9856H5002.73Z" fill="#EFABAB"/>
<path d="M4267.95 123.711V153.981C4267.79 153.986 4267.62 154 4267.45 154C4219.15 154 4170.84 154 4122.54 154C4122.35 154 4122.16 154 4121.96 154V123.674H4177.56V116.124H4150.35V36H4238.89V116.147H4213.04V123.693C4213.35 123.693 4213.6 123.693 4213.86 123.693C4231.65 123.693 4249.45 123.693 4267.24 123.693C4267.48 123.693 4267.72 123.706 4267.96 123.711H4267.95Z" fill="#F7422C"/>
<path d="M4244.3 154H4387.65V93.5446C4377.13 78.4386 4370.89 75.6377 4367 76.6358C4364.61 77.2517 4363.78 79.1309 4361.03 79.1085C4355.05 79.0635 4353.14 70.1753 4348.02 70.409C4344.75 70.5574 4342.21 74.3384 4341.25 76.8426C4339.63 81.1091 4341.68 84.1618 4342.07 88.1811C4342.82 95.8105 4337.45 105.638 4328.48 109.622C4320.15 113.317 4310.11 111.317 4303.76 105.292C4298.43 100.225 4295.86 92.4656 4296.91 85.5915C4298.68 73.9113 4309.96 70.8092 4308.71 61.3769C4308.22 57.7128 4305.91 53.5587 4303.02 53.0506C4299.7 52.4662 4298.02 57.1104 4292.23 58.2838C4287.76 59.1919 4287.25 56.7237 4283.17 57.2542C4274.95 58.3197 4273.35 68.795 4265.03 69.3885C4262.14 69.5953 4261.8 68.3724 4259.49 68.5927C4255.22 68.9973 4249.73 73.7899 4244.3 92.9197V153.996V154Z" fill="#EFABAB"/>
<path d="M4536.39 54.0045C4536.94 54.0045 4537.49 54.0045 4538.03 54.0045C4538.1 54.0406 4538.15 54.0903 4538.22 54.1084C4539.63 54.5103 4540.38 55.3231 4540.48 56.6778C4540.53 57.3777 4540.53 58.0912 4540.43 58.7821C4539.99 61.636 4539.43 64.4764 4539.06 67.3348C4538.55 71.1777 4538.77 74.998 4539.75 78.7731C4541.26 84.6164 4544.4 89.6604 4548.57 94.2122C4548.78 94.4471 4548.93 94.8083 4548.93 95.1154C4548.95 114.546 4548.95 133.982 4548.95 153.413C4548.95 153.607 4548.95 153.797 4548.95 154H4391.95C4392.35 153.806 4392.64 153.688 4392.9 153.544C4394.43 152.704 4396.01 151.945 4397.44 150.993C4400.88 148.708 4403.7 145.899 4405.48 142.286C4406.22 140.796 4406.98 139.315 4407.81 137.87C4410.93 132.478 4414.47 127.348 4418.9 122.788C4421.9 119.708 4425.34 117.125 4429.27 115.106C4429.98 114.736 4430.81 114.492 4431.62 114.348C4432.76 114.14 4433.49 114.768 4433.43 115.838C4433.39 116.425 4433.28 117.021 4433.12 117.594C4432.64 119.473 4432.13 121.343 4432.12 123.289C4432.1 125.854 4432.62 128.319 4433.92 130.591C4434.87 132.252 4436.12 132.379 4437.45 130.952C4438.3 130.044 4439.06 129.046 4439.75 128.026C4442.11 124.526 4444.36 120.954 4446.78 117.486C4451.06 111.349 4456.09 105.736 4461.06 100.083C4464.84 95.7927 4469.35 92.3021 4474.63 89.7011C4475.89 89.0779 4477.28 88.6715 4478.62 88.1793C4478.83 88.1025 4479.08 88.098 4479.31 88.0754C4481.2 87.8903 4482.23 88.8521 4481.84 90.559C4481.5 92.0537 4481.02 93.5213 4480.56 94.9889C4478.74 100.85 4479.27 106.54 4482.04 112.054C4482.7 113.372 4483.54 114.592 4484.86 115.45C4486.05 116.231 4487.16 116.204 4488.3 115.368C4488.69 115.079 4489.1 114.768 4489.4 114.402C4490.46 113.115 4491.57 111.846 4492.51 110.482C4497.11 103.858 4500.95 96.8539 4504.71 89.8004C4507.8 83.9842 4510.99 78.2086 4514.28 72.4827C4516.42 68.7528 4518.88 65.1989 4522.29 62.2908C4525.04 59.9517 4527.91 57.7616 4531.14 56.0005C4532.79 55.0973 4534.53 54.42 4536.39 54V54.0045Z" fill="#87BDF1"/>
<path d="M3462.88 82H3491.61L3518.9 122.312C3519.85 123.705 3521.42 124.538 3523.1 124.538H3534.85V95.9467H3546.09C3548 95.9467 3549.75 97.0237 3550.62 98.727L3562.27 121.758C3563.14 123.462 3564.89 124.538 3566.79 124.538H3578.02V82L3606.82 82V154H3462.81L3462.88 82Z" fill="#EFABAB"/>
<path d="M2376.67 154L2511.67 154L2511.67 126.177L2376.67 126.177L2376.67 154Z" fill="#C0B991"/>
<path d="M2376.64 126.186L2511.64 126.186C2511.64 111.025 2499.58 98.75 2484.7 98.75L2376.64 98.75L2376.64 126.186Z" fill="#C0B991"/>
<path d="M2376.64 98.877L2484.7 98.877C2499.58 98.877 2511.64 86.602 2511.64 71.4414L2376.64 71.4414L2376.64 98.877Z" fill="#C0B991"/>
<path d="M2511.64 44L2403.58 44C2388.69 44 2376.64 56.2749 2376.64 71.4356L2511.64 71.4356L2511.64 44Z" fill="#C0B991"/>
<path d="M2414.13 153.996L2291.2 153.996C2291.19 153.778 2291.17 153.564 2291.17 153.345C2291.16 141.138 2291.17 128.93 2291.16 116.723C2291.16 113.407 2291.35 110.11 2291.84 106.826C2292.42 102.875 2293.35 99.0172 2294.68 95.2571C2298.52 84.4211 2304.82 75.3268 2313.61 68.0443C2323.74 59.6553 2335.38 55.0536 2348.43 54.1457C2352.14 53.8885 2355.85 53.9742 2359.56 54.3834C2362.72 54.7302 2365.82 55.3068 2368.89 56.1446C2377.49 58.498 2385.22 62.5659 2392.08 68.3405C2398.56 73.8033 2403.72 80.3415 2407.54 87.9591C2412 96.8508 2414.17 106.292 2414.16 116.259C2414.16 128.622 2414.16 140.986 2414.16 153.349C2414.16 153.567 2414.14 153.782 2414.13 154L2414.13 153.996Z" fill="#807B00"/>
<path d="M2015.07 84.7166V154H1858.09C1858.08 153.84 1858.07 153.76 1858.07 153.68C1858.07 150.656 1858.07 147.637 1858.07 144.613C1858.07 144.453 1858.08 144.293 1858.11 144.137C1858.56 142.03 1858.92 139.897 1859.49 137.824C1862.67 126.315 1868.9 116.948 1878.69 110.224C1881.85 108.046 1885.26 106.229 1888.59 104.297C1896.39 99.7608 1904.16 95.185 1911.57 90.0084C1915.11 87.5402 1918.57 84.9619 1921.59 81.8379C1922.78 80.6114 1923.88 79.3047 1924.57 77.7026C1925.43 75.7201 1924.99 74.1481 1923.19 73.0017C1921.67 72.0354 1919.99 71.5949 1918.21 71.5098C1915.68 71.3896 1913.25 71.9503 1910.87 72.7613C1907.04 74.063 1903.45 75.9404 1899.92 77.8929C1895.32 80.4311 1890.75 82.9994 1886.14 85.5076C1883.93 86.7141 1881.57 87.5302 1879.05 87.7755C1875.79 88.0909 1872.68 87.5903 1869.89 85.7579C1865.79 83.0695 1864.11 79.0444 1863.97 74.2482C1863.87 70.4634 1864.72 66.8638 1866.27 63.4394C1868.49 58.5232 1871.78 54.3779 1875.48 50.543C1880.61 45.2112 1886.41 40.7255 1892.72 36.9406C1903.74 30.3372 1915.48 25.9616 1928.36 25.1256C1933.43 24.7951 1938.46 25.0855 1943.4 26.3722C1950.21 28.1394 1956.13 31.4837 1960.89 36.8055C1965.56 42.0271 1968.33 48.18 1969.35 55.1439C1969.81 58.3029 1969.91 61.4769 1969.32 64.636C1968.37 69.7024 1965.84 73.8878 1962.35 77.5274C1959.07 80.9468 1955.24 83.6352 1951.2 86.0383C1945.71 89.3025 1939.91 91.9308 1934.12 94.5592C1929.46 96.6769 1924.75 98.7094 1920.31 101.293C1918 102.639 1915.78 104.111 1913.99 106.154C1913.03 107.245 1912.3 108.462 1912 109.914C1911.58 112.056 1912.29 113.924 1913.35 115.716C1914.01 116.828 1914.96 117.423 1916.19 117.629C1917.9 117.914 1919.56 117.619 1921.21 117.183C1925.08 116.162 1928.66 114.43 1932.14 112.477C1940.84 107.586 1948.7 101.503 1956.02 94.6943C1958.56 92.3363 1960.99 89.8431 1963.8 87.7955C1972.75 81.2722 1982.6 77.4924 1993.73 77.6125C2001.31 77.6976 2008.24 79.9155 2014.46 84.3561C2014.65 84.4913 2014.86 84.5914 2015.06 84.7066L2015.07 84.7166Z" fill="#EFABAB"/>
<path d="M2134.24 127.954C2117.67 58.0216 2057.4 59.9864 2043.34 61.447C2042.77 61.507 2042.67 62.3153 2043.2 62.5314C2046.7 63.944 2049.11 67.0612 2050.72 70.0864C2052.56 73.5438 2053.56 77.4053 2053.82 81.3429C2056.86 128.41 2011.2 127.838 2011.2 127.838V140.919V154H2134.25" fill="#87BDF1"/>
<path d="M2256.08 154C2239.31 135.751 2224.9 122.498 2215.06 113.92C2196.27 97.5535 2180.74 86.5669 2182.45 75.2112C2183.7 66.8686 2193.5 63.4724 2193.4 52.149C2193.39 51.037 2193.25 46.2058 2190.4 42.1683C2185.48 35.1961 2174.66 33.7057 2168.06 39.9165C2167.3 40.6225 2162.83 44.983 2162.63 51.7429C2162.37 60.6439 2169.82 63.5186 2169.66 69.1434C2169.34 79.8993 2141.78 79.8255 2126.14 96.9998C2118.28 105.633 2110.69 121.635 2112.06 154H2256.08Z" fill="#681127"/>
<path d="M1962.1 131.85C1960.45 139.343 1952.58 146.741 1952.18 154H2076.59C2076.22 142.945 2063.45 137.945 2059.32 128.572C2056.76 123.197 2057.25 117.03 2057.18 111.2C2057.43 101.189 2053.42 93.4826 2042.47 94.5434C2038.21 94.9511 2034.14 96.4196 2030 97.4052C2025.3 98.5847 2020.38 99.0201 2015.61 98.0583C2007.11 96.3365 1999.22 91.3214 1990.52 89.7975C1980.82 87.7273 1969.36 89.4531 1962.92 97.7535L1962.88 97.8168C1958.82 103.141 1958.07 110.645 1959.84 117.153C1961.19 121.922 1963.35 126.823 1962.1 131.854V131.85Z" fill="#D17A00"/>
<path fill-rule="evenodd" clip-rule="evenodd" d="M2203.29 110C2203.29 85.6995 2223.35 66 2248.09 66C2256.98 66 2265.27 68.5415 2272.24 72.9247C2275.95 71.3661 2280.03 70.5033 2284.33 70.5033C2299.01 70.5033 2311.3 80.6087 2314.36 94.1253C2323.38 99.3933 2329.42 109.059 2329.42 120.111C2329.42 120.331 2329.42 120.55 2329.42 120.768V154H2203.29V110Z" fill="#253465"/>
<path d="M1871.45 54.0202C1873.04 54.0202 1874.61 54.0202 1876.2 54.0202C1877.11 54.1814 1877.99 54.3628 1878.9 54.5442C1883.24 55.411 1887.18 57.1647 1890.8 59.6037C1892.74 60.9139 1894.78 62.2241 1896.27 63.9577C1898.58 66.6587 1900.63 69.642 1902.53 72.6656C1905.36 77.201 1907.48 82.0589 1908.56 87.2997C1908.95 89.1945 1909.69 91.0288 1909.4 93.0244C1909.12 95.02 1908.89 97.0155 1908.62 99.0111C1908.02 103.405 1906.35 107.316 1903.37 110.702C1901.85 112.456 1900.48 114.371 1899.16 116.286C1898.21 117.636 1898.29 118.08 1899.39 119.309C1904.51 124.974 1908.33 131.343 1910 138.781C1910.56 141.281 1911.59 143.7 1911.63 146.32C1911.63 147.409 1911.99 148.477 1912.17 149.565V154H1780.17C1780.17 153.657 1780.17 153.335 1780.17 152.992C1780.36 152.246 1780.54 151.501 1780.73 150.755C1781.78 146.562 1783.64 142.651 1785.73 138.882C1787.46 135.738 1789.73 132.875 1791.8 129.932C1793.12 128.058 1794.52 126.223 1795.85 124.349C1796.71 123.099 1796.67 122.998 1795.6 121.99C1794.81 121.245 1793.97 120.539 1793.24 119.733C1790.87 117.132 1788.49 114.532 1786.2 111.831C1785.31 110.783 1784.51 109.614 1783.95 108.364C1782.36 104.816 1781.33 101.128 1780.98 97.2373C1780.77 95.02 1780.56 92.843 1780.92 90.6257C1781.43 87.2997 1782.73 84.256 1784.16 81.2324C1786.53 76.1729 1789.57 71.5973 1794.05 68.0294C1799.85 63.3933 1806.77 62.0629 1813.96 61.7202C1816.72 61.5791 1819.51 62.1234 1822.28 62.1637C1824.53 62.204 1826.66 62.5668 1828.64 63.5948C1830.15 64.381 1831.61 65.2679 1833.02 66.2354C1835.99 68.2915 1839.09 70.1258 1842.48 71.5771C1842.74 71.2949 1842.99 71.0127 1843.26 70.7708C1846.58 67.5255 1849.81 64.1592 1853.28 61.055C1856.83 57.8903 1861 55.7335 1865.81 54.9071C1867.69 54.5846 1869.59 54.3024 1871.47 54L1871.45 54.0202Z" fill="#F7422C"/>
<path d="M1614.41 55.5117C1621.47 92.1234 1648.18 124.646 1695.57 154.001H1533.29C1580.4 124.815 1607.27 92.149 1614.41 55.5117Z" fill="#7F7B00"/>
<path d="M1630.82 39.0645C1630.89 48.0818 1623.44 55.5331 1614.38 55.5126C1605.75 55.4972 1598.15 48.005 1598.04 39.4227C1597.93 30.2109 1605.02 23.0411 1614.29 23.0002C1623.76 22.9592 1630.74 29.7401 1630.81 39.0645H1630.82Z" fill="#7F7B00"/>
<path d="M1416.02 68H1493.12C1540.53 68 1579.02 106.535 1579.02 154H1416.02V68Z" fill="#253465"/>
<path d="M1448.22 42.5873C1444.71 42.4072 1441.2 42.2028 1437.69 42.0763C1433.12 41.9157 1428.55 42.0179 1423.99 42.2953C1420.49 42.5094 1416.98 42.743 1413.5 43.1372C1409.58 43.58 1405.65 44.1201 1401.75 44.7673C1394.89 45.9109 1388.13 47.5606 1381.5 49.6774C1376.89 51.1519 1372.37 52.8599 1367.96 54.8405C1365.57 55.9159 1364.05 58.3053 1363.94 60.9525C1363.93 61.1423 1363.92 61.3369 1363.89 61.5316C1363.52 64.5194 1361.1 66.9136 1358.14 67.2202C1356.82 67.3565 1355.58 67.0986 1354.51 66.5487C1352.11 65.3175 1349.26 65.4927 1347.12 67.1278C1346.71 67.4392 1346.31 67.7506 1345.91 68.0669C1342.62 70.6509 1339.52 73.4441 1336.63 76.4612C1330.75 82.5732 1325.84 89.4006 1321.89 96.9238C1318.14 104.048 1315.37 111.547 1313.38 119.357C1312.19 124.048 1311.29 128.798 1310.66 133.596C1310.03 138.267 1309.64 142.958 1309.48 147.674C1309.46 148.433 1309.44 149.187 1309.41 149.946C1309.41 150.034 1309.37 150.122 1309.35 150.209V153.99L1309.36 154C1356.19 154 1403.02 154 1449.85 154H1450.35V42.7965C1449.64 42.7235 1448.93 42.6262 1448.22 42.5873Z" fill="#681127"/>
<path d="M1243.11 154C1244.31 151.286 1246.02 147.34 1248.02 142.542C1251.3 134.683 1252.97 130.679 1254.05 127.068C1255.11 123.522 1256.93 117.324 1257.19 109.232C1257.46 101.018 1256.08 92.4159 1254.91 85.1974C1254.79 84.4343 1254.59 83.2836 1254.57 81.6922C1254.54 79.1296 1254.54 73.1597 1258.76 68.0549C1259.96 66.6144 1263.48 62.3461 1269.25 62.0197C1275.02 61.6932 1279.04 65.529 1279.48 65.9534C1285.57 71.9559 1284.19 82.6593 1283.67 86.6745C1283.31 89.4208 1282.76 91.2407 1282.4 94.0237C1282.21 95.562 1282.11 96.6148 1282.09 97.9533C1282.06 101.161 1282.03 104.254 1283.72 106.955C1285.23 109.367 1288.5 112.109 1292.58 111.852C1297.58 111.533 1300.28 106.82 1300.71 106.082C1300.71 106.082 1304.14 100.091 1300.81 90.7674C1300.78 90.6817 1300.51 89.9349 1300.18 88.8944C1300.07 88.5475 1299.96 88.168 1299.83 87.7355C1299.56 86.801 1299.32 85.7034 1299.14 84.3119C1298.72 81.1209 1298.19 76.5547 1300.66 72.164C1301.22 71.1602 1302.68 68.6384 1305.69 67.0021C1310.24 64.5252 1315 65.8799 1316.17 66.2145C1324.4 68.569 1328.11 76.9546 1329.28 79.5907C1329.79 80.7332 1331.15 84.014 1331.9 91.3917C1333.01 102.209 1332.95 123.2 1333.74 127.586C1333.84 128.125 1334.28 130.675 1336.09 132.308C1336.48 132.65 1338.34 134.299 1340.81 133.883C1342.54 133.593 1343.61 132.414 1344.02 131.949C1345.65 130.108 1345.81 127.831 1345.94 125.611C1346.02 124.195 1345.87 122.735 1345.58 119.817C1345.37 117.715 1345.11 115.949 1345.81 113.77C1345.93 113.39 1346.07 112.958 1346.35 112.431C1346.35 112.431 1347.7 109.754 1350.77 108.71C1354.03 107.6 1357.57 109.334 1358.89 110.02C1368.24 114.879 1372.99 128.08 1373.11 136.821C1373.12 137.38 1373.11 138.229 1373.1 140.322C1373.1 140.93 1373.09 143.244 1373.09 145.329C1373.09 147.365 1372.99 150.381 1373 154C1358.53 154.008 1321.47 153.984 1307 154C1293.41 154.016 1256.71 153.98 1243.11 154Z" fill="#87BDF1"/>
<path d="M287.918 140.349C288.203 140.254 288.287 140 288.417 139.773C289.102 138.567 289.774 137.353 290.48 136.161C292.006 133.584 293.777 131.185 295.869 129.023C298.403 126.401 301.282 124.218 304.403 122.335C309.011 119.556 313.868 117.321 319.021 115.717C321.91 114.817 324.771 113.837 327.527 112.582C329.2 111.818 330.842 110.985 332.49 110.169C333.225 109.806 333.889 109.332 334.476 108.76C336.072 107.201 336.768 105.291 336.676 103.087C336.599 101.235 335.97 99.565 334.95 98.0272C334.385 97.1729 333.703 96.4093 332.968 95.6944C331.892 94.6483 330.729 93.7069 329.495 92.856C327.531 91.4961 325.548 90.1606 323.559 88.8356C320.409 86.7364 317.285 84.6024 314.364 82.1929C312.905 80.9899 311.499 79.7241 310.079 78.4793C309.06 77.5866 308.287 76.5022 307.654 75.3131C306.638 73.3988 306.016 71.3554 305.633 69.2353C305.32 67.5023 305.225 65.7588 305.32 64.0049C305.422 62.0591 305.798 60.1727 306.578 58.3734C306.954 57.5052 307.425 56.6892 308.009 55.943C309.049 54.6145 310.36 53.6381 311.935 53.0035C315.65 51.5006 319.415 51.4378 323.221 52.599C325.348 53.2476 327.344 54.1821 329.253 55.3014C330.588 56.086 331.896 56.9194 333.214 57.7353C334.04 58.2479 334.856 58.7779 335.689 59.28C336.205 59.5904 336.739 59.8763 337.277 60.1518C338.297 60.6818 339.386 60.9398 340.536 61.0061C341.562 61.0654 342.588 61.1142 343.615 61.0061C344.325 60.9328 345.017 60.7864 345.685 60.5353C347.21 59.9635 348.233 58.9104 348.774 57.3901C349.084 56.5184 349.203 55.6152 349.238 54.6947C349.302 53.0488 349.323 51.403 349.428 49.7606C349.709 45.3949 350.335 41.085 351.639 36.8902C352.254 34.9131 353.027 33.0022 354.04 31.189C355.055 29.3723 356.286 27.716 357.825 26.2968C359.818 24.4557 362.166 23.2806 364.778 22.5797C366.082 22.231 367.407 22.0148 368.753 22.0009C371.913 21.966 374.693 22.9807 377.097 25.0136C378.637 26.3142 379.874 27.8694 380.897 29.592C382.637 32.521 383.811 35.6698 384.5 38.9998C384.911 40.9979 385.122 43.0273 385.318 45.0567C385.526 47.2151 385.684 49.3805 386.088 51.5146C386.275 52.4909 386.514 53.4533 386.89 54.3774C387.167 55.0573 387.519 55.6989 387.997 56.2673C388.714 57.1146 389.614 57.6725 390.7 57.9341C391.515 58.1293 392.267 57.9933 392.97 57.554C393.445 57.2576 393.856 56.8845 394.172 56.4312C394.665 55.7233 395.164 55.012 395.578 54.2588C396.246 53.0453 396.861 51.8005 397.48 50.5591C398.777 47.9578 400.144 45.3949 401.779 42.9819C403.076 41.0676 404.534 39.2892 406.105 37.5911C408.07 35.4675 410.467 34.0693 413.248 33.3265C418.147 32.0224 422.924 32.3746 427.455 34.676C432.207 37.089 435.064 41.0048 436.196 46.1516C436.868 49.1992 436.604 52.2329 435.799 55.2282C435.145 57.6656 434.151 59.9635 432.956 62.1847C431.388 65.0963 429.507 67.8092 427.455 70.4035C425.015 73.4894 422.65 76.6277 420.467 79.8985C418.724 82.5172 417.086 85.1952 415.722 88.0336C414.973 89.5922 414.33 91.1893 413.856 92.856C413.075 95.6142 413.328 98.2852 414.467 100.893C415.515 103.293 417.132 105.263 419.117 106.95C421.669 109.116 424.608 110.514 427.845 111.337C430.984 112.135 434.172 112.435 437.402 112.254C440.017 112.108 442.565 111.623 444.997 110.594C447.127 109.691 449.37 109.248 451.697 109.321C454.273 109.402 456.691 110.061 458.86 111.473C461.95 113.481 463.524 116.355 463.711 119.992C463.83 122.328 463.327 124.563 462.516 126.739C462.259 127.422 461.985 128.106 461.661 128.761C460.853 130.397 460.705 132.116 460.93 133.884C461.183 135.899 461.848 137.796 462.67 139.644C463.363 141.199 464.171 142.695 465.053 144.153C465.334 144.617 465.63 145.073 465.918 145.53V154H287.918V140.355V140.349Z" fill="#87BDF1"/>
<path d="M1033.87 127.668L1059.82 154H930.824L956.773 127.668L930.824 51H1059.82L1033.87 127.668Z" fill="#F7422C"/>
<path d="M2625.15 128.05C2615.17 125.604 2604.05 126.907 2598.05 127.608C2592.34 128.277 2588.03 129.204 2582.65 127.17C2579.9 126.13 2577.8 124.669 2576.34 123.446C2575.92 123.074 2574.63 121.935 2573.92 120.581C2572.85 118.514 2573.34 116.31 2573.53 115.419C2574.05 113.116 2575.33 111.418 2576.59 110.129C2580.17 106.489 2584.41 105.294 2594.72 101.993C2600.25 100.225 2603 99.252 2603.8 98.9784C2609.57 96.9911 2614.94 93.1388 2617.52 87.8444C2619.52 83.752 2619.91 79.205 2620.8 74.7758C2621.68 69.4393 2623.6 64.0733 2623.06 58.6463C2621.92 47.7439 2612.01 39.8223 2601.81 36.0289C2593.35 32.747 2584.12 31.8923 2575.05 32.2439C2573.16 32.2776 2571.27 32.2965 2569.38 32.2502C2564.24 32.1786 2559.15 31.3955 2554.02 31.0861C2543.81 30.3956 2532.63 33.8438 2526.65 42.0243C2525.18 43.9652 2523.93 46.0514 2522.66 48.1207C2521.25 50.4469 2519.76 52.7499 2518.15 54.9708C2515.97 58.0148 2513.52 60.9346 2511.88 64.2123C2506.03 75.6915 2511.31 88.278 2521.89 95.3492C2528.09 99.7636 2535.78 101.422 2542.76 104.418C2553.35 108.961 2556.46 112.573 2557.9 116.689C2558.21 117.592 2559.95 122.874 2557.34 126.909C2557.02 127.414 2555.89 129.08 2553.81 130.029C2549.4 132.037 2545.46 128.652 2539.6 127.52C2532.38 126.122 2532.26 129.764 2523.21 130.063C2514.47 130.351 2505.46 126.482 2498.8 126.2C2497.08 126.128 2494.44 126.24 2492.49 127.936C2492.32 128.084 2492.16 128.24 2492 128.402V154H2493C2499.18 154.145 2508.29 153.941 2522.29 153.985C2557.11 153.958 2605.22 154.04 2638 153.956V133.62C2635.1 131.755 2630.76 129.427 2625.16 128.052L2625.15 128.05Z" fill="#F7422C"/>
<path d="M2750.26 154L2683 63.9935L2706.27 63.9935C2706.27 46.3243 2691.98 32 2674.35 32C2656.72 32 2642.44 46.3243 2642.44 63.9935L2665.7 63.9935L2598.45 154L2750.26 154Z" fill="#EFABAB"/>
<path d="M3953.91 116.406C3919.95 116.406 3892.41 88.466 3892.41 54V154H4015.41V54C4015.41 88.466 3987.88 116.406 3953.91 116.406Z" fill="#681127"/>
<path d="M3763.45 151.321C3763.88 149.854 3764.92 149.015 3766.36 148.557C3766.84 148.401 3767.32 148.202 3767.76 147.962C3768.31 147.666 3768.42 147.256 3768.08 146.738C3767.84 146.384 3767.53 146.081 3767.24 145.752C3766.81 145.245 3766.32 144.776 3765.95 144.218C3765.01 142.751 3765.67 140.837 3767.33 140.234C3767.94 140.013 3768.61 139.931 3769.26 139.791C3769.7 139.695 3770.16 139.632 3770.41 139.189C3770.71 138.638 3770.53 138.01 3769.99 137.581C3769.24 136.986 3768.51 136.38 3767.79 135.752C3767.13 135.164 3767.09 134.414 3767.33 133.631C3767.56 132.88 3768.08 132.444 3768.88 132.33C3769.74 132.204 3770.59 132.208 3771.41 132.503C3771.88 132.67 3772.33 132.659 3772.73 132.326C3773.18 131.942 3773.2 131.602 3772.75 131.221C3772.12 130.693 3771.47 130.197 3770.83 129.676C3770.28 129.229 3769.88 128.697 3769.83 127.962C3769.74 126.698 3770.64 125.674 3771.93 125.611C3772.71 125.571 3773.49 125.604 3774.27 125.53C3775 125.46 3775.2 125.039 3774.78 124.462C3774.54 124.126 3774.17 123.871 3773.83 123.612C3773.54 123.394 3773.2 123.25 3772.92 123.032C3771.51 121.916 3771.83 119.854 3773.54 119.255C3774.37 118.963 3775.24 118.801 3776.11 118.627C3777.07 118.431 3777.41 117.64 3776.77 116.908C3776.47 116.569 3776.05 116.332 3775.69 116.047C3775.15 115.619 3774.58 115.227 3774.1 114.747C3773.45 114.096 3773.16 113.302 3773.53 112.396C3773.89 111.509 3774.65 111.158 3775.56 111.077C3776.33 111.007 3777.12 111.018 3777.9 110.955C3778.26 110.926 3778.65 110.863 3778.98 110.707C3779.54 110.441 3779.6 109.935 3779.22 109.458C3778.64 108.753 3777.93 108.22 3777.05 107.925C3776.42 107.71 3775.86 107.378 3775.44 106.846C3774.94 106.21 3774.78 105.526 3775.11 104.773C3775.43 104.03 3776.05 103.679 3776.84 103.62C3777.39 103.579 3777.95 103.583 3778.51 103.579C3779.57 103.579 3780.5 102.991 3780.86 102.086C3781.09 101.502 3781.03 100.959 3780.51 100.56C3779.96 100.127 3779.38 99.7356 3778.79 99.3587C3778.11 98.9337 3777.64 98.372 3777.41 97.6181C3777.12 96.6794 3777.49 95.9182 3778.41 95.5228C3779.18 95.1865 3780 95.2567 3780.81 95.2715C3781.38 95.2826 3781.98 95.3343 3782.21 94.6765C3782.44 93.9965 3781.83 93.7268 3781.43 93.3757C3781.21 93.1909 3780.97 93.0394 3780.77 92.8472C3779.75 91.8716 3779.8 90.4304 3780.88 89.5028C3781.68 88.8118 3782.65 88.6085 3783.67 88.5457C3784.12 88.5161 3784.58 88.4792 3785.01 88.3572C3785.82 88.1281 3786.04 87.3594 3785.45 86.7756C3784.98 86.3099 3784.41 85.9293 3783.87 85.5376C3783.14 85.0091 3782.67 84.3328 3782.59 83.4422C3782.43 81.7201 3783.6 80.4156 3785.38 80.3048C3786.09 80.2604 3786.8 80.2826 3787.5 80.2087C3788.55 80.1015 3789.05 79.1592 3788.55 78.2316C3788.39 77.9286 3788.13 77.6662 3787.87 77.4149C3787.35 76.8902 3786.76 76.4171 3786.26 75.8665C3785.66 75.2013 3785.36 74.3957 3785.5 73.494C3785.7 72.1489 3786.93 71.3211 3788.39 71.5428C3788.83 71.6093 3789.26 71.7719 3789.69 71.8828C3790.04 71.9715 3790.38 72.0786 3790.74 72.1341C3791.1 72.1895 3791.42 72.0676 3791.62 71.7313C3791.81 71.4024 3791.63 71.1363 3791.45 70.8776C3791.14 70.4268 3790.79 69.9981 3790.5 69.5325C3789.89 68.5495 3789.63 67.5295 3790.41 66.5169C3791.21 65.4822 3792.31 65.3677 3793.5 65.6263C3793.92 65.7187 3794.32 65.9109 3794.74 66.0218C3795.02 66.0957 3795.34 66.1844 3795.61 66.1289C3796.43 65.9663 3796.73 65.2272 3796.27 64.4881C3795.68 63.5384 3795.41 62.511 3795.41 61.4135C3795.4 59.9242 3796.6 58.9486 3798.11 59.211C3798.82 59.3366 3799.45 59.6434 3799.98 60.1238C3800.41 60.5118 3800.83 60.922 3801.28 61.2878C3802.16 62.0048 3803.13 61.7424 3803.47 60.667C3803.7 59.9205 3803.81 59.1408 3803.98 58.3795C3804.05 58.0617 3804.12 57.7402 3804.24 57.4409C3804.77 56.0477 3806.39 55.5044 3807.64 56.3618C3808.18 56.735 3808.63 57.2598 3809.03 57.7882C3809.49 58.4017 3809.87 59.0816 3810.24 59.7542C3810.74 60.6448 3811.54 60.7594 3812.22 59.9649C3812.45 59.6914 3812.61 59.3366 3812.73 58.9966C3813 58.276 3813.21 57.5332 3813.46 56.8089C3813.56 56.517 3813.7 56.2361 3813.84 55.959C3814.81 54.0373 3817.03 54.248 3818.14 55.5303C3818.84 56.3359 3819.03 57.3152 3819.22 58.3056C3819.25 58.4645 3819.28 58.6234 3819.32 58.7823C3819.41 59.174 3819.49 59.5842 3820 59.6655C3820.54 59.7542 3821.08 59.4992 3821.32 59.0114C3821.44 58.7491 3821.52 58.4571 3821.59 58.1726C3821.86 57.245 3822.14 56.3248 3822.8 55.5746C3823.8 54.4438 3825.31 54.4475 3826.26 55.6153C3826.52 55.9331 3826.74 56.2989 3826.9 56.6759C3827.15 57.2598 3827.34 57.8695 3827.54 58.4682C3827.64 58.7491 3827.7 59.0373 3827.8 59.3145C3828.03 59.9981 3828.28 60.2014 3828.83 60.1681C3829.45 60.1275 3829.9 59.7505 3829.99 59.126C3830.1 58.398 3830.12 57.6515 3830.26 56.9309C3830.38 56.3285 3830.57 55.7298 3830.8 55.157C3831.09 54.4253 3831.65 53.9856 3832.5 54.0004C3833.37 54.0151 3834.14 54.3071 3834.47 55.1423C3834.72 55.7927 3834.82 56.5096 3834.93 57.2043C3835.01 57.7143 3835.01 58.2354 3835.05 58.7491C3835.09 59.3071 3835.24 59.8281 3835.66 60.2309C3836.12 60.6596 3836.6 60.534 3836.81 59.9538C3837.12 59.1223 3837.38 58.2686 3837.76 57.4741C3838.18 56.6168 3838.8 55.8998 3839.79 55.6412C3841.38 55.2273 3842.9 56.2472 3843.17 57.8695C3843.25 58.3056 3843.37 58.7343 3843.49 59.1556C3843.63 59.6101 3843.93 59.9205 3844.44 59.9907C3844.96 60.0646 3845.3 59.7986 3845.56 59.4032C3846 58.7343 3846.4 58.0321 3846.89 57.4002C3847.26 56.9124 3847.7 56.4431 3848.2 56.0809C3849.09 55.4342 3850.15 55.5414 3850.88 56.3507C3851.29 56.8052 3851.58 57.3706 3851.89 57.9065C3852.17 58.3795 3852.35 58.9006 3852.65 59.3625C3853.15 60.1607 3853.66 60.1201 3854.08 59.2849C3854.4 58.6382 3854.69 57.9693 3855.07 57.3522C3855.58 56.5355 3856.32 56.0292 3857.34 56.0698C3858.26 56.1068 3858.93 56.6094 3859.39 57.3411C3859.74 57.888 3859.97 58.5051 3860.29 59.0743C3860.44 59.3366 3860.63 59.6027 3860.88 59.7727C3861.35 60.1053 3861.83 59.9575 3862.12 59.4586C3862.39 59.0114 3862.61 58.5384 3862.92 58.1245C3864.08 56.5835 3865.98 56.517 3867.28 57.9619C3867.56 58.2834 3867.79 58.653 3868.05 58.9966C3868.23 59.2332 3868.4 59.4845 3868.61 59.6877C3869.14 60.2014 3869.75 60.2531 3870.3 59.7653C3870.73 59.381 3871.07 58.9043 3871.44 58.4608C3871.54 58.3462 3871.6 58.2095 3871.69 58.0876C3872.76 56.5724 3874.62 56.5318 3875.76 58.0137C3876.18 58.568 3876.41 59.1962 3876.47 59.8946C3876.51 60.2864 3876.6 60.6855 3876.74 61.055C3877.03 61.8311 3877.87 62.0195 3878.48 61.4615C3878.69 61.2731 3878.86 61.0366 3879.03 60.8185C3879.22 60.5894 3879.38 60.3381 3879.58 60.1201C3880.36 59.2664 3881.42 58.9819 3882.4 59.3477C3883.31 59.6951 3883.84 60.534 3883.87 61.6796C3883.87 62.1674 3883.86 62.6552 3883.89 63.143C3883.96 64.2701 3884.57 64.6692 3885.65 64.2738C3886.3 64.0373 3886.91 63.7121 3887.56 63.4867C3888.7 63.0949 3889.6 63.3869 3890.22 64.2812C3890.65 64.9131 3890.69 65.5709 3890.38 66.2583C3890.09 66.8902 3889.78 67.5184 3889.5 68.1503C3889.41 68.3388 3889.33 68.5347 3889.3 68.7342C3889.16 69.6101 3889.88 70.1903 3890.73 69.8946C3891.48 69.6322 3892.21 69.3329 3892.97 69.0964C3893.52 68.9264 3894.07 68.9707 3894.59 69.2516C3895.51 69.7579 3895.85 70.667 3895.47 71.6795C3895.12 72.6219 3894.55 73.3979 3893.7 73.9633C3893.56 74.0557 3893.42 74.1444 3893.29 74.2479C3893.02 74.4585 3892.87 74.7246 3893.03 75.0609C3893.19 75.4046 3893.48 75.6004 3893.87 75.5265C3894.13 75.4785 3894.39 75.375 3894.61 75.2309C3895.17 74.8576 3895.68 74.4179 3896.25 74.0631C3896.69 73.7896 3897.17 73.5162 3897.66 73.4053C3899.63 72.9656 3901.16 74.7283 3900.53 76.6499C3900.33 77.256 3899.96 77.7549 3899.46 78.1577C3898.73 78.7453 3897.99 79.3292 3897.27 79.9315C3897.01 80.1533 3896.85 80.4415 3897.05 80.7963C3897.24 81.1326 3897.54 81.2693 3897.92 81.1917C3898.11 81.1547 3898.29 81.0808 3898.48 81.0291C3899.07 80.8591 3899.65 80.6448 3900.25 80.5376C3901.04 80.3935 3901.82 80.5598 3902.53 80.9071C3903.64 81.4504 3904.01 83.1762 3903.25 84.3365C3903 84.7283 3902.64 85.0646 3902.28 85.375C3901.69 85.896 3901.05 86.3727 3900.44 86.8716C3900.12 87.1303 3899.87 87.426 3900.07 87.8657C3900.22 88.2205 3900.61 88.324 3901.17 88.2057C3902.13 87.9951 3903.1 87.777 3904.07 87.596C3904.84 87.4518 3905.6 87.5036 3906.33 87.8288C3907.47 88.3424 3907.96 89.3144 3907.68 90.5154C3907.51 91.2434 3907.17 91.8864 3906.58 92.352C3906.06 92.7548 3905.48 93.0763 3904.94 93.4459C3904.6 93.6787 3904.21 93.8857 3903.95 94.1924C3903.45 94.791 3903.85 95.6891 3904.65 95.7297C3905.05 95.7519 3905.48 95.6595 3905.88 95.5338C3906.72 95.2641 3907.56 95.1532 3908.45 95.2678C3910.12 95.4821 3910.95 96.6425 3910.57 98.2611C3910.31 99.3365 3909.64 100.076 3908.66 100.6C3907.96 100.97 3907.3 101.402 3906.64 101.835C3906.36 102.019 3906.04 102.249 3906.23 102.666C3906.44 103.128 3906.74 103.564 3907.32 103.523C3908.12 103.468 3908.92 103.309 3909.72 103.224C3910.36 103.154 3911.02 103.013 3911.64 103.106C3913.17 103.331 3914.01 105.209 3913.14 106.484C3912.8 106.994 3912.26 107.389 3911.76 107.781C3911.37 108.08 3910.9 108.272 3910.49 108.546C3910.01 108.867 3909.88 109.303 3910.08 109.732C3910.25 110.109 3910.62 110.253 3911.2 110.127C3912.26 109.894 3913.26 110.079 3914.22 110.545C3915.87 111.35 3916.2 113.165 3914.89 114.44C3914.37 114.939 3913.72 115.305 3913.1 115.693C3912.68 115.955 3912.22 116.144 3911.79 116.373C3911.45 116.55 3911.25 116.809 3911.35 117.204C3911.45 117.603 3911.78 117.648 3912.13 117.651C3913.2 117.662 3914.27 117.607 3915.33 117.714C3916.96 117.88 3917.68 119.41 3916.84 120.8C3916.41 121.513 3915.77 121.979 3915.01 122.33C3914.4 122.614 3913.8 122.917 3913.2 123.22C3913.09 123.279 3912.94 123.35 3912.88 123.453C3912.79 123.638 3912.68 123.878 3912.73 124.048C3912.77 124.177 3913.05 124.307 3913.23 124.318C3913.87 124.362 3914.52 124.344 3915.16 124.377C3916.4 124.444 3917.44 124.861 3918.14 125.937C3919.13 127.485 3918.55 129.229 3916.81 129.88C3916.5 129.994 3916.17 130.075 3915.89 130.238C3915.51 130.464 3915.13 130.715 3914.82 131.022C3914.42 131.424 3914.36 131.89 3914.6 132.274C3914.88 132.725 3915.3 132.899 3915.83 132.836C3916.99 132.696 3918.14 132.729 3919.25 133.139C3920.12 133.461 3920.79 133.989 3920.85 134.976C3920.91 135.741 3920.55 136.376 3919.96 136.831C3919.38 137.285 3918.72 137.644 3918.09 138.036C3917.92 138.135 3917.73 138.198 3917.56 138.291C3917.03 138.594 3916.62 138.996 3916.63 139.65C3916.63 140.334 3916.97 140.859 3917.59 141.136C3918.22 141.421 3918.88 141.609 3919.53 141.846C3920.06 142.041 3920.62 142.197 3921.12 142.455C3922.43 143.128 3922.63 144.75 3921.48 145.659C3920.82 146.18 3920.03 146.535 3919.29 146.964C3919.16 147.038 3918.98 147.064 3918.9 147.167C3918.76 147.337 3918.57 147.566 3918.59 147.747C3918.61 147.951 3918.81 148.228 3919 148.305C3919.32 148.435 3919.7 148.46 3920.06 148.472C3921.85 148.527 3922.96 149.403 3923.37 151.121C3923.39 151.191 3923.42 151.258 3923.44 151.328V153.989C3923.23 153.993 3923.02 154 3922.81 154C3869.86 154 3816.92 154 3763.98 154C3763.8 154 3763.62 153.993 3763.44 153.989C3763.44 153.102 3763.44 152.215 3763.44 151.328L3763.45 151.321Z" fill="#7F7B00"/>
<path d="M4055.79 154L4064.28 118.093C4066.44 108.939 4075.55 103.133 4084.87 104.966L4101.66 108.268C4106.27 109.177 4111.05 108.223 4114.95 105.621L4132.38 93.9834C4140.95 88.2588 4152.65 91.0454 4157.65 100.007L4187.79 153.992" fill="#C0B991"/>
<path d="M4454.52 154V135.15C4450.57 134.763 4446.59 134.598 4442.63 134.551C4440.41 134.519 4437.89 134.459 4435.82 133.876C4431.59 132.717 4431.75 130.404 4435.09 128.456C4438.14 126.598 4441.88 125.893 4445.09 123.958C4449.2 121.66 4451.84 116.927 4448.14 112.926C4445.54 109.644 4438.47 108.304 4437.32 104.336C4436.77 99.4961 4447.14 97.8673 4449.01 94.0891C4451.3 90.1443 4446.3 86.4915 4446.35 82.5841C4446.29 79.7644 4448.22 77.0157 4448.04 74.1352C4447.78 70.5224 4445.23 68.0578 4441.73 66.4497C4436.15 64.1389 4429.18 64.6 4424.12 67.7659C4420.83 69.7435 4418.32 72.9146 4416.14 76.0598C4410.67 84.2168 4404.84 84.3666 4395.57 84.2142C4388.58 84.439 4368.03 82.9367 4366.39 91.706C4366.21 94.4702 4368.96 96.3987 4371.36 97.3894C4379.43 100.529 4388.38 99.3114 4396.85 99.9715C4399.52 100.292 4403.07 101.48 4401.03 103.455C4398.6 105.353 4394.14 105.541 4390.95 105.553C4381.96 105.586 4372.98 105.482 4364.05 105.626C4356.01 105.881 4347.55 106.369 4340.24 109.988C4335.5 112.311 4332.23 117.373 4336.53 121.772C4345.56 130.179 4366.13 128.67 4377.97 128.894C4382.47 128.983 4387.13 128.664 4391.57 129.139C4394.05 129.352 4399.09 131.199 4395.08 133.239C4392.65 134.386 4389.37 134.511 4386.61 134.508C4375.67 134.511 4364.73 134.508 4353.8 134.508C4344.44 134.475 4334.96 134.383 4325.71 135.781V154H4454.52H4454.52Z" fill="#D17A00"/>
<path d="M4898.61 130.194C4883.02 66.2778 4826.32 68.0736 4813.1 69.4085C4812.56 69.4634 4812.46 70.2022 4812.96 70.3997C4816.25 71.6907 4818.53 74.5398 4820.04 77.3048C4821.77 80.4648 4822.71 83.9941 4822.95 87.593C4825.81 130.611 4782.86 130.088 4782.86 130.088V154H4898.62" fill="#F7422C"/>
<path d="M4965.62 154C4965.62 154 5003.09 137.153 5000.11 106.646C4995.9 63.5338 5116.43 154 5116.43 154H4965.62Z" fill="#D17A00"/>
<path d="M5471.44 92.6094L5317.01 92.6094V153.999H5471.44V92.6094Z" fill="#C0B991"/>
<path d="M5317.01 92.606C5316.74 89.8848 5324.56 85.38 5326.78 84.1088C5328.38 83.1904 5333.68 80.3048 5341.66 79.2753C5347.63 78.5068 5352.87 79.4058 5363.08 81.2425C5369.12 82.3252 5369.77 82.6974 5381.48 85.1818C5392.04 87.4197 5397.32 88.5411 5399.99 88.7634C5404.19 89.1114 5413.74 89.8654 5424.63 86.6173C5429.77 85.0851 5435.36 82.6056 5444.92 81.6389C5446.61 81.4697 5447.45 81.3827 5448.46 81.3682C5459.44 81.2425 5471.78 88.9616 5471.44 92.6108C5470.28 105.057 5318.15 104.284 5317.01 92.606Z" fill="#C0B991"/>
</svg>
