<svg width="1749" height="1339" viewBox="0 0 1749 1339" fill="none" xmlns="http://www.w3.org/2000/svg">
<path d="M23.6246 9.18668H54.3051C59.3955 9.18668 64.1749 9.71645 68.6434 10.776C73.1349 11.8355 77.2579 13.3788 81.0123 15.4057C84.7898 17.4096 88.1642 19.8627 91.1355 22.7649C94.1068 25.6441 96.6175 28.9148 98.6674 32.5771C100.74 36.2394 102.318 40.2587 103.401 44.6351C104.506 48.9884 105.059 53.6412 105.059 58.5933C105.059 63.5455 104.506 68.2098 103.401 72.5861C102.318 76.9394 100.74 80.9473 98.6674 84.6096C96.6175 88.2489 94.1068 91.5196 91.1355 94.4218C88.1642 97.324 84.7898 99.7771 81.0123 101.781C77.2579 103.785 73.1349 105.328 68.6434 106.411C64.1749 107.47 59.3955 108 54.3051 108H23.6246V9.18668ZM54.3396 98.0841C60.4896 98.0841 66.0406 97.1743 70.9928 95.3547C75.945 93.512 80.1486 90.8862 83.6036 87.4772C87.0816 84.0453 89.7535 79.8992 91.6192 75.0392C93.4849 70.1561 94.4178 64.6742 94.4178 58.5933C94.4178 52.5125 93.4849 47.0421 91.6192 42.182C89.7535 37.299 87.0816 33.1529 83.6036 29.744C80.1486 26.312 75.945 23.6862 70.9928 21.8666C66.0406 20.0239 60.4896 19.1026 54.3396 19.1026H34.0587V98.0841H54.3396ZM128.137 20.9337H116.044V6.87183H128.137V20.9337ZM127.238 108H116.942V31.817H127.238V108ZM209.884 31.817L180.378 108H164.693L135.567 31.817H146.312L172.674 101.194L199.381 31.817H209.884ZM229.492 20.9337H217.4V6.87183H229.492V20.9337ZM228.594 108H218.298V31.817H228.594V108ZM271.058 29.744C275.895 29.744 280.26 30.3083 284.153 31.437C288.046 32.5656 291.362 34.1779 294.103 36.274C296.844 38.347 298.952 40.8691 300.426 43.8404C301.923 46.7887 302.672 50.0825 302.672 53.7218H292.618C292.618 51.4645 292.099 49.4145 291.063 47.5719C290.049 45.7292 288.598 44.1514 286.71 42.8385C284.844 41.5256 282.575 40.5121 279.903 39.7981C277.254 39.084 274.306 38.727 271.058 38.727C268.041 38.727 265.231 39.0495 262.628 39.6944C260.048 40.3163 257.803 41.2031 255.891 42.3548C254.002 43.5065 252.517 44.9 251.434 46.5354C250.374 48.1477 249.845 49.9443 249.845 51.9252C249.845 53.3532 250.121 54.6086 250.674 55.6911C251.25 56.7507 252.021 57.672 252.989 58.4551C253.979 59.2383 255.131 59.9062 256.444 60.459C257.78 61.0118 259.208 61.4955 260.728 61.9101C262.248 62.3017 263.837 62.6472 265.496 62.9467C267.177 63.2461 268.836 63.5225 270.471 63.7759L275.274 64.536C277.416 64.8815 279.65 65.273 281.976 65.7107C284.303 66.1253 286.583 66.6781 288.817 67.3691C291.051 68.0601 293.182 68.9238 295.209 69.9603C297.236 70.9968 299.009 72.2867 300.53 73.8299C302.05 75.3732 303.259 77.2274 304.157 79.3925C305.056 81.5346 305.505 84.0683 305.505 86.9935C305.505 90.6789 304.756 93.9496 303.259 96.8058C301.762 99.6619 299.585 102.08 296.729 104.061C293.896 106.019 290.418 107.505 286.295 108.518C282.195 109.555 277.531 110.073 272.302 110.073C266.889 110.073 262.075 109.52 257.86 108.415C253.668 107.332 250.133 105.754 247.253 103.681C244.374 101.585 242.175 99.017 240.654 95.9766C239.157 92.9131 238.409 89.4236 238.409 85.5079H248.497C248.497 87.9955 249.015 90.2067 250.052 92.1415C251.112 94.0533 252.643 95.6771 254.647 97.0131C256.674 98.349 259.162 99.3625 262.11 100.053C265.058 100.744 268.444 101.09 272.268 101.09C275.815 101.09 279.016 100.791 281.873 100.192C284.729 99.5698 287.159 98.6715 289.163 97.4968C291.19 96.3221 292.744 94.871 293.827 93.1435C294.91 91.4159 295.451 89.4466 295.451 87.2354C295.451 85.5539 295.151 84.0913 294.553 82.8475C293.954 81.5807 293.124 80.4866 292.065 79.5653C291.005 78.6439 289.762 77.8608 288.333 77.2159C286.905 76.5479 285.362 75.9836 283.704 75.5229C282.045 75.0392 280.306 74.6246 278.487 74.2791C276.667 73.9336 274.847 73.6111 273.028 73.3117L268.294 72.517C266.267 72.1715 264.16 71.7915 261.972 71.3769C259.784 70.9623 257.63 70.4325 255.511 69.7876C253.392 69.1426 251.376 68.348 249.465 67.4036C247.576 66.4592 245.906 65.2961 244.455 63.9141C243.027 62.509 241.887 60.8506 241.034 58.9388C240.182 57.0271 239.756 54.7698 239.756 52.167C239.756 48.7581 240.505 45.6716 242.002 42.9076C243.522 40.1436 245.653 37.7942 248.394 35.8594C251.135 33.9015 254.428 32.3928 258.275 31.3333C262.121 30.2738 266.383 29.744 271.058 29.744ZM326.665 20.9337H314.572V6.87183H326.665V20.9337ZM325.766 108H315.47V31.817H325.766V108ZM336.583 69.8912C336.583 65.8834 336.974 62.1059 337.757 58.5588C338.541 55.0116 339.669 51.7524 341.143 48.7811C342.641 45.8098 344.449 43.1494 346.568 40.8C348.71 38.4276 351.128 36.4237 353.823 34.7883C356.518 33.1529 359.466 31.9091 362.668 31.0569C365.87 30.1816 369.29 29.744 372.929 29.744C376.569 29.744 379.989 30.1816 383.191 31.0569C386.392 31.9091 389.329 33.1529 392.001 34.7883C394.696 36.4237 397.103 38.4276 399.222 40.8C401.364 43.1494 403.172 45.8098 404.646 48.7811C406.144 51.7524 407.284 55.0116 408.067 58.5588C408.85 62.1059 409.242 65.8834 409.242 69.8912C409.242 73.899 408.85 77.6765 408.067 81.2237C407.284 84.7708 406.144 88.0416 404.646 91.0359C403.172 94.0072 401.364 96.6676 399.222 99.017C397.103 101.366 394.696 103.37 392.001 105.029C389.329 106.664 386.392 107.908 383.191 108.76C379.989 109.635 376.569 110.073 372.929 110.073C369.313 110.073 365.893 109.635 362.668 108.76C359.466 107.908 356.518 106.664 353.823 105.029C351.128 103.37 348.71 101.366 346.568 99.017C344.449 96.6676 342.641 94.0072 341.143 91.0359C339.669 88.0416 338.541 84.7708 337.757 81.2237C336.974 77.6765 336.583 73.899 336.583 69.8912ZM346.879 69.8912C346.879 74.6131 347.489 78.8858 348.71 82.7093C349.931 86.5098 351.67 89.746 353.927 92.4179C356.207 95.0667 358.948 97.1167 362.15 98.5678C365.374 99.9959 368.968 100.71 372.929 100.71C376.914 100.71 380.507 99.9959 383.709 98.5678C386.911 97.1167 389.64 95.0667 391.897 92.4179C394.155 89.746 395.894 86.5098 397.115 82.7093C398.335 78.8858 398.946 74.6131 398.946 69.8912C398.946 65.1463 398.335 60.8852 397.115 57.1077C395.894 53.3072 394.155 50.071 391.897 47.3991C389.64 44.7272 386.911 42.6773 383.709 41.2492C380.507 39.8211 376.914 39.1071 372.929 39.1071C368.968 39.1071 365.374 39.8211 362.15 41.2492C358.948 42.6773 356.207 44.7272 353.927 47.3991C351.67 50.071 349.931 53.3072 348.71 57.1077C347.489 60.8852 346.879 65.1463 346.879 69.8912ZM430.361 108H420.065V31.817H430.361V54.4473C431.306 50.6698 432.676 47.2609 434.473 44.2205C436.293 41.1571 438.469 38.5543 441.003 36.4122C443.56 34.2701 446.427 32.6232 449.606 31.4715C452.784 30.3198 456.205 29.744 459.867 29.744C464.244 29.744 468.182 30.5617 471.683 32.1971C475.184 33.8324 478.156 36.1818 480.597 39.2453C483.062 42.2857 484.951 45.9826 486.264 50.3359C487.576 54.6661 488.233 59.5377 488.233 64.9506V108H477.937V64.9506C477.937 60.8045 477.453 57.1307 476.486 53.9291C475.518 50.7044 474.102 47.998 472.236 45.8098C470.37 43.5986 468.056 41.9287 465.292 40.8C462.551 39.6714 459.395 39.1071 455.825 39.1071C451.978 39.1071 448.489 39.7635 445.356 41.0764C442.224 42.3663 439.54 44.209 437.306 46.6045C435.095 48.9999 433.379 51.9021 432.158 55.3111C430.96 58.697 430.361 62.486 430.361 66.6781V108ZM529.038 69.8912C529.038 65.8834 529.429 62.1059 530.212 58.5588C530.995 55.0116 532.124 51.7524 533.598 48.7811C535.095 45.8098 536.904 43.1494 539.023 40.8C541.165 38.4276 543.583 36.4237 546.278 34.7883C548.973 33.1529 551.921 31.9091 555.123 31.0569C558.325 30.1816 561.745 29.744 565.384 29.744C569.024 29.744 572.444 30.1816 575.646 31.0569C578.847 31.9091 581.784 33.1529 584.456 34.7883C587.151 36.4237 589.558 38.4276 591.677 40.8C593.819 43.1494 595.627 45.8098 597.101 48.7811C598.599 51.7524 599.739 55.0116 600.522 58.5588C601.305 62.1059 601.697 65.8834 601.697 69.8912C601.697 73.899 601.305 77.6765 600.522 81.2237C599.739 84.7708 598.599 88.0416 597.101 91.0359C595.627 94.0072 593.819 96.6676 591.677 99.017C589.558 101.366 587.151 103.37 584.456 105.029C581.784 106.664 578.847 107.908 575.646 108.76C572.444 109.635 569.024 110.073 565.384 110.073C561.768 110.073 558.348 109.635 555.123 108.76C551.921 107.908 548.973 106.664 546.278 105.029C543.583 103.37 541.165 101.366 539.023 99.017C536.904 96.6676 535.095 94.0072 533.598 91.0359C532.124 88.0416 530.995 84.7708 530.212 81.2237C529.429 77.6765 529.038 73.899 529.038 69.8912ZM539.334 69.8912C539.334 74.6131 539.944 78.8858 541.165 82.7093C542.385 86.5098 544.125 89.746 546.382 92.4179C548.662 95.0667 551.403 97.1167 554.605 98.5678C557.829 99.9959 561.423 100.71 565.384 100.71C569.369 100.71 572.962 99.9959 576.164 98.5678C579.366 97.1167 582.095 95.0667 584.352 92.4179C586.61 89.746 588.349 86.5098 589.569 82.7093C590.79 78.8858 591.401 74.6131 591.401 69.8912C591.401 65.1463 590.79 60.8852 589.569 57.1077C588.349 53.3072 586.61 50.071 584.352 47.3991C582.095 44.7272 579.366 42.6773 576.164 41.2492C572.962 39.8211 569.369 39.1071 565.384 39.1071C561.423 39.1071 557.829 39.8211 554.605 41.2492C551.403 42.6773 548.662 44.7272 546.382 47.3991C544.125 50.071 542.385 53.3072 541.165 57.1077C539.944 60.8852 539.334 65.1463 539.334 69.8912ZM619.655 40.5582H607.252V31.817H619.655V28.2583C619.655 19.2983 621.717 12.5611 625.84 8.04653C629.986 3.50895 636.17 1.24016 644.393 1.24016C648.055 1.24016 652.098 1.68931 656.52 2.58761V11.5706C654.424 11.156 652.478 10.8451 650.681 10.6378C648.884 10.4075 647.203 10.2923 645.637 10.2923C640.086 10.2923 635.997 11.7549 633.371 14.6801C630.769 17.6054 629.467 22.1315 629.467 28.2583V31.817H656.555V40.5582H629.951V108H619.655V40.5582ZM708.938 108H698.296V9.18668H708.938V108ZM732.27 108H721.974V31.817H732.27V54.4473C733.214 50.6698 734.585 47.2609 736.381 44.2205C738.201 41.1571 740.378 38.5543 742.911 36.4122C745.468 34.2701 748.336 32.6232 751.514 31.4715C754.693 30.3198 758.114 29.744 761.776 29.744C766.152 29.744 770.091 30.5617 773.592 32.1971C777.093 33.8324 780.064 36.1818 782.506 39.2453C784.97 42.2857 786.859 45.9826 788.172 50.3359C789.485 54.6661 790.141 59.5377 790.141 64.9506V108H779.846V64.9506C779.846 60.8045 779.362 57.1307 778.394 53.9291C777.427 50.7044 776.01 47.998 774.145 45.8098C772.279 43.5986 769.964 41.9287 767.2 40.8C764.459 39.6714 761.304 39.1071 757.733 39.1071C753.887 39.1071 750.397 39.7635 747.265 41.0764C744.132 42.3663 741.449 44.209 739.215 46.6045C737.003 48.9999 735.287 51.9021 734.067 55.3111C732.869 58.697 732.27 62.486 732.27 66.6781V108ZM872.548 5.73167V108H862.252V83.504C861.284 87.5578 859.891 91.2202 858.071 94.4909C856.252 97.7617 854.075 100.56 851.541 102.887C849.031 105.19 846.186 106.963 843.007 108.207C839.852 109.451 836.454 110.073 832.815 110.073C829.66 110.073 826.665 109.624 823.832 108.726C821.022 107.85 818.419 106.583 816.024 104.925C813.651 103.244 811.509 101.217 809.597 98.8442C807.686 96.4487 806.062 93.7654 804.726 90.794C803.39 87.8227 802.365 84.5865 801.651 81.0855C800.937 77.5614 800.58 73.8299 800.58 69.8912C800.58 65.9525 800.937 62.2326 801.651 58.7315C802.365 55.2074 803.39 51.9597 804.726 48.9884C806.062 46.0171 807.686 43.3452 809.597 40.9728C811.509 38.6003 813.651 36.5849 816.024 34.9265C818.419 33.2451 821.022 31.9667 823.832 31.0915C826.665 30.1931 829.66 29.744 832.815 29.744C836.454 29.744 839.852 30.3659 843.007 31.6097C846.186 32.8535 849.031 34.6386 851.541 36.965C854.075 39.2683 856.252 42.0554 858.071 45.3261C859.891 48.5738 861.284 52.2246 862.252 56.2785V5.73167H872.548ZM862.252 69.8912C862.252 65.1924 861.63 60.9427 860.386 57.1422C859.142 53.3187 857.38 50.0595 855.1 47.3646C852.82 44.6466 850.067 42.5506 846.842 41.0764C843.618 39.6023 840.025 38.8652 836.063 38.8652C832.101 38.8652 828.554 39.5677 825.421 40.9728C822.312 42.3778 819.675 44.4163 817.509 47.0882C815.367 49.737 813.72 52.9847 812.569 56.8313C811.44 60.6548 810.876 65.0081 810.876 69.8912C810.876 74.7743 811.44 79.1391 812.569 82.9857C813.72 86.8323 815.379 90.0915 817.544 92.7634C819.709 95.4122 822.346 97.4392 825.456 98.8442C828.565 100.249 832.101 100.952 836.063 100.952C840.025 100.952 843.618 100.215 846.842 98.7406C850.067 97.2664 852.82 95.1704 855.1 92.4524C857.38 89.7345 859.142 86.4753 860.386 82.6748C861.63 78.8512 862.252 74.59 862.252 69.8912ZM942.668 31.817H952.964V108H942.668V85.3697C941.724 89.1472 940.342 92.5676 938.522 95.6311C936.703 98.6715 934.526 101.263 931.992 103.405C929.459 105.547 926.603 107.194 923.424 108.346C920.245 109.497 916.813 110.073 913.128 110.073C908.752 110.073 904.813 109.255 901.312 107.62C897.834 105.985 894.862 103.647 892.398 100.606C889.956 97.5428 888.079 93.846 886.766 89.5157C885.453 85.1624 884.797 80.2793 884.797 74.8664V31.817H895.093V74.8664C895.093 79.0125 895.577 82.6978 896.544 85.9225C897.511 89.1241 898.928 91.8305 900.794 94.0418C902.659 96.2299 904.963 97.8883 907.704 99.017C910.468 100.146 913.635 100.71 917.205 100.71C921.051 100.71 924.541 100.065 927.674 98.7751C930.806 97.4622 933.478 95.608 935.689 93.2126C937.923 90.8171 939.639 87.9264 940.837 84.5405C942.058 81.1315 942.668 77.331 942.668 73.1389V31.817ZM995.396 29.744C1000.23 29.744 1004.6 30.3083 1008.49 31.437C1012.38 32.5656 1015.7 34.1779 1018.44 36.274C1021.18 38.347 1023.29 40.8691 1024.76 43.8404C1026.26 46.7887 1027.01 50.0825 1027.01 53.7218H1016.96C1016.96 51.4645 1016.44 49.4145 1015.4 47.5719C1014.39 45.7292 1012.94 44.1514 1011.05 42.8385C1009.18 41.5256 1006.91 40.5121 1004.24 39.7981C1001.59 39.084 998.644 38.727 995.396 38.727C992.379 38.727 989.569 39.0495 986.966 39.6944C984.386 40.3163 982.14 41.2031 980.229 42.3548C978.34 43.5065 976.854 44.9 975.772 46.5354C974.712 48.1477 974.182 49.9443 974.182 51.9252C974.182 53.3532 974.459 54.6086 975.012 55.6911C975.587 56.7507 976.359 57.672 977.326 58.4551C978.317 59.2383 979.468 59.9062 980.781 60.459C982.117 61.0118 983.545 61.4955 985.066 61.9101C986.586 62.3017 988.175 62.6472 989.834 62.9467C991.515 63.2461 993.173 63.5225 994.809 63.7759L999.611 64.536C1001.75 64.8815 1003.99 65.273 1006.31 65.7107C1008.64 66.1253 1010.92 66.6781 1013.15 67.3691C1015.39 68.0601 1017.52 68.9238 1019.55 69.9603C1021.57 70.9968 1023.35 72.2867 1024.87 73.8299C1026.39 75.3732 1027.6 77.2274 1028.5 79.3925C1029.39 81.5346 1029.84 84.0683 1029.84 86.9935C1029.84 90.6789 1029.09 93.9496 1027.6 96.8058C1026.1 99.6619 1023.92 102.08 1021.07 104.061C1018.23 106.019 1014.76 107.505 1010.63 108.518C1006.53 109.555 1001.87 110.073 996.64 110.073C991.227 110.073 986.413 109.52 982.198 108.415C978.006 107.332 974.47 105.754 971.591 103.681C968.712 101.585 966.512 99.017 964.992 95.9766C963.495 92.9131 962.746 89.4236 962.746 85.5079H972.835C972.835 87.9955 973.353 90.2067 974.39 92.1415C975.449 94.0533 976.981 95.6771 978.985 97.0131C981.012 98.349 983.499 99.3625 986.448 100.053C989.396 100.744 992.782 101.09 996.605 101.09C1000.15 101.09 1003.35 100.791 1006.21 100.192C1009.07 99.5698 1011.5 98.6715 1013.5 97.4968C1015.53 96.3221 1017.08 94.871 1018.16 93.1435C1019.25 91.4159 1019.79 89.4466 1019.79 87.2354C1019.79 85.5539 1019.49 84.0913 1018.89 82.8475C1018.29 81.5807 1017.46 80.4866 1016.4 79.5653C1015.34 78.6439 1014.1 77.8608 1012.67 77.2159C1011.24 76.5479 1009.7 75.9836 1008.04 75.5229C1006.38 75.0392 1004.64 74.6246 1002.82 74.2791C1001 73.9336 999.185 73.6111 997.365 73.3117L992.632 72.517C990.605 72.1715 988.498 71.7915 986.309 71.3769C984.121 70.9623 981.968 70.4325 979.849 69.7876C977.729 69.1426 975.714 68.348 973.802 67.4036C971.914 66.4592 970.244 65.2961 968.792 63.9141C967.364 62.509 966.224 60.8506 965.372 58.9388C964.52 57.0271 964.094 54.7698 964.094 52.167C964.094 48.7581 964.842 45.6716 966.339 42.9076C967.86 40.1436 969.99 37.7942 972.731 35.8594C975.472 33.9015 978.766 32.3928 982.613 31.3333C986.459 30.2738 990.72 29.744 995.396 29.744ZM1084.45 107.62C1079.1 109.232 1074.27 110.038 1069.94 110.038C1062.8 110.038 1057.35 107.827 1053.59 103.405C1049.86 98.9824 1048 92.487 1048 83.9186V40.5582H1036.7V31.817H1048V14.2655H1058.29V31.817H1084.45V40.5582H1058.29V83.9531C1058.29 89.6654 1059.36 93.9036 1061.51 96.6676C1063.65 99.4316 1067 100.814 1071.56 100.814C1073.22 100.814 1075.1 100.641 1077.19 100.295C1079.31 99.9268 1081.73 99.374 1084.45 98.6369V107.62ZM1105.84 108H1095.55V31.817H1105.84V56.6585C1106.72 52.6968 1108 49.1842 1109.68 46.1207C1111.38 43.0343 1113.48 40.4315 1115.97 38.3124C1118.48 36.1933 1121.39 34.581 1124.71 33.4754C1128.02 32.3698 1131.73 31.817 1135.83 31.817H1139.29V41.7329H1135.83C1130.42 41.7329 1125.8 42.3318 1121.98 43.5295C1118.18 44.7042 1115.08 46.5008 1112.68 48.9193C1110.31 51.3148 1108.57 54.3206 1107.47 57.9369C1106.38 61.5301 1105.84 65.7452 1105.84 70.5822V108ZM1160.59 20.9337H1148.5V6.87183H1160.59V20.9337ZM1159.69 108H1149.4V31.817H1159.69V108ZM1172.31 57.2113C1172.31 53.0423 1173.09 49.2648 1174.65 45.8789C1176.24 42.493 1178.5 39.6138 1181.43 37.2414C1184.35 34.8459 1187.89 33.0032 1192.03 31.7134C1196.2 30.4235 1200.86 29.7785 1205.99 29.7785C1211.5 29.7785 1216.43 30.5386 1220.78 32.0589C1225.16 33.556 1228.86 35.7212 1231.9 38.5543C1234.94 41.3874 1237.27 44.8539 1238.88 48.9539C1240.5 53.0308 1241.3 57.6605 1241.3 62.843V108H1231.01V86.7517C1230.06 90.2297 1228.55 93.3968 1226.48 96.253C1224.41 99.1091 1221.88 101.562 1218.91 103.612C1215.97 105.662 1212.64 107.251 1208.93 108.38C1205.24 109.509 1201.32 110.073 1197.15 110.073C1193.07 110.073 1189.36 109.532 1186.02 108.449C1182.68 107.367 1179.83 105.846 1177.45 103.889C1175.1 101.908 1173.28 99.5352 1171.99 96.7712C1170.7 93.9842 1170.06 90.8862 1170.06 87.4772C1170.06 84.0683 1170.73 81.0394 1172.06 78.3906C1173.4 75.7187 1175.35 73.4729 1177.9 71.6533C1180.46 69.8336 1183.6 68.4516 1187.33 67.5073C1191.09 66.5629 1195.39 66.0907 1200.22 66.0907H1231.01V62.843C1231.01 59.1577 1230.43 55.8524 1229.28 52.9271C1228.13 49.9788 1226.47 47.4912 1224.3 45.4643C1222.14 43.4143 1219.49 41.8481 1216.36 40.7655C1213.25 39.6829 1209.73 39.1416 1205.82 39.1416C1202.02 39.1416 1198.67 39.5793 1195.77 40.4545C1192.89 41.3068 1190.47 42.516 1188.51 44.0823C1186.57 45.6486 1185.1 47.5488 1184.09 49.7831C1183.1 51.9943 1182.6 54.4704 1182.6 57.2113H1172.31ZM1200.15 74.8319C1193.47 74.8319 1188.48 75.8569 1185.16 77.9069C1181.86 79.9568 1180.22 83.0548 1180.22 87.2008C1180.22 89.366 1180.66 91.3123 1181.53 93.0398C1182.41 94.7443 1183.67 96.1954 1185.33 97.3931C1187.01 98.5678 1189.06 99.4661 1191.48 100.088C1193.9 100.71 1196.65 101.021 1199.74 101.021C1202.64 101.021 1205.43 100.756 1208.1 100.226C1210.77 99.6734 1213.26 98.9133 1215.56 97.9459C1217.89 96.9555 1220 95.7693 1221.88 94.3873C1223.8 93.0053 1225.42 91.4735 1226.76 89.7921C1228.12 88.0876 1229.16 86.268 1229.9 84.3332C1230.64 82.3753 1231.01 80.3484 1231.01 78.2524V74.8319H1200.15ZM1263.92 108H1253.62V5.73167H1263.92V108ZM1307.24 9.18668H1337.92C1343.01 9.18668 1347.79 9.71645 1352.26 10.776C1356.75 11.8355 1360.88 13.3788 1364.63 15.4057C1368.41 17.4096 1371.78 19.8627 1374.75 22.7649C1377.72 25.6441 1380.24 28.9148 1382.28 32.5771C1384.36 36.2394 1385.94 40.2587 1387.02 44.6351C1388.12 48.9884 1388.68 53.6412 1388.68 58.5933C1388.68 63.5455 1388.12 68.2098 1387.02 72.5861C1385.94 76.9394 1384.36 80.9473 1382.28 84.6096C1380.24 88.2489 1377.72 91.5196 1374.75 94.4218C1371.78 97.324 1368.41 99.7771 1364.63 101.781C1360.88 103.785 1356.75 105.328 1352.26 106.411C1347.79 107.47 1343.01 108 1337.92 108H1307.24V9.18668ZM1337.96 98.0841C1344.11 98.0841 1349.66 97.1743 1354.61 95.3547C1359.56 93.512 1363.77 90.8862 1367.22 87.4772C1370.7 84.0453 1373.37 79.8992 1375.24 75.0392C1377.1 70.1561 1378.04 64.6742 1378.04 58.5933C1378.04 52.5125 1377.1 47.0421 1375.24 42.182C1373.37 37.299 1370.7 33.1529 1367.22 29.744C1363.77 26.312 1359.56 23.6862 1354.61 21.8666C1349.66 20.0239 1344.11 19.1026 1337.96 19.1026H1317.68V98.0841H1337.96ZM1468.64 83.5385C1467.58 87.7306 1466.01 91.4735 1463.94 94.7673C1461.86 98.0381 1459.38 100.814 1456.47 103.094C1453.57 105.351 1450.29 107.079 1446.63 108.276C1442.97 109.474 1439 110.073 1434.74 110.073C1431.1 110.073 1427.67 109.635 1424.45 108.76C1421.22 107.885 1418.25 106.63 1415.53 104.994C1412.84 103.336 1410.41 101.332 1408.24 98.9824C1406.1 96.61 1404.28 93.9381 1402.78 90.9668C1401.31 87.9725 1400.17 84.7017 1399.36 81.1546C1398.58 77.5844 1398.19 73.7954 1398.19 69.7876C1398.19 65.7798 1398.58 62.0138 1399.36 58.4897C1400.15 54.9656 1401.28 51.7179 1402.75 48.7466C1404.22 45.7752 1406.02 43.1149 1408.14 40.7655C1410.28 38.4161 1412.69 36.4237 1415.36 34.7883C1418.03 33.1529 1420.96 31.9091 1424.14 31.0569C1427.34 30.1816 1430.75 29.744 1434.36 29.744C1439.5 29.744 1444.19 30.6538 1448.42 32.4735C1452.66 34.2701 1456.3 36.8498 1459.34 40.2127C1462.38 43.5525 1464.74 47.6179 1466.43 52.4089C1468.11 57.1768 1468.95 62.5321 1468.95 68.4747C1468.95 69.2578 1468.94 70.0525 1468.91 70.8586C1468.89 71.6648 1468.83 72.5286 1468.74 73.4499H1408.59C1408.89 77.6189 1409.72 81.3849 1411.08 84.7478C1412.43 88.1107 1414.25 90.9783 1416.53 93.3508C1418.82 95.7232 1421.51 97.5428 1424.62 98.8097C1427.73 100.077 1431.18 100.71 1434.98 100.71C1440.7 100.71 1445.5 99.2703 1449.39 96.3912C1453.28 93.489 1456.27 89.2047 1458.34 83.5385H1468.64ZM1458.48 64.4669C1458.16 60.459 1457.35 56.8889 1456.06 53.7563C1454.79 50.6007 1453.12 47.9404 1451.05 45.7752C1448.98 43.6101 1446.54 41.9632 1443.73 40.8346C1440.92 39.6829 1437.81 39.1071 1434.4 39.1071C1430.83 39.1071 1427.57 39.6944 1424.62 40.8691C1421.67 42.0438 1419.09 43.7253 1416.88 45.9135C1414.67 48.1016 1412.87 50.762 1411.49 53.8945C1410.11 57.0271 1409.2 60.5512 1408.76 64.4669H1458.48ZM1509.6 29.744C1514.44 29.744 1518.8 30.3083 1522.69 31.437C1526.59 32.5656 1529.9 34.1779 1532.64 36.274C1535.38 38.347 1537.49 40.8691 1538.97 43.8404C1540.46 46.7887 1541.21 50.0825 1541.21 53.7218H1531.16C1531.16 51.4645 1530.64 49.4145 1529.6 47.5719C1528.59 45.7292 1527.14 44.1514 1525.25 42.8385C1523.38 41.5256 1521.12 40.5121 1518.44 39.7981C1515.79 39.084 1512.85 38.727 1509.6 38.727C1506.58 38.727 1503.77 39.0495 1501.17 39.6944C1498.59 40.3163 1496.34 41.2031 1494.43 42.3548C1492.54 43.5065 1491.06 44.9 1489.97 46.5354C1488.91 48.1477 1488.39 49.9443 1488.39 51.9252C1488.39 53.3532 1488.66 54.6086 1489.21 55.6911C1489.79 56.7507 1490.56 57.672 1491.53 58.4551C1492.52 59.2383 1493.67 59.9062 1494.98 60.459C1496.32 61.0118 1497.75 61.4955 1499.27 61.9101C1500.79 62.3017 1502.38 62.6472 1504.04 62.9467C1505.72 63.2461 1507.38 63.5225 1509.01 63.7759L1513.81 64.536C1515.96 64.8815 1518.19 65.273 1520.52 65.7107C1522.84 66.1253 1525.12 66.6781 1527.36 67.3691C1529.59 68.0601 1531.72 68.9238 1533.75 69.9603C1535.78 70.9968 1537.55 72.2867 1539.07 73.8299C1540.59 75.3732 1541.8 77.2274 1542.7 79.3925C1543.6 81.5346 1544.05 84.0683 1544.05 86.9935C1544.05 90.6789 1543.3 93.9496 1541.8 96.8058C1540.3 99.6619 1538.13 102.08 1535.27 104.061C1532.44 106.019 1528.96 107.505 1524.84 108.518C1520.74 109.555 1516.07 110.073 1510.84 110.073C1505.43 110.073 1500.62 109.52 1496.4 108.415C1492.21 107.332 1488.67 105.754 1485.79 103.681C1482.91 101.585 1480.71 99.017 1479.19 95.9766C1477.7 92.9131 1476.95 89.4236 1476.95 85.5079H1487.04C1487.04 87.9955 1487.56 90.2067 1488.59 92.1415C1489.65 94.0533 1491.18 95.6771 1493.19 97.0131C1495.21 98.349 1497.7 99.3625 1500.65 100.053C1503.6 100.744 1506.98 101.09 1510.81 101.09C1514.36 101.09 1517.56 100.791 1520.41 100.192C1523.27 99.5698 1525.7 98.6715 1527.7 97.4968C1529.73 96.3221 1531.28 94.871 1532.37 93.1435C1533.45 91.4159 1533.99 89.4466 1533.99 87.2354C1533.99 85.5539 1533.69 84.0913 1533.09 82.8475C1532.49 81.5807 1531.66 80.4866 1530.61 79.5653C1529.55 78.6439 1528.3 77.8608 1526.87 77.2159C1525.45 76.5479 1523.9 75.9836 1522.24 75.5229C1520.59 75.0392 1518.85 74.6246 1517.03 74.2791C1515.21 73.9336 1513.39 73.6111 1511.57 73.3117L1506.83 72.517C1504.81 72.1715 1502.7 71.7915 1500.51 71.3769C1498.32 70.9623 1496.17 70.4325 1494.05 69.7876C1491.93 69.1426 1489.92 68.348 1488.01 67.4036C1486.12 66.4592 1484.45 65.2961 1483 63.9141C1481.57 62.509 1480.43 60.8506 1479.57 58.9388C1478.72 57.0271 1478.3 54.7698 1478.3 52.167C1478.3 48.7581 1479.05 45.6716 1480.54 42.9076C1482.06 40.1436 1484.19 37.7942 1486.93 35.8594C1489.67 33.9015 1492.97 32.3928 1496.82 31.3333C1500.66 30.2738 1504.92 29.744 1509.6 29.744ZM1565.21 20.9337H1553.11V6.87183H1565.21V20.9337ZM1564.31 108H1554.01V31.817H1564.31V108ZM1647.09 31.817V96.253C1647.09 100.215 1646.7 103.958 1645.92 107.482C1645.13 110.983 1644 114.208 1642.53 117.156C1641.06 120.127 1639.26 122.787 1637.14 125.137C1635.04 127.509 1632.67 129.513 1630.02 131.149C1627.37 132.807 1624.47 134.074 1621.32 134.949C1618.16 135.824 1614.81 136.262 1611.26 136.262C1608.15 136.262 1605.18 135.928 1602.35 135.26C1599.54 134.592 1596.91 133.636 1594.47 132.392C1592.05 131.172 1589.85 129.686 1587.87 127.935C1585.91 126.185 1584.23 124.227 1582.83 122.062C1581.45 119.897 1580.37 117.547 1579.61 115.014C1578.88 112.503 1578.51 109.854 1578.51 107.067H1588.81C1588.81 109.946 1589.38 112.618 1590.53 115.083C1591.68 117.547 1593.27 119.678 1595.3 121.475C1597.33 123.294 1599.71 124.711 1602.45 125.724C1605.19 126.761 1608.15 127.279 1611.33 127.279C1615.13 127.279 1618.6 126.53 1621.73 125.033C1624.86 123.536 1627.55 121.428 1629.78 118.711C1632.02 115.993 1633.74 112.722 1634.96 108.898C1636.18 105.098 1636.8 100.883 1636.8 96.253V81.1546C1635.83 85.0242 1634.42 88.5368 1632.58 91.6923C1630.76 94.8249 1628.57 97.4968 1626.02 99.708C1623.48 101.919 1620.61 103.624 1617.41 104.821C1614.23 106.019 1610.8 106.618 1607.12 106.618C1604.01 106.618 1601.05 106.192 1598.24 105.34C1595.45 104.487 1592.87 103.267 1590.5 101.677C1588.15 100.088 1586.02 98.1532 1584.11 95.8729C1582.22 93.5926 1580.61 91.0359 1579.27 88.2028C1577.93 85.3466 1576.91 82.2371 1576.19 78.8743C1575.48 75.4883 1575.12 71.9182 1575.12 68.1637C1575.12 64.4093 1575.48 60.8506 1576.19 57.4877C1576.91 54.1249 1577.93 51.0269 1579.27 48.1938C1580.61 45.3376 1582.22 42.7694 1584.11 40.4891C1586.02 38.2088 1588.15 36.274 1590.5 34.6847C1592.87 33.0954 1595.45 31.8746 1598.24 31.0223C1601.05 30.1701 1604.01 29.744 1607.12 29.744C1610.83 29.744 1614.27 30.3429 1617.45 31.5406C1620.65 32.7383 1623.52 34.4428 1626.05 36.654C1628.58 38.8422 1630.76 41.5026 1632.58 44.6351C1634.42 47.7676 1635.83 51.2687 1636.8 55.1383V31.817H1647.09ZM1636.8 68.1637C1636.8 63.7413 1636.17 59.7335 1634.93 56.1403C1633.69 52.524 1631.91 49.4376 1629.61 46.8809C1627.31 44.3241 1624.52 42.3548 1621.25 40.9728C1618 39.5677 1614.36 38.8652 1610.33 38.8652C1606.44 38.8652 1602.95 39.5332 1599.86 40.8691C1596.77 42.182 1594.16 44.0938 1592.02 46.6045C1589.88 49.1151 1588.24 52.1901 1587.11 55.8293C1585.98 59.4456 1585.42 63.557 1585.42 68.1637C1585.42 72.7704 1585.98 76.8934 1587.11 80.5327C1588.26 84.1489 1589.91 87.2239 1592.05 89.7575C1594.19 92.2682 1596.8 94.1915 1599.86 95.5274C1602.95 96.8403 1606.44 97.4968 1610.33 97.4968C1614.36 97.4968 1618 96.8058 1621.25 95.4238C1624.52 94.0187 1627.31 92.0378 1629.61 89.4811C1631.91 86.9244 1633.69 83.838 1634.93 80.2217C1636.17 76.6055 1636.8 72.5861 1636.8 68.1637ZM1669.98 108H1659.69V31.817H1669.98V54.4473C1670.93 50.6698 1672.3 47.2609 1674.09 44.2205C1675.91 41.1571 1678.09 38.5543 1680.62 36.4122C1683.18 34.2701 1686.05 32.6232 1689.23 31.4715C1692.4 30.3198 1695.83 29.744 1699.49 29.744C1703.86 29.744 1707.8 30.5617 1711.3 32.1971C1714.8 33.8324 1717.78 36.1818 1720.22 39.2453C1722.68 42.2857 1724.57 45.9826 1725.88 50.3359C1727.2 54.6661 1727.85 59.5377 1727.85 64.9506V108H1717.56V64.9506C1717.56 60.8045 1717.07 57.1307 1716.11 53.9291C1715.14 50.7044 1713.72 47.998 1711.86 45.8098C1709.99 43.5986 1707.68 41.9287 1704.91 40.8C1702.17 39.6714 1699.02 39.1071 1695.45 39.1071C1691.6 39.1071 1688.11 39.7635 1684.98 41.0764C1681.84 42.3663 1679.16 44.209 1676.93 46.6045C1674.72 48.9999 1673 51.9021 1671.78 55.3111C1670.58 58.697 1669.98 62.486 1669.98 66.6781V108Z" fill="black"/>
<path d="M732.702 1133.97L786.047 1318.58L840.373 1133.97L862.776 1133.97L803.059 1334.19L771.346 1334.19L718.63 1155.6L665.005 1334.19L633.291 1334.19L574.555 1133.97L597.447 1133.97L650.793 1318.58L705.119 1133.97L732.702 1133.97Z" fill="black"/>
<path d="M380.596 1234.09C380.596 1223.73 381.599 1213.97 383.606 1204.83C385.66 1195.63 388.577 1187.18 392.357 1179.48C396.184 1171.74 400.805 1164.8 406.219 1158.69C411.679 1152.53 417.84 1147.33 424.701 1143.08C431.561 1138.79 439.052 1135.5 447.173 1133.21C455.341 1130.92 464.021 1129.78 473.216 1129.78C482.41 1129.78 491.068 1130.92 499.189 1133.21C507.356 1135.5 514.87 1138.79 521.731 1143.08C528.638 1147.33 534.799 1152.53 540.213 1158.69C545.673 1164.8 550.294 1171.74 554.074 1179.48C557.901 1187.18 560.818 1195.63 562.825 1204.83C564.879 1214.02 565.906 1223.77 565.906 1234.09C565.906 1244.4 564.879 1254.16 562.825 1263.35C560.818 1272.55 557.901 1281.02 554.074 1288.76C550.294 1296.47 545.673 1303.4 540.213 1309.56C534.799 1315.67 528.638 1320.87 521.731 1325.17C514.87 1329.42 507.356 1332.68 499.189 1334.97C491.068 1337.26 482.41 1338.4 473.216 1338.4C464.021 1338.4 455.341 1337.26 447.173 1334.97C439.052 1332.68 431.561 1329.42 424.701 1325.17C417.84 1320.87 411.679 1315.67 406.219 1309.56C400.805 1303.4 396.184 1296.47 392.357 1288.76C388.577 1281.02 385.66 1272.55 383.606 1263.35C381.599 1254.16 380.596 1244.4 380.596 1234.09ZM402.158 1234.09C402.158 1247.02 403.815 1258.68 407.129 1269.09C410.442 1279.45 415.18 1288.3 421.34 1295.63C427.501 1302.91 434.945 1308.51 443.673 1312.43C452.447 1316.35 462.295 1318.31 473.216 1318.31C484.137 1318.31 493.985 1316.35 502.759 1312.43C511.533 1308.51 519.001 1302.91 525.161 1295.63C531.322 1288.3 536.059 1279.45 539.373 1269.09C542.686 1258.68 544.343 1247.02 544.343 1234.09C544.343 1221.16 542.686 1209.52 539.373 1199.16C536.059 1188.75 531.322 1179.9 525.161 1172.62C519.001 1165.29 511.533 1159.67 502.759 1155.75C493.985 1151.83 484.137 1149.87 473.216 1149.87C462.295 1149.87 452.447 1151.83 443.673 1155.75C434.945 1159.67 427.501 1165.29 421.34 1172.62C415.18 1179.9 410.442 1188.75 407.129 1199.16C403.815 1209.52 402.158 1221.16 402.158 1234.09Z" fill="black"/>
<path d="M352.945 1334.16L331.383 1334.16L331.383 1244.27L211.6 1244.27L211.6 1334.16L190.038 1334.16L190.038 1133.87L211.6 1133.87L211.6 1224.18L331.383 1224.18L331.383 1133.87L352.945 1133.87L352.945 1334.16Z" fill="black"/>
<path d="M79.8785 1129.78C91.173 1129.78 101.441 1131.22 110.682 1134.12C119.969 1136.97 127.927 1141.1 134.554 1146.51C141.228 1151.88 146.386 1158.41 150.026 1166.11C153.666 1173.77 155.487 1182.4 155.487 1192.01L134.414 1192.01C134.414 1185.48 133.061 1179.58 130.354 1174.3C127.647 1169.03 123.866 1164.55 119.013 1160.86C114.205 1157.17 108.442 1154.35 101.721 1152.39C95.0001 1150.38 87.6493 1149.38 79.6685 1149.38C74.9546 1149.38 70.3108 1149.75 65.737 1150.5C61.1632 1151.2 56.846 1152.27 52.7856 1153.72C48.7252 1155.17 44.9681 1156.96 41.5144 1159.11C38.0607 1161.26 35.0737 1163.75 32.5534 1166.6C30.0332 1169.45 28.073 1172.65 26.6728 1176.19C25.2727 1179.74 24.5726 1183.61 24.5726 1187.81C24.5726 1191.78 25.2027 1195.26 26.4628 1198.25C27.7229 1201.19 29.5198 1203.75 31.8534 1205.95C34.1869 1208.09 36.9872 1209.91 40.2543 1211.41C43.5213 1212.9 47.1617 1214.21 51.1754 1215.33C55.1892 1216.45 59.5063 1217.43 64.1268 1218.27C68.794 1219.06 73.6711 1219.88 78.7584 1220.72L90.6596 1222.68C96.0268 1223.52 101.534 1224.47 107.181 1225.55C112.829 1226.62 118.313 1228 123.633 1229.68C129 1231.36 134.041 1233.46 138.755 1235.98C143.515 1238.5 147.669 1241.67 151.216 1245.5C154.763 1249.33 157.563 1253.9 159.617 1259.22C161.717 1264.54 162.767 1270.84 162.767 1278.12C162.767 1288.06 160.784 1296.82 156.817 1304.38C152.896 1311.89 147.389 1318.17 140.295 1323.21C133.201 1328.25 124.73 1332.03 114.882 1334.55C105.081 1337.12 94.2767 1338.4 82.4687 1338.4C69.8207 1338.4 58.4095 1336.98 48.2351 1334.13C38.0607 1331.24 29.4031 1327.06 22.2623 1321.6C15.1216 1316.09 9.61432 1309.37 5.74058 1301.44C1.91351 1293.5 -2.70474e-05 1284.47 -2.52766e-05 1274.34L21.0722 1274.34C21.0722 1281.34 22.519 1287.6 25.4127 1293.11C28.353 1298.57 32.4834 1303.21 37.804 1307.04C43.1245 1310.86 49.5419 1313.78 57.056 1315.79C64.6168 1317.79 73.0177 1318.8 82.2587 1318.8C90.5662 1318.8 98.3371 1317.96 105.571 1316.28C112.805 1314.55 119.083 1312.01 124.403 1308.65C129.77 1305.24 133.971 1300.97 137.005 1295.84C140.085 1290.7 141.625 1284.7 141.625 1277.84C141.625 1273.36 140.972 1269.49 139.665 1266.22C138.358 1262.96 136.514 1260.13 134.134 1257.75C131.801 1255.37 129 1253.36 125.733 1251.73C122.466 1250.1 118.849 1248.72 114.882 1247.6C110.962 1246.43 106.761 1245.45 102.281 1244.66C97.847 1243.82 93.2499 1243.03 88.4894 1242.28L74.8379 1240.04C69.5174 1239.2 64.0335 1238.27 58.3862 1237.24C52.7856 1236.21 47.3483 1234.91 42.0744 1233.32C36.8006 1231.73 31.8067 1229.77 27.0929 1227.44C22.4257 1225.06 18.3419 1222.09 14.8416 1218.55C11.3412 1215 8.56423 1210.78 6.51068 1205.88C4.5038 1200.93 3.50036 1195.07 3.50036 1188.3C3.50036 1182 4.41046 1176.19 6.23065 1170.87C8.05085 1165.5 10.6178 1160.65 13.9315 1156.31C17.2918 1151.97 21.2823 1148.17 25.9027 1144.9C30.5699 1141.59 35.7271 1138.81 41.3744 1136.57C47.0683 1134.33 53.159 1132.65 59.6463 1131.53C66.1337 1130.36 72.8777 1129.78 79.8785 1129.78Z" fill="black"/>
<path d="M1747.96 1059.95L1713.66 1059.95L1595.06 874.708L1595.06 1059.95L1573.92 1059.95L1573.92 859.726L1611.03 859.726L1726.89 1039.93L1726.89 859.726L1747.96 859.726L1747.96 1059.95Z" fill="black"/>
<path d="M1363.74 959.836C1363.74 949.475 1364.75 939.721 1366.76 930.573C1368.81 921.379 1371.73 912.931 1375.51 905.231C1379.33 897.483 1383.95 890.552 1389.37 884.438C1394.83 878.278 1400.99 873.074 1407.85 868.827C1414.71 864.533 1422.2 861.243 1430.32 858.956C1438.49 856.669 1447.17 855.525 1456.36 855.525C1465.56 855.525 1474.22 856.669 1482.34 858.956C1490.51 861.243 1498.02 864.533 1504.88 868.827C1511.79 873.074 1517.95 878.278 1523.36 884.438C1528.82 890.552 1533.44 897.483 1537.22 905.231C1541.05 912.932 1543.97 921.379 1545.97 930.573C1548.03 939.768 1549.05 949.522 1549.05 959.837C1549.05 970.151 1548.03 979.905 1545.97 989.1C1543.97 998.294 1541.05 1006.76 1537.22 1014.51C1533.44 1022.21 1528.82 1029.14 1523.36 1035.3C1517.95 1041.42 1511.79 1046.62 1504.88 1050.92C1498.02 1055.16 1490.51 1058.43 1482.34 1060.72C1474.22 1063 1465.56 1064.15 1456.36 1064.15C1447.17 1064.15 1438.49 1063 1430.32 1060.72C1422.2 1058.43 1414.71 1055.16 1407.85 1050.92C1400.99 1046.62 1394.83 1041.42 1389.37 1035.3C1383.95 1029.14 1379.33 1022.21 1375.51 1014.51C1371.73 1006.76 1368.81 998.294 1366.76 989.1C1364.75 979.905 1363.74 970.151 1363.74 959.836ZM1385.31 959.836C1385.31 972.765 1386.96 984.432 1390.28 994.84C1393.59 1005.2 1398.33 1014.05 1404.49 1021.37C1410.65 1028.65 1418.09 1034.25 1426.82 1038.17C1435.6 1042.1 1445.44 1044.06 1456.36 1044.06C1467.29 1044.06 1477.13 1042.1 1485.91 1038.17C1494.68 1034.25 1502.15 1028.65 1508.31 1021.37C1514.47 1014.05 1519.21 1005.2 1522.52 994.84C1525.84 984.432 1527.49 972.765 1527.49 959.837C1527.49 946.908 1525.84 935.264 1522.52 924.903C1519.21 914.495 1514.47 905.651 1508.31 898.37C1502.15 891.043 1494.68 885.419 1485.91 881.498C1477.13 877.578 1467.29 875.618 1456.36 875.618C1445.44 875.618 1435.6 877.578 1426.82 881.498C1418.09 885.419 1410.65 891.043 1404.49 898.37C1398.33 905.651 1393.59 914.495 1390.28 924.903C1386.96 935.264 1385.31 946.908 1385.31 959.836Z" fill="black"/>
<path d="M1336.15 1059.95L1314.59 1059.95L1314.59 859.726L1336.15 859.726L1336.15 1059.95Z" fill="black"/>
<path d="M1290.06 879.818L1219.98 879.818L1219.98 1059.95L1198.42 1059.95L1198.42 879.818L1128.34 879.818L1128.34 859.726L1290.06 859.726L1290.06 879.818Z" fill="black"/>
<path d="M957.359 1060.02L1036.26 859.726L1067.97 859.726L1146.03 1060.02L1123.07 1060.02L1101.85 1005.34L1001.25 1005.34L979.831 1060.02L957.359 1060.02ZM1094.29 985.739L1051.87 876.458L1008.95 985.739L1094.29 985.739Z" fill="black"/>
<path d="M783.952 859.726L805.514 859.726L805.514 975.938C805.514 987 807.054 996.777 810.134 1005.27C813.215 1013.72 817.485 1020.81 822.946 1026.55C828.453 1032.29 834.987 1036.66 842.548 1039.65C850.155 1042.59 858.463 1044.06 867.471 1044.06C876.478 1044.06 884.762 1042.59 892.323 1039.65C899.931 1036.66 906.465 1032.29 911.925 1026.55C917.433 1020.81 921.726 1013.72 924.807 1005.27C927.887 996.777 929.427 987 929.427 975.938L929.427 859.726L950.989 859.726L950.989 975.938C950.989 985.179 950.033 993.767 948.119 1001.7C946.206 1009.64 943.475 1016.87 939.928 1023.4C936.428 1029.94 932.181 1035.75 927.187 1040.84C922.193 1045.88 916.592 1050.12 910.385 1053.58C904.224 1057.03 897.527 1059.64 890.293 1061.42C883.059 1063.24 875.451 1064.15 867.471 1064.15C859.49 1064.15 851.882 1063.24 844.648 1061.42C837.414 1059.64 830.693 1057.03 824.486 1053.58C818.325 1050.12 812.748 1045.88 807.754 1040.84C802.76 1035.75 798.49 1029.94 794.943 1023.4C791.442 1016.87 788.735 1009.64 786.822 1001.7C784.908 993.767 783.952 985.179 783.952 975.938L783.952 859.726Z" fill="black"/>
<path d="M595.451 859.726L657.617 859.726C667.932 859.726 677.616 860.8 686.67 862.946C695.771 865.093 704.126 868.22 711.733 872.327C719.387 876.388 726.225 881.358 732.245 887.239C738.266 893.073 743.353 899.7 747.507 907.121C751.707 914.542 754.904 922.686 757.098 931.554C759.338 940.375 760.458 949.802 760.458 959.837C760.458 969.871 759.338 979.322 757.098 988.19C754.904 997.011 751.707 1005.13 747.507 1012.55C743.353 1019.93 738.266 1026.55 732.245 1032.43C726.225 1038.32 719.387 1043.29 711.733 1047.35C704.126 1051.41 695.771 1054.53 686.67 1056.73C677.616 1058.87 667.932 1059.95 657.617 1059.95L595.451 1059.95L595.451 859.726ZM657.687 1039.86C670.149 1039.86 681.396 1038.01 691.431 1034.32C701.465 1030.59 709.983 1025.27 716.984 1018.36C724.031 1011.41 729.445 1003.01 733.225 993.16C737.006 983.266 738.896 972.158 738.896 959.837C738.896 947.515 737.006 936.431 733.225 926.583C729.445 916.689 724.031 908.288 716.984 901.381C709.983 894.426 701.465 889.106 691.431 885.419C681.397 881.685 670.149 879.818 657.687 879.818L616.593 879.818L616.593 1039.86L657.687 1039.86Z" fill="black"/>
<path d="M390.729 1060.02L469.628 859.726L501.341 859.726L579.399 1060.02L556.437 1060.02L535.225 1005.34L434.624 1005.34L413.202 1060.02L390.729 1060.02ZM527.664 985.739L485.239 876.458L442.325 985.739L527.664 985.739Z" fill="black"/>
<path d="M213.143 1059.95L213.143 859.726L306.323 859.726C316.357 859.726 325.528 861.15 333.836 863.997C342.143 866.797 349.261 870.764 355.188 875.898C361.162 880.985 365.806 887.099 369.12 894.24C372.433 901.334 374.09 909.151 374.09 917.692C374.09 925.393 372.737 932.44 370.03 938.835C367.323 945.182 363.496 950.642 358.549 955.216C353.648 959.79 347.721 963.407 340.767 966.067C333.813 968.681 326.088 970.104 317.594 970.338C325.062 970.945 331.829 973.978 337.896 979.439C344.01 984.899 349.261 992.53 353.648 1002.33L379.481 1059.95L355.818 1059.95L330.055 1002.4C328.189 998.294 326.018 994.747 323.545 991.76C321.071 988.726 318.201 986.23 314.934 984.269C311.667 982.309 307.98 980.862 303.873 979.929C299.766 978.949 295.145 978.459 290.011 978.459L234.705 978.459L234.705 1059.95L213.143 1059.95ZM303.803 958.437C311.317 958.437 318.061 957.526 324.035 955.706C330.055 953.839 335.166 951.202 339.366 947.795C343.614 944.342 346.857 940.165 349.098 935.264C351.384 930.364 352.528 924.856 352.528 918.742C352.528 912.675 351.408 907.238 349.168 902.431C346.974 897.623 343.777 893.54 339.577 890.179C335.376 886.819 330.242 884.252 324.175 882.479C318.154 880.705 311.34 879.818 303.733 879.818L234.705 879.818L234.705 958.437L303.803 958.437Z" fill="black"/>
<path d="M24.5718 959.836C24.5718 972.765 26.182 984.456 29.4023 994.91C32.6226 1005.32 37.2198 1014.19 43.1938 1021.51C49.2144 1028.84 56.4952 1034.49 65.0361 1038.45C73.577 1042.38 83.1914 1044.34 93.8791 1044.34C100.693 1044.34 107.181 1043.57 113.341 1042.03C119.549 1040.44 125.289 1038.2 130.563 1035.3C135.884 1032.41 140.691 1028.93 144.985 1024.87C149.325 1020.77 153.012 1016.22 156.046 1011.22C159.079 1006.23 161.413 1000.84 163.047 995.05C164.68 989.263 165.497 983.196 165.497 976.848L165.497 975.938L92.549 975.938L92.549 956.336L186.149 956.336L186.149 1059.95L165.497 1059.95L165.497 1001.98C163.163 1011.27 159.639 1019.74 154.926 1027.39C150.212 1035 144.518 1041.54 137.844 1047C131.17 1052.46 123.656 1056.68 115.301 1059.67C106.947 1062.65 97.9629 1064.15 88.3486 1064.15C79.9943 1064.15 72.0835 1062.98 64.616 1060.65C57.1952 1058.31 50.3112 1055 43.9638 1050.71C37.6632 1046.37 31.9692 1041.09 26.882 1034.88C21.8415 1028.68 17.5477 1021.72 14.0007 1014.02C10.4536 1006.27 7.72333 997.851 5.80979 988.75C3.94293 979.649 3.0095 970.011 3.0095 959.836C3.00951 949.475 4.01295 939.721 6.01983 930.573C8.07338 921.379 10.9904 912.931 14.7708 905.231C18.5512 897.483 23.1717 890.552 28.6322 884.438C34.0928 878.278 40.2535 873.074 47.1142 868.827C53.9749 864.533 61.4657 861.243 69.5866 858.956C77.7075 856.669 86.3651 855.525 95.5594 855.525C106.854 855.525 117.355 857.229 127.063 860.636C136.77 864.043 145.405 868.873 152.965 875.128C160.526 881.335 166.897 888.826 172.077 897.6C177.258 906.327 180.968 916.035 183.209 926.723L161.646 926.723C159.686 918.929 156.746 911.881 152.825 905.581C148.905 899.28 144.121 893.913 138.474 889.479C132.827 885.045 126.386 881.638 119.152 879.258C111.964 876.831 104.124 875.618 95.6294 875.618C84.7549 875.618 74.9305 877.578 66.1562 881.498C57.382 885.419 49.9145 891.043 43.7538 898.37C37.5932 905.651 32.856 914.495 29.5423 924.903C26.2286 935.264 24.5718 946.908 24.5718 959.836Z" fill="black"/>
<path d="M1749 588.366C1749 605.343 1746.79 621.415 1742.38 636.581C1737.96 651.634 1731.63 665.556 1723.36 678.345C1715.22 691.135 1705.26 702.622 1693.48 712.809C1681.83 722.995 1668.64 731.653 1653.93 738.784C1639.21 745.914 1623.14 751.347 1605.71 755.082C1588.28 758.93 1569.78 760.854 1550.2 760.854C1531.97 760.854 1514.49 759.213 1497.74 755.931C1481.1 752.648 1465.59 748.008 1451.22 742.009C1436.85 735.898 1423.83 728.597 1412.17 720.109C1400.52 711.507 1390.56 701.943 1382.29 691.417C1374.03 680.892 1367.64 669.574 1363.11 657.463C1358.58 645.24 1356.32 632.45 1356.32 619.095L1356.32 615.36L1408.61 615.36L1408.61 618.246C1408.61 626.734 1410.31 634.94 1413.7 642.863C1417.1 650.785 1421.85 658.199 1427.96 665.103C1434.19 672.007 1441.6 678.288 1450.2 683.948C1458.92 689.607 1468.54 694.473 1479.06 698.548C1489.59 702.622 1500.85 705.791 1512.85 708.055C1524.96 710.206 1537.52 711.281 1550.54 711.281C1571.93 711.281 1591.56 708.281 1609.45 702.283C1627.33 696.171 1642.72 687.683 1655.63 676.817C1668.64 665.952 1678.71 652.993 1685.84 637.939C1693.09 622.773 1696.71 606.192 1696.71 588.196C1696.71 570.653 1693.14 555.147 1686.01 541.679C1678.88 528.097 1668.92 516.722 1656.13 507.555C1643.46 498.274 1628.35 491.257 1610.81 486.503C1593.26 481.749 1574.08 479.373 1553.25 479.373C1535.94 479.373 1519.41 481.07 1503.68 484.466C1488.06 487.748 1474.08 492.332 1461.75 498.217C1449.52 503.99 1439.39 510.837 1431.36 518.76C1423.43 526.682 1418.51 535.228 1416.59 544.395L1364.3 544.395L1364.3 265.291L1716.91 265.291L1716.91 314.015L1416.59 314.015L1416.59 511.629C1421.57 500.651 1429.04 490.691 1439 481.749C1449.07 472.695 1460.95 464.942 1474.65 458.491C1488.46 452.039 1503.74 447.059 1520.49 443.551C1537.35 439.929 1555.12 438.118 1573.8 438.118C1599.03 438.118 1622.35 441.457 1643.74 448.135C1665.13 454.812 1683.64 464.603 1699.26 477.505C1714.88 490.295 1727.04 506.027 1735.76 524.702C1744.59 543.263 1749 564.485 1749 588.366Z" fill="black"/>
<path d="M917.991 750.847L917.991 690.918C917.991 672.13 920.368 655.605 925.122 641.344C929.988 627.084 936.496 614.577 944.645 603.825C952.908 592.959 962.528 583.679 973.507 575.982C984.485 568.173 996.143 561.439 1008.48 555.779C1020.82 550.12 1033.55 545.254 1046.68 541.179C1059.81 537.105 1072.6 533.426 1085.05 530.144L1105.93 524.372C1118.04 521.089 1129.7 517.864 1140.9 514.695C1152.22 511.526 1162.75 507.96 1172.48 503.999C1182.33 500.038 1191.32 495.511 1199.47 490.417C1207.62 485.324 1214.58 479.269 1220.35 472.252C1226.13 465.235 1230.6 457.142 1233.77 447.974C1237.05 438.694 1238.69 427.885 1238.69 415.548C1238.69 399.59 1235.63 384.819 1229.52 371.238C1223.52 357.543 1214.87 345.715 1203.55 335.755C1192.23 325.795 1178.53 317.986 1162.46 312.327C1146.39 306.668 1128.39 303.838 1108.48 303.838C1087.65 303.838 1068.86 306.951 1052.11 313.176C1035.36 319.287 1021.1 328.059 1009.33 339.49C997.558 350.808 988.446 364.56 981.995 380.745C975.657 396.817 972.488 414.756 972.488 434.562L972.488 444.07L920.198 444.07L920.198 433.714C920.198 406.324 924.612 381.65 933.44 359.693C942.269 337.623 954.888 318.835 971.3 303.329C987.824 287.823 1007.86 275.939 1031.4 267.677C1055.05 259.301 1081.59 255.114 1111.02 255.114C1139.32 255.114 1164.61 258.962 1186.91 266.658C1209.21 274.241 1228.05 285.05 1243.44 299.085C1258.84 313.119 1270.61 329.927 1278.76 349.507C1286.91 369.087 1290.98 390.875 1290.98 414.869C1290.98 433.431 1288.66 449.672 1284.02 463.593C1279.38 477.402 1273.04 489.455 1265 499.755C1256.97 510.054 1247.63 518.826 1236.99 526.069C1226.35 533.313 1214.98 539.538 1202.87 544.744C1190.87 549.837 1178.48 554.195 1165.69 557.817C1153.01 561.325 1140.62 564.608 1128.51 567.664L1102.87 574.624C1092.35 577.227 1081.71 580.113 1070.96 583.282C1060.32 586.338 1050.07 589.96 1040.23 594.148C1030.38 598.336 1021.16 603.259 1012.55 608.918C1003.95 614.577 996.482 621.311 990.144 629.121C983.806 636.817 978.826 645.758 975.204 655.945C971.582 666.018 969.772 677.676 969.772 690.918L969.772 702.123L1289.45 702.123L1289.45 750.847L917.991 750.847Z" fill="black"/>
<path d="M435.554 508.074C435.554 482.947 437.875 459.293 442.515 437.109C447.155 414.812 453.833 394.327 462.548 375.652C471.263 356.864 481.902 340.056 494.465 325.229C507.028 310.29 521.176 297.67 536.908 287.37C552.64 276.958 569.844 268.978 588.519 263.433C607.307 257.887 627.227 255.114 648.278 255.114C669.443 255.114 689.363 257.887 708.038 263.433C726.713 268.979 743.916 276.958 759.649 287.37C775.494 297.67 789.642 310.29 802.092 325.23C814.655 340.056 825.294 356.864 834.009 375.652C842.837 394.327 849.571 414.812 854.211 437.109C858.852 459.293 861.172 482.947 861.172 508.074C861.172 533.087 858.852 556.742 854.211 579.038C849.571 601.335 842.893 621.877 834.178 640.665C825.463 659.34 814.824 676.148 802.261 691.088C789.698 705.914 775.494 718.534 759.649 728.947C743.916 739.246 726.656 747.169 707.868 752.715C689.193 758.261 669.33 761.034 648.278 761.034C627.227 761.034 607.307 758.261 588.519 752.715C569.844 747.169 552.64 739.246 536.908 728.947C521.176 718.534 507.028 705.914 494.465 691.088C481.902 676.148 471.263 659.34 462.548 640.665C453.833 621.877 447.155 601.335 442.515 579.038C437.875 556.742 435.554 533.087 435.554 508.074ZM487.844 508.074C487.844 539.425 491.579 567.72 499.049 592.96C506.519 618.086 517.215 639.534 531.136 657.303C545.057 674.959 561.921 688.541 581.728 698.048C601.535 707.555 623.718 712.309 648.278 712.309C672.952 712.309 695.192 707.555 714.999 698.048C734.805 688.541 751.669 674.959 765.591 657.303C779.512 639.534 790.207 618.086 797.677 592.96C805.147 567.72 808.882 539.425 808.882 508.074C808.882 476.722 805.147 448.484 797.678 423.358C790.208 398.118 779.512 376.67 765.591 359.014C751.669 341.245 734.805 327.606 714.999 318.099C695.192 308.592 672.952 303.838 648.278 303.838C623.718 303.838 601.535 308.592 581.728 318.099C561.921 327.606 545.057 341.245 531.136 359.014C517.215 376.67 506.519 398.118 499.049 423.358C491.579 448.484 487.844 476.722 487.844 508.074Z" fill="black"/>
<path d="M2.81534 750.847L2.81535 690.918C2.81536 672.13 5.19217 655.605 9.94578 641.344C14.8126 627.084 21.3205 614.577 29.4695 603.825C37.7318 592.959 47.3521 583.679 58.3307 575.982C69.3093 568.173 80.967 561.439 93.3037 555.779C105.64 550.12 118.373 545.254 131.502 541.179C144.631 537.105 157.421 533.426 169.871 530.144L190.753 524.372C202.863 521.089 214.521 517.864 225.726 514.695C237.044 511.526 247.57 507.96 257.303 503.999C267.15 500.038 276.148 495.511 284.297 490.417C292.446 485.324 299.407 479.269 305.179 472.252C310.951 465.235 315.422 457.142 318.591 447.974C321.873 438.694 323.514 427.885 323.514 415.548C323.514 399.59 320.458 384.819 314.347 371.238C308.348 357.543 299.69 345.715 288.371 335.755C277.053 325.795 263.358 317.986 247.287 312.327C231.215 306.668 213.219 303.838 193.299 303.838C172.474 303.838 153.686 306.951 136.935 313.176C120.184 319.287 105.923 328.059 94.1526 339.49C82.3818 350.808 73.2707 364.56 66.8194 380.745C60.4812 396.817 57.3121 414.756 57.3121 434.562L57.3121 444.07L5.02243 444.07L5.02243 433.714C5.02243 406.324 9.4365 381.65 18.2646 359.693C27.0928 337.623 39.7125 318.835 56.1237 303.329C72.6482 287.823 92.6813 275.939 116.223 267.677C139.878 259.301 166.419 255.114 195.846 255.114C224.141 255.114 249.437 258.962 271.734 266.658C294.03 274.241 312.875 285.05 328.268 299.085C343.66 313.119 355.431 329.927 363.58 349.507C371.729 369.087 375.804 390.875 375.804 414.869C375.804 433.431 373.484 449.672 368.843 463.593C364.203 477.402 357.865 489.455 349.829 499.755C341.793 510.054 332.455 518.826 321.816 526.069C311.177 533.313 299.803 539.538 287.692 544.744C275.695 549.837 263.302 554.195 250.512 557.817C237.836 561.325 225.443 564.608 213.332 567.664L187.697 574.624C177.171 577.227 166.532 580.113 155.78 583.282C145.141 586.338 134.898 589.96 125.051 594.148C115.204 598.336 105.98 603.259 97.3782 608.918C88.7765 614.577 81.3065 621.311 74.9683 629.121C68.6302 636.817 63.6502 645.758 60.0284 655.945C56.4066 666.018 54.5957 677.676 54.5957 690.918L54.5957 702.123L374.276 702.123L374.276 750.847L2.81534 750.847Z" fill="black"/>
</svg>
