<svg width="41" height="41" viewBox="0 0 41 41" fill="none" xmlns="http://www.w3.org/2000/svg">
<path d="M39.7878 13.5918C39.7878 13.5918 39.7878 13.5918 39.7878 13.489C38.3405 9.53377 35.7144 6.11888 32.2647 3.70633C28.815 1.29378 24.7083 0 20.5 0C16.2917 0 12.185 1.29378 8.7353 3.70633C5.28564 6.11888 2.65953 9.53377 1.21223 13.489C1.21223 13.489 1.21223 13.489 1.21223 13.5918C-0.404075 18.0552 -0.404075 22.9448 1.21223 27.4081C1.21223 27.4081 1.21223 27.4082 1.21223 27.511C2.65953 31.4662 5.28564 34.8811 8.7353 37.2937C12.185 39.7062 16.2917 41 20.5 41C24.7083 41 28.815 39.7062 32.2647 37.2937C35.7144 34.8811 38.3405 31.4662 39.7878 27.511C39.7878 27.511 39.7878 27.511 39.7878 27.4081C41.4041 22.9448 41.4041 18.0552 39.7878 13.5918ZM4.56037 24.612C3.84807 21.917 3.84807 19.083 4.56037 16.388H8.38095C8.05237 19.1195 8.05237 21.8805 8.38095 24.612H4.56037ZM6.24471 28.724H9.12042C9.60255 30.5576 10.2917 32.3303 11.1745 34.0079C9.16006 32.6344 7.47612 30.8295 6.24471 28.724ZM9.12042 12.276H6.24471C7.45841 10.177 9.12081 8.37263 11.1129 6.99209C10.2513 8.67235 9.58288 10.445 9.12042 12.276ZM18.4048 36.3312C15.882 34.4781 14.1101 31.7776 13.4134 28.724H18.4048V36.3312ZM18.4048 24.612H12.5302C12.1469 21.8841 12.1469 19.1159 12.5302 16.388H18.4048V24.612ZM18.4048 12.276H13.4134C14.1101 9.22237 15.882 6.52193 18.4048 4.66882V12.276ZM34.6731 12.276H31.7974C31.3153 10.4424 30.6262 8.66966 29.7433 6.99209C31.7578 8.36565 33.4417 10.1705 34.6731 12.276ZM22.513 4.66882C25.0359 6.52193 26.8078 9.22237 27.5044 12.276H22.513V4.66882ZM22.513 36.3312V28.724H27.5044C26.8078 31.7776 25.0359 34.4781 22.513 36.3312ZM28.3877 24.612H22.513V16.388H28.3877C28.771 19.1159 28.771 21.8841 28.3877 24.612ZM29.805 34.0079C30.6878 32.3303 31.3769 30.5576 31.859 28.724H34.7347C33.5033 30.8295 31.8194 32.6344 29.805 34.0079ZM36.3575 24.612H32.5369C32.7039 23.2478 32.7863 21.8744 32.7834 20.5C32.7856 19.1256 32.7033 17.7523 32.5369 16.388H36.3575C37.0698 19.083 37.0698 21.917 36.3575 24.612Z" fill="#222222"/>
</svg>
