<svg width="1920" height="341" viewBox="0 0 1920 341" fill="none" xmlns="http://www.w3.org/2000/svg">
<g clip-path="url(#clip0_617_465)">
<path d="M1043.88 341C1043.88 296.951 1043.88 252.909 1043.88 208.86C1044.08 208.691 1044.3 208.541 1044.46 208.353C1047.03 205.414 1049.89 202.731 1053.39 200.623C1059.32 197.039 1065.72 195.801 1072.67 197.946C1077.64 199.479 1081.56 202.33 1084.99 205.733C1089.97 210.661 1093.53 216.34 1096.49 222.332C1100.31 230.112 1102.92 238.224 1104.8 246.517C1106.67 254.791 1107.77 263.141 1108.22 271.559C1108.3 273.141 1108.37 274.73 1108.44 276.35C1141.24 268.964 1173.95 269.001 1206.65 276.487C1206.67 276.325 1206.69 276.225 1206.7 276.125C1207.1 270.771 1207.36 265.399 1207.94 260.057C1208.88 251.539 1210.75 243.165 1213.48 234.94C1216.15 226.878 1219.61 219.098 1224.77 211.968C1227.98 207.54 1231.71 203.5 1236.73 200.517C1244.25 196.045 1252.03 195.595 1259.97 199.647C1264.5 201.961 1268.01 205.239 1271.07 208.91C1271.36 209.26 1271.55 209.767 1271.55 210.198C1271.57 253.515 1271.57 296.839 1271.57 340.156V340.994H1043.88V341Z" fill="#C0B991"/>
<path fill-rule="evenodd" clip-rule="evenodd" d="M964.523 228.505C962.693 231.72 961.769 235.213 961.544 238.935C961.073 246.698 963.66 253.607 968.759 259.865C970.869 262.453 973.105 264.913 976.226 266.624C979.045 268.162 982.154 268.94 985.4 269.184C987.253 269.323 989.12 269.333 990.988 269.343C991.805 269.348 992.622 269.352 993.439 269.367H993.897C993.53 269.857 993.158 270.341 992.786 270.824C992 271.845 991.218 272.859 990.506 273.915C987.077 278.997 985.708 284.506 986.562 290.376C987.385 296.035 990.073 301.01 994.418 305.192C999.348 309.94 1005.34 313.367 1012.4 315.077C1021.77 317.343 1030.29 315.544 1037.96 310.423C1043.01 307.058 1047.09 302.976 1049.74 297.85C1049.76 297.796 1049.8 297.744 1049.84 297.694C1049.86 297.672 1049.87 297.65 1049.89 297.628C1049.9 297.621 1049.91 297.618 1049.93 297.616C1049.94 297.615 1049.95 297.613 1049.96 297.612C1050.05 298.09 1050.13 298.569 1050.21 299.049C1050.4 300.113 1050.58 301.176 1050.86 302.221C1051.91 306.208 1053.28 310.101 1055.97 313.5C1060.14 318.759 1065.88 321.78 1073.05 322.73C1079.51 323.585 1085.66 322.619 1091.55 320.281C1097.82 317.793 1101.59 313.4 1103.43 307.624C1105.09 302.41 1104.48 297.356 1102.03 292.447C1101.43 291.259 1100.81 290.085 1100.18 288.911C1099.86 288.325 1099.55 287.738 1099.24 287.149L1099.24 287.149C1099.13 286.938 1099.01 286.727 1098.9 286.51C1099.38 286.47 1099.86 286.435 1100.33 286.4C1101.34 286.326 1102.32 286.254 1103.29 286.133C1105.9 285.811 1108.33 285 1110.64 283.878C1117.09 280.735 1122.44 276.553 1125.88 270.733C1131.32 261.554 1130.93 252.529 1124.33 243.888C1118.94 236.847 1111.48 232.16 1102.41 229.433C1101.22 229.073 1100.01 228.764 1098.79 228.505L1145.8 228.505V340.978C1145.68 340.98 1145.56 340.984 1145.44 340.988C1145.26 340.994 1145.08 341 1144.9 341H946.258C945.957 341 945.655 340.989 945.354 340.978L945.354 340.978V228.505H964.523Z" fill="#7F7B00"/>
<path d="M943.663 233.471C937.309 227.016 923.679 213.546 900.597 208.505C894.349 207.137 874.556 202.815 855.244 211.657C850.399 213.876 841.363 218.152 835.938 227.428C835.035 228.975 828.569 240.435 833.21 252.799C838.496 266.896 853.471 269.503 852.897 280.656C852.831 281.914 852.601 286.375 848.89 289.028C845.284 291.612 840.519 290.987 839.155 290.813C832.709 289.973 828.609 285.697 827.62 284.654C826.006 282.951 826.019 282.302 823.587 279.834C821.477 277.69 820.133 276.357 817.813 275.326C814.471 273.843 811.367 274.016 810.576 274.074C809.857 274.127 807.34 274.364 804.65 275.789C802.528 276.913 801.342 278.229 799.958 279.787C797.525 282.533 797.341 283.773 795.509 286.201C795.509 286.201 793.189 289.463 789.425 291.937C785.477 294.533 781.173 295.089 766.455 295.153C761.512 295.176 755.553 295.141 748.778 294.979C748.778 310.321 748.778 325.663 748.778 341C818.9 341 889.03 341 959.152 341C959.152 312.343 959.152 283.686 959.152 255.03C956.423 249.572 951.678 241.611 943.663 233.471Z" fill="#253465"/>
<path fill-rule="evenodd" clip-rule="evenodd" d="M664.392 341.001V341.001H539.646V224.99C546.716 231.095 556.384 233.51 566.105 235.938C574.663 238.076 583.263 240.225 590.168 244.911C595.092 248.254 598.912 252.735 602.707 257.187C607.729 263.077 612.708 268.918 620.146 272.008C616.39 269.771 614.445 265.707 614.069 261.733C613.694 257.759 614.666 253.785 615.631 249.883C617.428 254.79 622.231 258.407 627.35 260.916C629.786 262.11 632.331 263.114 634.877 264.118C637.681 265.225 640.485 266.331 643.142 267.69C649.034 270.709 654.034 275.004 657.736 280.038C661.438 275.004 666.438 270.709 672.33 267.69C674.987 266.331 677.791 265.225 680.595 264.118C683.141 263.114 685.687 262.11 688.122 260.916C693.241 258.407 698.044 254.79 699.841 249.883C700.806 253.785 701.778 257.759 701.403 261.733C701.027 265.707 699.082 269.771 695.326 272.008C702.764 268.917 707.743 263.077 712.765 257.187C716.56 252.735 720.38 248.254 725.304 244.911C732.209 240.224 740.809 238.076 749.368 235.938C759.088 233.51 768.756 231.095 775.826 224.99V341.001H664.392Z" fill="#681127"/>
<path d="M1696 340.994H1482.96C1482.79 280.281 1507.49 238.167 1516.59 244.311C1517.93 245.219 1517.97 247.709 1517.54 250.641C1517.2 252.904 1520.54 253.961 1521.84 252.002C1528.74 241.618 1540.87 228.488 1557.54 226.171C1584.68 222.398 1572.24 258.815 1575.89 283.571C1579.53 308.327 1597.64 320.848 1617.01 318.101C1640.36 314.793 1673.52 284.813 1631.33 201.684C1629.53 198.125 1634.76 195.116 1637.63 198.054C1661.84 222.834 1696.19 272.865 1696 341V340.994Z" fill="#D17A00"/>
<path d="M1372.65 262.488H1408.24L1442.06 306.446C1443.23 307.965 1445.18 308.874 1447.26 308.874H1461.82V277.696H1475.75C1478.12 277.696 1480.29 278.87 1481.36 280.728L1495.8 305.842C1496.87 307.699 1499.03 308.874 1501.4 308.874H1515.3V262.488H1550.99V341H1372.56L1372.65 262.488Z" fill="#EFABAB"/>
<path d="M382.923 340.998V327.384L304.139 315.56L304.04 315.529C298.44 314.666 294.185 310.363 294.185 305.185C294.185 302.604 295.242 300.241 296.996 298.412L297.079 298.326L354.926 227.956L354.938 227.941C357.837 224.463 359.55 220.17 359.55 215.525C359.55 203.925 348.871 194.522 335.698 194.522C324.825 194.522 315.651 200.928 312.779 209.687L312.605 210.25L287.45 283.589L287.437 283.626C284.511 292.181 275.494 298.412 264.825 298.412C257.653 298.412 251.228 295.597 246.898 291.154L208.433 247.413C200.592 238.488 184.943 239.523 178.704 249.379L146.868 299.675H146.801V341L382.923 340.998Z" fill="#EFABAB"/>
<path d="M461.448 219.135C444.726 216.621 427.94 216.215 411.056 217.49C401.116 218.241 391.228 219.243 381.796 222.26C378.789 223.222 375.822 224.615 373.276 226.326C369.72 228.722 369.512 232.253 372.814 234.89C375.631 237.142 378.927 238.957 382.188 240.709C389.721 244.75 397.566 248.353 404.891 252.656C410.802 256.131 415.437 260.829 417.03 267.316C418.04 271.424 417.532 275.449 416.049 279.386C409.826 295.902 389.739 308.548 370.188 308.121C360.219 307.9 350.839 305.191 341.476 302.415C332.968 299.897 324.488 297.146 315.772 295.378C300.845 292.35 289.646 297.99 283.926 310.64C280.999 317.107 279.833 323.903 279.337 330.811C279.095 334.204 278.945 337.602 278.748 341H462.493V219.423C462.216 219.294 461.87 219.197 461.437 219.135H461.448Z" fill="#D17A00"/>
<path d="M173.726 248.2V341H0C0 307.292 0 273.588 0 239.88C0.0874752 239.393 0.180418 238.902 0.262425 238.415C1.26292 232.491 7.37525 227.574 14.16 227.42C19.2719 227.304 24.3946 227.314 29.5119 227.396C35.493 227.492 39.9051 229.979 42.7754 234.578C43.9781 236.506 44.4264 238.617 44.4647 240.801C44.503 242.84 44.3718 244.898 44.6342 246.913C45.4597 253.261 51.9657 258.27 59.2207 258.27C63.2664 258.27 67.3121 258.255 71.3579 258.279C72.4021 258.284 73.4573 258.352 74.4906 258.482C81.1332 259.33 86.5293 264.488 87.0323 270.388C87.1635 271.916 87.1963 273.487 87.6282 274.957C89.3395 280.814 95.337 284.81 102.209 284.81C106.211 284.81 110.213 284.815 114.215 284.805C114.893 284.805 115.571 284.767 116.244 284.69C123.717 283.807 129.277 278.201 129.283 271.559C129.283 264.068 129.277 256.573 129.294 249.082C129.294 248.2 129.376 247.313 129.529 246.441C130.584 240.43 136.773 235.609 143.678 235.499C148.73 235.417 153.781 235.412 158.833 235.479C165.853 235.576 171.686 239.75 173.272 245.708C173.491 246.523 173.584 247.366 173.737 248.195L173.726 248.2Z" fill="#F7422C"/>
<path d="M1884.07 240.223H1986.74C2049.86 240.223 2101.1 285.38 2101.1 341H1884.07V240.223Z" fill="#253465"/>
<path d="M1926.96 210.444C1922.28 210.233 1917.6 209.994 1912.92 209.845C1906.84 209.657 1900.76 209.777 1894.68 210.102C1890.02 210.353 1885.36 210.627 1880.73 211.088C1875.5 211.607 1870.27 212.24 1865.08 212.999C1855.94 214.339 1846.95 216.272 1838.11 218.752C1831.97 220.48 1825.96 222.482 1820.09 224.803C1816.9 226.063 1814.88 228.863 1814.74 231.965C1814.72 232.187 1814.7 232.415 1814.67 232.643C1814.17 236.145 1810.95 238.95 1807.01 239.309C1805.26 239.469 1803.61 239.167 1802.18 238.523C1798.99 237.08 1795.19 237.285 1792.34 239.201C1791.8 239.566 1791.26 239.931 1790.72 240.302C1786.35 243.33 1782.22 246.603 1778.37 250.138C1770.54 257.3 1764.01 265.301 1758.74 274.117C1753.76 282.465 1750.06 291.252 1747.41 300.405C1745.82 305.902 1744.63 311.467 1743.79 317.09C1742.96 322.564 1742.43 328.061 1742.22 333.587C1742.19 334.476 1742.16 335.36 1742.13 336.25C1742.13 336.352 1742.07 336.455 1742.05 336.558V340.988L1742.06 341C1804.41 341 1866.76 341 1929.12 341H1929.79V210.689C1928.84 210.604 1927.9 210.49 1926.96 210.444Z" fill="#681127"/>
<path d="M1653.85 341C1655.44 337.821 1657.73 333.197 1660.39 327.573C1664.76 318.364 1666.97 313.673 1668.42 309.441C1669.83 305.286 1672.26 298.022 1672.6 288.54C1672.96 278.915 1671.12 268.835 1669.57 260.376C1669.4 259.482 1669.14 258.133 1669.11 256.269C1669.07 253.266 1669.07 246.27 1674.69 240.288C1676.28 238.6 1680.98 233.598 1688.66 233.216C1696.34 232.833 1701.7 237.328 1702.27 237.826C1710.38 244.859 1708.54 257.402 1707.85 262.107C1707.38 265.325 1706.64 267.458 1706.17 270.719C1705.91 272.522 1705.78 273.755 1705.76 275.324C1705.71 279.082 1705.67 282.707 1707.92 285.872C1709.93 288.698 1714.29 291.911 1719.72 291.61C1726.37 291.237 1729.97 285.714 1730.54 284.849C1730.54 284.849 1735.12 277.829 1730.68 266.903C1730.64 266.803 1730.28 265.928 1729.84 264.708C1729.69 264.302 1729.54 263.857 1729.37 263.35C1729.01 262.255 1728.69 260.969 1728.45 259.338C1727.89 255.599 1727.18 250.248 1730.47 245.103C1731.23 243.927 1733.17 240.972 1737.17 239.054C1743.23 236.152 1749.57 237.739 1751.13 238.132C1762.09 240.891 1767.03 250.717 1768.58 253.806C1769.26 255.145 1771.07 258.989 1772.08 267.635C1773.55 280.311 1773.47 304.908 1774.52 310.048C1774.65 310.68 1775.24 313.668 1777.66 315.581C1778.17 315.983 1780.64 317.914 1783.94 317.427C1786.24 317.087 1787.66 315.705 1788.21 315.16C1790.38 313.004 1790.6 310.335 1790.76 307.734C1790.87 306.075 1790.68 304.363 1790.29 300.944C1790 298.481 1789.67 296.411 1790.59 293.858C1790.75 293.413 1790.94 292.906 1791.31 292.289C1791.31 292.289 1793.11 289.152 1797.19 287.928C1801.53 286.628 1806.26 288.66 1808.01 289.463C1820.46 295.158 1826.78 310.627 1826.94 320.869C1826.95 321.525 1826.94 322.519 1826.93 324.972C1826.93 325.685 1826.92 328.396 1826.91 330.839C1826.91 333.225 1826.79 336.759 1826.8 341C1807.53 341.01 1758.19 340.981 1738.92 341C1720.82 341.02 1671.95 340.977 1653.85 341Z" fill="#87BDF1"/>
<path d="M382.027 325.003C382.406 324.892 382.518 324.594 382.691 324.328C383.604 322.915 384.498 321.493 385.438 320.095C387.47 317.076 389.828 314.264 392.613 311.731C395.987 308.658 399.82 306.1 403.976 303.894C410.111 300.637 416.579 298.018 423.44 296.138C427.287 295.084 431.096 293.936 434.766 292.465C436.993 291.57 439.179 290.594 441.374 289.637C442.352 289.212 443.236 288.657 444.018 287.987C446.143 286.16 447.069 283.921 446.948 281.339C446.845 279.169 446.007 277.212 444.65 275.41C443.896 274.409 442.988 273.514 442.01 272.676C440.578 271.45 439.029 270.347 437.386 269.35C434.77 267.756 432.131 266.191 429.482 264.639C425.289 262.179 421.128 259.678 417.239 256.855C415.297 255.445 413.425 253.962 411.534 252.503C410.177 251.457 409.147 250.186 408.305 248.793C406.952 246.55 406.124 244.155 405.614 241.671C405.197 239.64 405.071 237.597 405.197 235.542C405.333 233.261 405.834 231.051 406.873 228.942C407.374 227.925 408.001 226.969 408.778 226.094C410.163 224.538 411.908 223.394 414.005 222.65C418.952 220.889 423.964 220.815 429.033 222.176C431.864 222.936 434.522 224.031 437.063 225.343C438.842 226.262 440.583 227.239 442.338 228.195C443.438 228.795 444.523 229.416 445.632 230.005C446.32 230.369 447.032 230.704 447.748 231.026C449.105 231.647 450.556 231.95 452.086 232.027C453.453 232.097 454.819 232.154 456.186 232.027C457.131 231.942 458.053 231.77 458.942 231.476C460.973 230.806 462.335 229.572 463.056 227.79C463.468 226.769 463.627 225.71 463.674 224.632C463.758 222.703 463.786 220.774 463.927 218.85C464.301 213.734 465.134 208.684 466.87 203.768C467.689 201.451 468.719 199.212 470.067 197.087C471.419 194.958 473.057 193.017 475.107 191.354C477.761 189.197 480.887 187.82 484.364 186.999C486.1 186.59 487.865 186.337 489.657 186.32C493.864 186.279 497.566 187.469 500.767 189.851C502.817 191.375 504.465 193.197 505.826 195.216C508.143 198.648 509.706 202.338 510.623 206.24C511.171 208.581 511.452 210.96 511.714 213.338C511.99 215.867 512.201 218.404 512.739 220.905C512.987 222.049 513.305 223.177 513.806 224.26C514.176 225.057 514.644 225.808 515.28 226.474C516.235 227.467 517.433 228.121 518.879 228.428C519.965 228.656 520.966 228.497 521.902 227.982C522.534 227.635 523.082 227.198 523.503 226.667C524.158 225.837 524.823 225.003 525.375 224.121C526.264 222.699 527.083 221.24 527.907 219.786C529.634 216.737 531.454 213.734 533.63 210.906C535.357 208.663 537.299 206.579 539.391 204.589C542.008 202.101 545.199 200.462 548.901 199.592C555.425 198.064 561.785 198.477 567.818 201.173C574.145 204.001 577.95 208.59 579.457 214.621C580.351 218.192 580 221.747 578.928 225.257C578.057 228.113 576.733 230.806 575.142 233.409C573.055 236.82 570.551 239.999 567.818 243.04C564.57 246.656 561.42 250.333 558.514 254.166C556.193 257.235 554.012 260.373 552.196 263.699C551.199 265.525 550.343 267.397 549.711 269.35C548.672 272.582 549.009 275.712 550.525 278.768C551.92 281.58 554.073 283.888 556.717 285.866C560.114 288.403 564.027 290.042 568.337 291.006C572.516 291.942 576.761 292.293 581.062 292.081C584.544 291.909 587.937 291.341 591.176 290.136C594.012 289.078 596.997 288.559 600.096 288.645C603.526 288.739 606.746 289.511 609.633 291.166C613.747 293.519 615.844 296.886 616.092 301.148C616.251 303.886 615.582 306.505 614.501 309.055C614.159 309.855 613.794 310.656 613.363 311.425C612.287 313.341 612.09 315.355 612.39 317.427C612.727 319.789 613.611 322.012 614.707 324.177C615.628 326 616.705 327.753 617.88 329.461C618.254 330.004 618.647 330.539 619.031 331.075V341H382.027V325.011V325.003Z" fill="#87BDF1"/>
<path d="M1375.25 310.143L1409.81 341H1238.05L1272.6 310.143L1238.05 220.302H1409.81L1375.25 310.143Z" fill="#F7422C"/>
</g>
<defs>
<clipPath id="clip0_617_465">
<rect width="1920" height="341" fill="white"/>
</clipPath>
</defs>
</svg>
